<?xml version="1.0" encoding="utf-8"?><svg xmlns="http://www.w3.org/2000/svg" xmlns:xlink="http://www.w3.org/1999/xlink"><symbol viewBox="0 0 28 20" id="marks"><title>marks</title><path d="M6.147 7.556c3.38 0 6.12 2.746 6.12 6.134 0 3.386-2.74 6.132-6.12 6.132S.027 17.076.027 13.69L0 12.813C0 6.04 5.48.547 12.24.547v3.505a8.67 8.67 0 0 0-6.183 2.565c-.318.32-.607.66-.87 1.015.314-.05.632-.076.96-.076zm15.735 0c3.38 0 6.118 2.746 6.118 6.134 0 3.386-2.74 6.132-6.118 6.132-3.38 0-6.12-2.746-6.12-6.132l-.028-.877c0-6.774 5.48-12.266 12.24-12.266v3.505a8.68 8.68 0 0 0-6.183 2.565c-.316.32-.605.66-.867 1.015.313-.05.633-.076.96-.076z" fill="#1B8BF9" fill-rule="evenodd"/></symbol></svg>