<?xml version="1.0" encoding="UTF-8"?>
<svg width="473px" height="81px" viewBox="0 0 473 81" version="1.1" xmlns="http://www.w3.org/2000/svg" xmlns:xlink="http://www.w3.org/1999/xlink">
    <!-- Generator: Sketch 42 (36781) - http://www.bohemiancoding.com/sketch -->
    <title>logo-dark</title>
    <desc>Created with Sketch.</desc>
    <defs>
        <polygon id="path-1" points="22.9628944 19.4735211 0.0108314607 19.4735211 0.0108314607 0.211802817 22.9628944 0.211802817 22.9628944 19.4735211"></polygon>
        <polygon id="path-3" points="24.4007506 19.4735211 0.0273348315 19.4735211 0.0273348315 0.211802817 24.4007506 0.211802817 24.4007506 19.4735211"></polygon>
    </defs>
    <g id="Page-1" stroke="none" stroke-width="1" fill="none" fill-rule="evenodd">
        <g id="logo-dark">
            <g id="TBSC_logo_DEF" transform="translate(7.000000, 4.000000)">
                <path d="M12.0113596,19.4714648 L12.0113596,38.9655493 C12.0113596,40.1633662 11.0355978,41.1360141 9.83497753,41.1360141 C8.63332584,41.1360141 7.65756404,40.1633662 7.65756404,38.9655493 L7.65756404,19.4714648 L1.91439101,19.4714648 C0.863332584,19.4714648 0,18.6108873 0,17.5631831 C0,16.5154789 0.863332584,15.6549014 1.91439101,15.6549014 L17.7545326,15.6549014 C18.805591,15.6549014 19.6699551,16.5154789 19.6699551,17.5631831 C19.6699551,18.6108873 18.805591,19.4714648 17.7545326,19.4714648 L12.0113596,19.4714648" id="Fill-1" fill="#4D4D4C"></path>
                <path d="M26.0134382,25.5705634 C26.727209,24.4848169 28.3032809,23.3250423 30.817982,23.3250423 C35.9237124,23.3250423 37.1243326,26.5812535 37.1243326,29.8364366 L37.1243326,39.1907183 C37.1243326,40.3134789 36.2238674,41.1360141 35.0975124,41.1360141 C33.8968921,41.1360141 33.0706921,40.3134789 33.0706921,39.1907183 L33.0706921,30.5839155 C33.0706921,28.451493 32.2073596,26.991493 29.7669236,26.991493 C26.9520674,26.991493 26.0134382,28.6386197 26.0134382,30.8460986 L26.0134382,39.1907183 C26.0134382,40.3134789 25.1501056,41.1360141 23.986618,41.1360141 C22.8231303,41.1360141 21.9597978,40.3134789 21.9597978,39.1907183 L21.9597978,16.2152535 C21.9597978,15.0935211 22.8602629,14.1959296 23.986618,14.1959296 C25.112973,14.1959296 26.0134382,15.0935211 26.0134382,16.2152535 L26.0134382,25.5705634" id="Fill-2" fill="#4D4D4C"></path>
                <path d="M44.1062899,30.3967887 L51.5389955,30.3967887 C51.5389955,28.5635634 50.4879371,26.7673521 48.0485326,26.7673521 C45.8711191,26.7673521 44.2940157,28.0021831 44.1062899,30.3967887 Z M48.0485326,23.3250423 C54.3909843,23.3250423 55.5555034,28.1893099 55.5555034,30.7710423 C55.5555034,32.1559859 55.5555034,33.7650704 53.2656607,33.7650704 L43.9938607,33.7650704 C43.9938607,36.4588732 45.9082517,37.6937042 48.3858202,37.6937042 C50.0371888,37.6937042 51.2006764,37.1323239 52.102173,36.5339296 C52.5147573,36.2717465 52.8149124,36.1216338 53.3027933,36.1216338 C54.2795865,36.1216338 55.0676225,36.9071549 55.0676225,37.880831 C55.0676225,38.4792254 54.7674674,38.9655493 54.4291483,39.2647465 C53.7906742,39.8631408 51.802018,41.3231408 48.3858202,41.3231408 C43.1686921,41.3231408 39.9402202,38.5162394 39.9402202,32.2680563 C39.9402202,26.5432113 42.9428022,23.3250423 48.0485326,23.3250423 L48.0485326,23.3250423 Z" id="Fill-3" fill="#4D4D4C"></path>
                <path d="M71.5844022,36.9451972 L76.8396944,36.9451972 C79.5049888,36.9451972 80.5550157,35.5232394 80.5550157,33.2787465 C80.5550157,30.9951831 79.3162315,29.6112676 76.8396944,29.6112676 L71.5844022,29.6112676 L71.5844022,36.9451972 Z M71.5844022,25.9448169 L76.1630562,25.9448169 C78.5281955,25.9448169 79.5049888,24.5968873 79.5049888,22.7266479 C79.5049888,20.7803239 78.5281955,19.5465211 76.1630562,19.5465211 L71.5844022,19.5465211 L71.5844022,25.9448169 Z M69.4069888,40.8368169 C68.2063685,40.8368169 67.2295753,39.8631408 67.2295753,38.6663521 L67.2295753,17.824338 C67.2295753,16.6275493 68.2063685,15.6549014 69.4069888,15.6549014 L76.1630562,15.6549014 C81.8309326,15.6549014 83.8587843,18.7229577 83.8587843,22.1652676 C83.8587843,24.6349296 82.62,26.5061972 81.0810607,27.2536761 C83.8959169,28.3394225 84.9851393,30.3597746 84.9851393,33.2787465 C84.9851393,37.8438169 82.2445483,40.8368169 76.8396944,40.8368169 L69.4069888,40.8368169 L69.4069888,40.8368169 Z" id="Fill-4" fill="#E05229"></path>
                <path d="M91.5906135,30.3967887 L99.0233191,30.3967887 C99.0233191,28.5635634 97.9732921,26.7673521 95.5328562,26.7673521 C93.3554427,26.7673521 91.7793708,28.0021831 91.5906135,30.3967887 Z M95.5328562,23.3250423 C101.876339,23.3250423 103.039827,28.1893099 103.039827,30.7710423 C103.039827,32.1559859 103.039827,33.7650704 100.749984,33.7650704 L91.4792157,33.7650704 C91.4792157,36.4588732 93.3925753,37.6937042 95.8711753,37.6937042 C97.5215124,37.6937042 98.6860315,37.1323239 99.5864966,36.5339296 C100.000112,36.2717465 100.300267,36.1216338 100.788148,36.1216338 C101.76391,36.1216338 102.551946,36.9071549 102.551946,37.880831 C102.551946,38.4792254 102.251791,38.9655493 101.913472,39.2647465 C101.276029,39.8631408 99.2863416,41.3231408 95.8711753,41.3231408 C90.6530157,41.3231408 87.4245438,38.5162394 87.4245438,32.2680563 C87.4245438,26.5432113 90.4271258,23.3250423 95.5328562,23.3250423 L95.5328562,23.3250423 Z" id="Fill-5" fill="#E05229"></path>
                <path d="M107.169796,20.7062958 C107.169796,19.6215775 108.070261,18.7229577 109.159483,18.7229577 C110.246643,18.7229577 111.148139,19.6215775 111.148139,20.7062958 L111.148139,23.8494085 L112.837672,23.8494085 C113.77527,23.8494085 114.527204,24.5968873 114.527204,25.5335493 C114.527204,26.4681549 113.77527,27.216662 112.837672,27.216662 L111.148139,27.216662 L111.148139,36.2717465 C111.148139,37.1323239 111.899043,37.6186479 112.574649,37.6186479 C113.550411,37.6186479 114.338447,38.404169 114.338447,39.3768169 C114.338447,40.350493 113.550411,41.1360141 112.574649,41.1360141 C109.233748,41.1360141 107.169796,39.0035915 107.169796,36.0476056 L107.169796,27.216662 L106.305431,27.216662 C105.367834,27.216662 104.61693,26.4681549 104.61693,25.5335493 C104.61693,24.5968873 105.367834,23.8494085 106.305431,23.8494085 L107.169796,23.8494085 L107.169796,20.7062958" id="Fill-6" fill="#E05229"></path>
                <path d="M118.656142,20.7062958 C118.656142,19.6215775 119.556607,18.7229577 120.644798,18.7229577 C121.732989,18.7229577 122.634485,19.6215775 122.634485,20.7062958 L122.634485,23.8494085 L124.324018,23.8494085 C125.261616,23.8494085 126.012519,24.5968873 126.012519,25.5335493 C126.012519,26.4681549 125.261616,27.216662 124.324018,27.216662 L122.634485,27.216662 L122.634485,36.2717465 C122.634485,37.1323239 123.385389,37.6186479 124.060996,37.6186479 C125.036757,37.6186479 125.824793,38.404169 125.824793,39.3768169 C125.824793,40.350493 125.036757,41.1360141 124.060996,41.1360141 C120.720094,41.1360141 118.656142,39.0035915 118.656142,36.0476056 L118.656142,27.216662 L117.791778,27.216662 C116.85418,27.216662 116.103276,26.4681549 116.103276,25.5335493 C116.103276,24.5968873 116.85418,23.8494085 117.791778,23.8494085 L118.656142,23.8494085 L118.656142,20.7062958" id="Fill-7" fill="#E05229"></path>
                <path d="M132.243573,30.3967887 L139.67731,30.3967887 C139.67731,28.5635634 138.626252,26.7673521 136.185816,26.7673521 C134.008402,26.7673521 132.43233,28.0021831 132.243573,30.3967887 Z M136.185816,23.3250423 C142.529299,23.3250423 143.692787,28.1893099 143.692787,30.7710423 C143.692787,32.1559859 143.692787,33.7650704 141.402944,33.7650704 L132.132175,33.7650704 C132.132175,36.4588732 134.046566,37.6937042 136.524135,37.6937042 C138.174472,37.6937042 139.338991,37.1323239 140.239456,36.5339296 C140.653072,36.2717465 140.953227,36.1216338 141.441108,36.1216338 C142.41687,36.1216338 143.204906,36.9071549 143.204906,37.880831 C143.204906,38.4792254 142.904751,38.9655493 142.567463,39.2647465 C141.928989,39.8631408 139.939301,41.3231408 136.524135,41.3231408 C131.305975,41.3231408 128.077503,38.5162394 128.077503,32.2680563 C128.077503,26.5432113 131.081117,23.3250423 136.185816,23.3250423 L136.185816,23.3250423 Z" id="Fill-8" fill="#E05229"></path>
                <path d="M150.562315,25.7576901 C151.276085,24.2976901 153.039883,23.3630845 154.616987,23.3630845 C155.667013,23.3630845 156.530346,24.223662 156.530346,25.2713662 C156.530346,26.3190704 155.667013,27.1796479 154.616987,27.1796479 C152.025957,27.1796479 150.562315,28.8257465 150.562315,31.3324225 L150.562315,39.115662 C150.562315,40.2384225 149.661849,41.1360141 148.535494,41.1360141 C147.410171,41.1360141 146.508674,40.2384225 146.508674,39.115662 L146.508674,25.5705634 C146.508674,24.4478028 147.410171,23.5502113 148.535494,23.5502113 C149.661849,23.5502113 150.562315,24.4478028 150.562315,25.5705634 L150.562315,25.7576901" id="Fill-9" fill="#E05229"></path>
                <path d="M176.163169,19.0221549 C173.047126,19.0221549 171.883638,20.4811268 171.883638,21.9781408 C171.883638,26.8804507 185.58453,24.5968873 185.58453,33.951169 C185.58453,38.5162394 182.356058,41.3601549 176.163169,41.3601549 C171.694881,41.3601549 168.129121,39.1526761 166.66651,36.7961127 C166.478784,36.4958873 166.366355,36.1216338 166.366355,35.7484085 C166.366355,34.6256479 167.26682,33.7270282 168.355011,33.7270282 C169.181211,33.7270282 169.63196,34.176338 170.00638,34.5505915 C171.583483,36.1216338 173.573171,37.394507 176.163169,37.394507 C179.578335,37.394507 181.230735,36.2717465 181.230735,33.951169 C181.230735,28.4895352 167.528811,30.9951831 167.528811,21.9781408 C167.528811,18.2736479 170.194106,15.1305352 176.163169,15.1305352 C179.916654,15.1305352 183.182258,16.5154789 184.683034,18.6479014 C184.908924,18.9851408 185.059517,19.3964085 185.059517,19.8457183 C185.059517,20.9304366 184.159052,21.8280282 183.032697,21.8280282 C182.506652,21.8280282 181.980607,21.528831 181.417429,21.005493 C180.253942,19.8827324 178.302418,19.0221549 176.163169,19.0221549" id="Fill-10" fill="#E05229"></path>
                <path d="M198.797542,34.5876056 L198.797542,33.5399014 L194.405582,33.5399014 C192.754213,33.5399014 191.852717,34.3264507 191.852717,35.6733521 C191.852717,37.0953099 192.866643,37.9558873 194.96876,37.9558873 C196.958447,37.9558873 198.797542,36.6830141 198.797542,34.5876056 Z M191.627858,28.3394225 C191.252407,28.6005775 190.95122,28.7136761 190.501503,28.7136761 C189.525742,28.7136761 188.737706,27.9281549 188.737706,26.9544789 C188.737706,26.5432113 188.887267,26.0939014 189.225587,25.7196479 C190.276645,24.5598732 192.152872,23.3250423 195.381344,23.3250423 C200.036326,23.3250423 202.813018,25.6075775 202.813018,29.5742535 L202.813018,39.1526761 C202.813018,40.2384225 201.912553,41.1360141 200.824362,41.1360141 C199.736171,41.1360141 198.834674,40.2384225 198.834674,39.1526761 C197.82178,40.7617606 196.16938,41.3231408 193.91667,41.3231408 C190.238481,41.3231408 187.799076,39.0406056 187.799076,35.6733521 C187.799076,32.193 190.613933,30.3967887 193.879537,30.3967887 L198.797542,30.3967887 L198.797542,29.723338 C198.797542,28.0391972 197.558757,26.9174648 195.381344,26.9174648 C193.729975,26.9174648 192.566488,27.6659718 191.627858,28.3394225 L191.627858,28.3394225 Z" id="Fill-11" fill="#E05229"></path>
                <path d="M210.622207,16.2152535 L210.622207,36.7210563 C210.622207,37.169338 211.071924,37.394507 211.334946,37.394507 C212.387036,37.394507 213.212204,38.2170423 213.212204,39.2647465 C213.212204,40.3134789 212.387036,41.1360141 211.334946,41.1360141 C208.407661,41.1360141 206.568566,39.4899155 206.568566,36.3468028 L206.568566,16.2152535 C206.568566,15.0935211 207.469031,14.1959296 208.595387,14.1959296 C209.721742,14.1959296 210.622207,15.0935211 210.622207,16.2152535" id="Fill-12" fill="#E05229"></path>
                <path d="M218.917213,30.3967887 L226.349919,30.3967887 C226.349919,28.5635634 225.298861,26.7673521 222.858425,26.7673521 C220.682043,26.7673521 219.104939,28.0021831 218.917213,30.3967887 Z M222.858425,23.3250423 C229.201908,23.3250423 230.365396,28.1893099 230.365396,30.7710423 C230.365396,32.1559859 230.365396,33.7650704 228.076584,33.7650704 L218.804784,33.7650704 C218.804784,36.4588732 220.719175,37.6937042 223.196744,37.6937042 C224.848112,37.6937042 226.012631,37.1323239 226.913097,36.5339296 C227.325681,36.2717465 227.625836,36.1216338 228.114748,36.1216338 C229.089479,36.1216338 229.878546,36.9071549 229.878546,37.880831 C229.878546,38.4792254 229.578391,38.9655493 229.241103,39.2647465 C228.601598,39.8631408 226.612942,41.3231408 223.196744,41.3231408 C217.979616,41.3231408 214.751144,38.5162394 214.751144,32.2680563 C214.751144,26.5432113 217.753726,23.3250423 222.858425,23.3250423 L222.858425,23.3250423 Z" id="Fill-13" fill="#E05229"></path>
                <path d="M237.010065,28.2643662 C237.010065,31.0332254 246.244733,29.7613803 246.244733,35.934507 C246.244733,39.4518732 243.241119,41.2480845 239.375204,41.2480845 C236.146733,41.2480845 233.669164,39.7891127 232.730535,38.629338 C232.43038,38.2550845 232.280818,37.9178451 232.280818,37.4685352 C232.280818,36.4958873 233.107018,35.6733521 234.08278,35.6733521 C234.4572,35.6733521 234.832652,35.7854225 235.246267,36.1216338 C236.259162,36.9451972 237.497946,37.6566901 239.375204,37.6566901 C241.063706,37.6566901 242.152928,37.2073803 242.152928,36.1596761 C242.152928,33.1286338 232.956425,34.7007042 232.956425,28.3394225 C232.956425,24.972169 235.772312,23.3250423 239.224611,23.3250423 C241.889906,23.3250423 244.255045,24.3357324 245.306103,25.6445915 C245.530962,25.9448169 245.681555,26.2059718 245.681555,26.7673521 C245.681555,27.74 244.855355,28.5635634 243.879593,28.5635634 C243.353548,28.5635634 243.016261,28.3394225 242.603676,28.0391972 C241.777476,27.4408028 240.763551,26.8424085 239.224611,26.8424085 C237.836265,26.8424085 237.010065,27.3287324 237.010065,28.2643662" id="Fill-14" fill="#E05229"></path>
                <path d="M257.017308,28.2643662 C257.017308,19.3964085 261.296838,15.1305352 268.766676,15.1305352 C273.308198,15.1305352 276.273647,16.9267465 277.812587,19.1712394 C278.112742,19.6215775 278.226202,19.9948028 278.226202,20.4070986 C278.226202,21.4918169 277.325737,22.3894085 276.199382,22.3894085 C275.673337,22.3894085 275.147292,22.1652676 274.660443,21.6409014 C273.121503,19.9577887 271.507267,19.0221549 268.766676,19.0221549 C263.774407,19.0221549 261.521697,22.0902113 261.521697,28.2643662 C261.521697,34.8117465 263.774407,37.4685352 268.766676,37.4685352 C271.5444,37.4685352 273.045175,36.8331268 274.847137,34.9999014 C275.447447,34.401507 275.93636,34.176338 276.462404,34.176338 C277.58876,34.176338 278.489225,35.0739296 278.489225,36.1966901 C278.489225,36.646 278.338631,37.0202535 278.112742,37.3194507 C276.311811,39.7140563 272.783184,41.3601549 268.766676,41.3601549 C261.296838,41.3601549 257.017308,37.4315211 257.017308,28.2643662" id="Fill-15" fill="#4D4D4C"></path>
                <path d="M289.075106,26.7673521 C286.372679,26.7673521 284.946169,28.6386197 284.946169,32.3431127 C284.946169,36.0095634 286.372679,37.880831 289.075106,37.880831 C291.777533,37.880831 293.204043,36.0095634 293.204043,32.3431127 C293.204043,28.6386197 291.777533,26.7673521 289.075106,26.7673521 Z M289.075106,41.3231408 C284.007539,41.3231408 280.855396,38.4422113 280.855396,32.3431127 C280.855396,26.2059718 284.007539,23.3250423 289.075106,23.3250423 C294.142672,23.3250423 297.295847,26.2059718 297.295847,32.3431127 C297.295847,38.4422113 294.142672,41.3231408 289.075106,41.3231408 L289.075106,41.3231408 Z" id="Fill-16" fill="#4D4D4C"></path>
                <path d="M326.536726,29.8364366 L326.536726,39.1907183 C326.536726,40.3134789 325.636261,41.1360141 324.509906,41.1360141 C323.308254,41.1360141 322.483085,40.3134789 322.483085,39.1907183 L322.483085,30.5839155 C322.483085,28.451493 321.618721,26.991493 319.179317,26.991493 C316.47689,26.991493 315.425831,28.451493 315.425831,30.5469014 L315.425831,39.1907183 C315.425831,40.3134789 314.524335,41.1360141 313.39798,41.1360141 C312.19736,41.1360141 311.372191,40.3134789 311.372191,39.1907183 L311.372191,30.5839155 C311.372191,28.451493 310.508858,26.991493 308.068422,26.991493 C305.253566,26.991493 304.314937,28.6386197 304.314937,30.8460986 L304.314937,39.1907183 C304.314937,40.3134789 303.451604,41.1360141 302.288117,41.1360141 C301.123598,41.1360141 300.260265,40.3134789 300.260265,39.1907183 L300.260265,25.5705634 C300.260265,24.4478028 301.161762,23.5502113 302.288117,23.5502113 C303.414472,23.5502113 304.314937,24.4478028 304.314937,25.5705634 C305.027676,24.4848169 306.603748,23.3250423 309.119481,23.3250423 C312.19736,23.3250423 313.736299,24.2976901 314.674928,25.7576901 C315.87658,24.1486056 317.489784,23.3250423 320.042649,23.3250423 C325.147348,23.3250423 326.536726,26.5812535 326.536726,29.8364366" id="Fill-17" fill="#4D4D4C"></path>
                <path d="M338.248962,26.7673521 C335.6208,26.7673521 334.232454,28.6386197 334.232454,32.3431127 C334.232454,36.0095634 335.6208,37.880831 338.248962,37.880831 C340.877124,37.880831 342.26547,36.0095634 342.26547,32.3431127 C342.26547,28.6386197 340.877124,26.7673521 338.248962,26.7673521 Z M338.775007,23.3250423 C343.690948,23.3250423 346.395438,26.2059718 346.395438,32.3050704 C346.395438,38.404169 343.653816,41.3231408 338.775007,41.3231408 C336.897748,41.3231408 335.24638,40.7237183 334.344883,39.7140563 L334.344883,46.336493 C334.344883,47.4592535 333.444418,48.3578732 332.318063,48.3578732 C331.191708,48.3578732 330.291243,47.4592535 330.291243,46.336493 L330.291243,25.5705634 C330.291243,24.4478028 331.191708,23.5502113 332.318063,23.5502113 C333.444418,23.5502113 334.344883,24.4478028 334.344883,25.5705634 C334.908061,24.6349296 336.67289,23.3250423 338.775007,23.3250423 L338.775007,23.3250423 Z" id="Fill-18" fill="#4D4D4C"></path>
                <path d="M359.532121,34.5876056 L359.532121,33.5399014 L355.140162,33.5399014 C353.488793,33.5399014 352.587297,34.3264507 352.587297,35.6733521 C352.587297,37.0953099 353.601222,37.9558873 355.703339,37.9558873 C357.693027,37.9558873 359.532121,36.6830141 359.532121,34.5876056 Z M352.362438,28.3394225 C351.986987,28.6005775 351.6858,28.7136761 351.236083,28.7136761 C350.260321,28.7136761 349.472285,27.9281549 349.472285,26.9544789 C349.472285,26.5432113 349.621847,26.0939014 349.960166,25.7196479 C351.011225,24.5598732 352.888483,23.3250423 356.115924,23.3250423 C360.770906,23.3250423 363.547598,25.6075775 363.547598,29.5742535 L363.547598,39.1526761 C363.547598,40.2384225 362.647133,41.1360141 361.558942,41.1360141 C360.470751,41.1360141 359.569254,40.2384225 359.569254,39.1526761 C358.55636,40.7617606 356.90396,41.3231408 354.651249,41.3231408 C350.973061,41.3231408 348.533656,39.0406056 348.533656,35.6733521 C348.533656,32.193 351.348512,30.3967887 354.614117,30.3967887 L359.532121,30.3967887 L359.532121,29.723338 C359.532121,28.0391972 358.293337,26.9174648 356.115924,26.9174648 C354.464555,26.9174648 353.301067,27.6659718 352.362438,28.3394225 L352.362438,28.3394225 Z" id="Fill-19" fill="#4D4D4C"></path>
                <path d="M382.279955,29.8364366 L382.279955,39.1907183 C382.279955,40.3134789 381.378458,41.1360141 380.252103,41.1360141 C379.051483,41.1360141 378.225283,40.3134789 378.225283,39.1907183 L378.225283,30.5839155 C378.225283,28.451493 377.361951,26.991493 374.922546,26.991493 C372.106658,26.991493 371.168029,28.6386197 371.168029,30.8460986 L371.168029,39.1907183 C371.168029,40.3134789 370.304697,41.1360141 369.141209,41.1360141 C367.97669,41.1360141 367.114389,40.3134789 367.114389,39.1907183 L367.114389,25.5705634 C367.114389,24.4478028 368.015885,23.5502113 369.141209,23.5502113 C370.267564,23.5502113 371.168029,24.4478028 371.168029,25.5705634 C371.8818,24.4848169 373.457872,23.3250423 375.972573,23.3250423 C381.078303,23.3250423 382.279955,26.5812535 382.279955,29.8364366" id="Fill-20" fill="#4D4D4C"></path>
                <path d="M389.786926,39.639 L384.005589,26.3560845 C383.931324,26.1689577 383.856027,25.9067746 383.856027,25.5705634 C383.856027,24.4478028 384.757524,23.5502113 385.883879,23.5502113 C387.010234,23.5502113 387.571348,24.3357324 387.760106,24.8220563 L391.889043,35.2240423 L396.01798,24.8220563 C396.206737,24.3357324 396.768883,23.5502113 397.895238,23.5502113 C399.020562,23.5502113 399.922058,24.4478028 399.922058,25.5705634 C399.922058,25.9067746 399.846762,26.1689577 399.772497,26.3560845 L392.789508,42.0716479 C391.138139,45.7380986 388.774031,48.3578732 385.019515,48.3578732 C383.931324,48.3578732 383.067991,47.5723521 383.067991,46.4866056 C383.067991,45.4018873 383.931324,44.6163662 385.019515,44.6163662 C387.421787,44.6163662 388.548142,42.7080845 389.786926,39.639" id="Fill-21" fill="#4D4D4C"></path>
                <path d="M207.726897,59.6451127 L207.726897,65.1694648 C207.726897,66.5451549 208.173519,67.7296056 210.317926,67.7296056 C212.462333,67.7296056 212.907924,66.5451549 212.907924,65.1694648 L212.907924,59.6451127 C212.907924,59.2646901 213.226645,58.9685775 213.608285,58.9685775 C213.969297,58.9685775 214.266357,59.2646901 214.266357,59.6451127 L214.266357,65.1694648 C214.266357,67.1795352 213.608285,69.0209859 210.317926,69.0209859 C207.048196,69.0209859 206.368463,67.1795352 206.368463,65.1694648 L206.368463,59.6451127 C206.368463,59.2646901 206.665524,58.9685775 207.048196,58.9685775 C207.409207,58.9685775 207.726897,59.2646901 207.726897,59.6451127" id="Fill-22" fill="#4D4D4C"></path>
                <path d="M224.903811,62.5867042 L224.903811,68.2375211 C224.903811,68.6189718 224.606751,68.9150845 224.224079,68.9150845 C223.842438,68.9150845 223.545378,68.6189718 223.545378,68.2375211 L223.545378,62.8622535 C223.545378,61.1904507 223.056465,60.0471268 220.996638,60.0471268 C218.895553,60.0471268 218.17353,61.3179437 218.17353,63.0103099 L218.17353,68.2375211 C218.17353,68.6189718 217.87647,68.9150845 217.494829,68.9150845 C217.112157,68.9150845 216.815097,68.6189718 216.815097,68.2375211 L216.815097,59.6451127 C216.815097,59.2646901 217.112157,58.9685775 217.494829,58.9685775 C217.87647,58.9685775 218.17353,59.2646901 218.17353,59.6451127 L218.17353,60.3226761 C218.577863,59.5186479 219.616544,58.8410845 220.996638,58.8410845 C224.266369,58.8410845 224.903811,60.7884366 224.903811,62.5867042" id="Fill-23" fill="#4D4D4C"></path>
                <path d="M228.810984,54.3541549 L228.810984,66.4382254 C228.810984,67.2854366 229.086384,67.6452958 229.659876,67.6452958 C229.999227,67.6452958 230.297319,67.9198169 230.297319,68.2796761 C230.297319,68.6405634 229.999227,68.9150845 229.659876,68.9150845 C228.237492,68.9150845 227.451519,68.0678732 227.451519,66.4382254 L227.451519,54.3541549 C227.451519,53.9953239 227.77024,53.6765915 228.131252,53.6765915 C228.512892,53.6765915 228.810984,53.9953239 228.810984,54.3541549" id="Fill-24" fill="#4D4D4C"></path>
                <path d="M239.000784,63.9202394 C239.000784,61.253169 237.876492,60.0687183 235.922906,60.0687183 C233.969319,60.0687183 232.845027,61.253169 232.845027,63.9202394 C232.845027,66.6294648 233.969319,67.7923239 235.922906,67.7923239 C237.876492,67.7923239 239.000784,66.6294648 239.000784,63.9202394 Z M240.38191,63.9202394 C240.38191,67.391338 238.683094,69.0209859 235.922906,69.0209859 C233.184378,69.0209859 231.464933,67.391338 231.464933,63.9202394 C231.464933,60.4491408 233.184378,58.8410845 235.922906,58.8410845 C238.683094,58.8410845 240.38191,60.4491408 240.38191,63.9202394 L240.38191,63.9202394 Z" id="Fill-25" fill="#4D4D4C"></path>
                <path d="M246.241638,58.8410845 C248.131274,58.8410845 249.172018,59.8353239 249.511369,60.3010845 C249.616578,60.4491408 249.658867,60.5550423 249.658867,60.7030986 C249.658867,61.0639859 249.383467,61.3179437 249.044117,61.3179437 C248.831636,61.3179437 248.683106,61.2326056 248.534575,61.0639859 C248.215854,60.7030986 247.642362,60.0687183 246.241638,60.0687183 C244.288052,60.0687183 243.248339,61.3179437 243.248339,63.9202394 C243.248339,66.5657183 244.288052,67.7923239 246.241638,67.7923239 C247.472171,67.7923239 248.215854,67.2422535 248.704766,66.8834225 C248.852265,66.7775211 248.959537,66.7353662 249.107036,66.7353662 C249.447418,66.7353662 249.723849,67.0109155 249.723849,67.3491831 C249.723849,67.5393944 249.658867,67.6874507 249.447418,67.877662 C248.980166,68.2591127 247.961083,69.0209859 246.241638,69.0209859 C243.50311,69.0209859 241.868245,67.391338 241.868245,63.9202394 C241.868245,60.4491408 243.50311,58.8410845 246.241638,58.8410845" id="Fill-26" fill="#4D4D4C"></path>
                <g id="Group-30" transform="translate(251.644944, 53.464789)">
                    <mask id="mask-2" fill="white">
                        <use xlink:href="#path-1"></use>
                    </mask>
                    <g id="Clip-28"></g>
                    <path d="M6.42342247,15.1325915 L2.66477978,10.3289859 L1.36926517,11.3664085 L1.36926517,14.7727324 C1.36926517,15.1541831 1.07220449,15.4502958 0.690564045,15.4502958 C0.307892135,15.4502958 0.0108314607,15.1541831 0.0108314607,14.7727324 L0.0108314607,0.889366197 C0.0108314607,0.507915493 0.307892135,0.211802817 0.690564045,0.211802817 C1.07220449,0.211802817 1.36926517,0.507915493 1.36926517,0.889366197 L1.36926517,9.75732394 L6.38113258,5.67240845 C6.55029213,5.52435211 6.72048315,5.50378873 6.84735281,5.50378873 C7.23002472,5.50378873 7.52708539,5.79990141 7.52708539,6.18032394 C7.52708539,6.34997183 7.46416629,6.56177465 7.25168539,6.73039437 L3.76947416,9.5033662 L7.54874607,14.3501549 C7.67561573,14.4982113 7.69624494,14.6462676 7.69624494,14.7727324 C7.69624494,15.1541831 7.39918427,15.4502958 7.01754382,15.4502958 C6.78340225,15.4502958 6.59258202,15.3443944 6.42342247,15.1325915" id="Fill-27" fill="#4D4D4C" mask="url(#mask-2)"></path>
                    <path d="M20.6905865,8.93273239 C20.6905865,7.53442254 19.7994045,6.60392958 18.1645393,6.60392958 C16.5296742,6.60392958 15.6374607,7.53442254 15.6374607,8.93273239 C15.6374607,10.3289859 16.5296742,11.2594789 18.1645393,11.2594789 C19.7994045,11.2594789 20.6905865,10.3289859 20.6905865,8.93273239 Z M19.2465416,14.879662 L17.0392157,14.879662 C15.8066202,15.0904366 15.2547888,15.7258451 15.2547888,16.5720282 C15.2547888,17.8634085 16.7421551,18.3497324 18.4193101,18.3497324 C20.0964652,18.3497324 21.5817685,17.8634085 21.5817685,16.4866901 C21.5817685,15.3228028 20.626636,14.879662 19.2465416,14.879662 Z M20.4358157,5.90477465 C20.796827,5.24880282 21.2630472,4.76247887 22.3254517,4.76247887 C22.6648022,4.76247887 22.9402022,5.037 22.9402022,5.37629577 C22.9402022,5.71559155 22.6648022,5.99011268 22.3254517,5.99011268 C21.6890404,5.99011268 21.4548989,6.3078169 21.3053371,6.64608451 C21.7942494,7.23830986 22.0706809,8.02177465 22.0706809,8.93273239 C22.0706809,11.0908592 20.626636,12.4881408 18.1645393,12.4881408 C17.2516966,12.4881408 16.4657236,12.2969014 15.8705708,11.9586338 C15.6374607,12.1478169 15.4889303,12.3812113 15.4889303,12.720507 C15.4889303,13.1646761 15.785991,13.6088451 17.0598449,13.6088451 L19.2465416,13.6088451 C21.3053371,13.6088451 22.9628944,14.4982113 22.9628944,16.4866901 C22.9628944,18.6890282 20.9659865,19.5352113 18.3976494,19.5352113 C16.2109528,19.5352113 13.8746944,18.8998028 13.8746944,16.5720282 C13.8746944,15.5983521 14.4904764,14.8364789 15.4889303,14.4344648 C14.7029573,14.180507 14.1717551,13.5461268 14.1717551,12.720507 C14.1717551,12.0850986 14.5121371,11.5771831 15.0216787,11.2389155 C14.5121371,10.603507 14.2573663,9.8416338 14.2573663,8.93273239 C14.2573663,6.77357746 15.7014112,5.37629577 18.1645393,5.37629577 C19.0340607,5.37629577 19.8416944,5.56650704 20.4358157,5.90477465 L20.4358157,5.90477465 Z" id="Fill-29" fill="#4D4D4C" mask="url(#mask-2)"></path>
                </g>
                <path d="M277.835279,60.5766338 C278.26024,59.6029577 279.321613,58.8842676 280.786288,58.8842676 C281.147299,58.8842676 281.44436,59.1803803 281.44436,59.5392113 C281.44436,59.8990704 281.147299,60.1951831 280.786288,60.1951831 C278.833733,60.1951831 277.835279,61.5492817 277.835279,63.497662 L277.835279,68.2375211 C277.835279,68.6189718 277.538218,68.9150845 277.156578,68.9150845 C276.773906,68.9150845 276.475813,68.6189718 276.475813,68.2375211 L276.475813,59.6451127 C276.475813,59.2646901 276.773906,58.9685775 277.156578,58.9685775 C277.538218,58.9685775 277.835279,59.2646901 277.835279,59.6451127 L277.835279,60.5766338" id="Fill-31" fill="#4D4D4C"></path>
                <path d="M289.831166,63.9202394 C289.831166,61.253169 288.705843,60.0687183 286.752256,60.0687183 C284.799701,60.0687183 283.674378,61.253169 283.674378,63.9202394 C283.674378,66.6294648 284.799701,67.7923239 286.752256,67.7923239 C288.705843,67.7923239 289.831166,66.6294648 289.831166,63.9202394 Z M291.212292,63.9202394 C291.212292,67.391338 289.512445,69.0209859 286.752256,69.0209859 C284.013728,69.0209859 282.294283,67.391338 282.294283,63.9202394 C282.294283,60.4491408 284.013728,58.8410845 286.752256,58.8410845 C289.512445,58.8410845 291.212292,60.4491408 291.212292,63.9202394 L291.212292,63.9202394 Z" id="Fill-32" fill="#4D4D4C"></path>
                <path d="M298.430454,61.7189296 L296.476867,68.4287606 C296.392288,68.7248732 296.114825,68.9150845 295.817764,68.9150845 C295.520703,68.9150845 295.287593,68.7454366 295.181353,68.4709155 L292.061184,59.9412254 C292.017863,59.8353239 291.996202,59.7304507 291.996202,59.6451127 C291.996202,59.2646901 292.293263,58.9685775 292.676966,58.9685775 C292.974027,58.9685775 293.207137,59.1371972 293.313378,59.4127465 L295.775474,66.417662 L297.793011,59.4127465 C297.856962,59.2009437 298.069443,58.9685775 298.430454,58.9685775 C298.790434,58.9685775 299.002915,59.2009437 299.066865,59.4127465 L301.084402,66.417662 L303.54753,59.4127465 C303.652739,59.1371972 303.886881,58.9685775 304.183942,58.9685775 C304.566613,58.9685775 304.863674,59.2646901 304.863674,59.6451127 C304.863674,59.7304507 304.842013,59.8353239 304.798692,59.9412254 L301.678524,68.4709155 C301.573315,68.7454366 301.339173,68.9150845 301.042112,68.9150845 C300.745052,68.9150845 300.467589,68.7248732 300.383009,68.4287606 L298.430454,61.7189296" id="Fill-33" fill="#4D4D4C"></path>
                <path d="M307.134951,56.9142958 C307.134951,56.5554648 307.453672,56.2377606 307.814683,56.2377606 C308.196324,56.2377606 308.493384,56.5554648 308.493384,56.9142958 L308.493384,59.1371972 L309.873479,59.1371972 C310.23449,59.1371972 310.510921,59.4127465 310.510921,59.7726056 C310.510921,60.1314366 310.23449,60.4069859 309.873479,60.4069859 L308.493384,60.4069859 L308.493384,66.2490423 C308.493384,67.1579437 309.003957,67.6452958 309.72598,67.6452958 C310.08596,67.6452958 310.384052,67.9198169 310.384052,68.2796761 C310.384052,68.6405634 310.08596,68.9150845 309.72598,68.9150845 C308.047793,68.9150845 307.134951,67.7923239 307.134951,66.2490423 L307.134951,60.4069859 L306.306688,60.4069859 C305.946708,60.4069859 305.670276,60.1314366 305.670276,59.7726056 C305.670276,59.4127465 305.946708,59.1371972 306.306688,59.1371972 L307.134951,59.1371972 L307.134951,56.9142958" id="Fill-34" fill="#4D4D4C"></path>
                <g id="Group-38" transform="translate(312.501124, 53.464789)">
                    <mask id="mask-4" fill="white">
                        <use xlink:href="#path-3"></use>
                    </mask>
                    <g id="Clip-36"></g>
                    <path d="M8.11604944,9.12191549 L8.11604944,14.7727324 C8.11604944,15.1541831 7.81898876,15.4502958 7.43631685,15.4502958 C7.0546764,15.4502958 6.75761573,15.1541831 6.75761573,14.7727324 L6.75761573,9.39746479 C6.75761573,7.72566197 6.26870337,6.58233803 4.2088764,6.58233803 C2.10779101,6.58233803 1.38576854,7.85315493 1.38576854,9.54552113 L1.38576854,14.7727324 C1.38576854,15.1541831 1.08870787,15.4502958 0.707067416,15.4502958 C0.324395506,15.4502958 0.0273348315,15.1541831 0.0273348315,14.7727324 L0.0273348315,0.889366197 C0.0273348315,0.507915493 0.324395506,0.211802817 0.707067416,0.211802817 C1.08870787,0.211802817 1.38576854,0.507915493 1.38576854,0.889366197 L1.38576854,6.85788732 C1.79010112,6.05385915 2.82878202,5.37629577 4.2088764,5.37629577 C7.4796382,5.37629577 8.11604944,7.32364789 8.11604944,9.12191549" id="Fill-35" fill="#4D4D4C" mask="url(#mask-4)"></path>
                    <path d="M19.9644382,14.3275352 C21.9169933,14.3275352 23.0216876,13.1009296 23.0216876,10.4554507 C23.0216876,7.80997183 21.8747034,6.60392958 19.9221483,6.60392958 C18.3502022,6.60392958 17.0340584,7.70407042 17.0340584,10.4554507 C17.0340584,13.1852394 18.3079124,14.3275352 19.9644382,14.3275352 Z M17.0763483,6.18032394 L17.0763483,6.85788732 C17.4806809,6.13816901 18.5410225,5.37629577 19.9644382,5.37629577 C22.7235955,5.37629577 24.4007506,6.98435211 24.4007506,10.4554507 C24.4007506,13.9265493 22.7235955,15.5561972 19.9644382,15.5561972 C18.5410225,15.5561972 17.5229708,14.7943239 17.0763483,14.0746056 L17.0763483,18.8576479 C17.0763483,19.217507 16.757627,19.5352113 16.3976472,19.5352113 C16.0356045,19.5352113 15.7179146,19.217507 15.7179146,18.8576479 L15.7179146,6.18032394 C15.7179146,5.79990141 16.0356045,5.50378873 16.3976472,5.50378873 C16.757627,5.50378873 17.0763483,5.79990141 17.0763483,6.18032394 L17.0763483,6.18032394 Z" id="Fill-37" fill="#4D4D4C" mask="url(#mask-4)"></path>
                </g>
                <path d="M345.925092,63.9202394 C345.925092,61.253169 344.799769,60.0687183 342.846182,60.0687183 C340.893627,60.0687183 339.768303,61.253169 339.768303,63.9202394 C339.768303,66.6294648 340.893627,67.7923239 342.846182,67.7923239 C344.799769,67.7923239 345.925092,66.6294648 345.925092,63.9202394 Z M347.305187,63.9202394 C347.305187,67.391338 345.606371,69.0209859 342.846182,69.0209859 C340.107654,69.0209859 338.388209,67.391338 338.388209,63.9202394 C338.388209,60.4491408 340.107654,58.8410845 342.846182,58.8410845 C345.606371,58.8410845 347.305187,60.4491408 347.305187,63.9202394 L347.305187,63.9202394 Z" id="Fill-39" fill="#4D4D4C"></path>
                <path d="M349.960166,56.9142958 C349.960166,56.5554648 350.277856,56.2377606 350.639899,56.2377606 C351.021539,56.2377606 351.3186,56.5554648 351.3186,56.9142958 L351.3186,59.1371972 L352.698694,59.1371972 C353.059706,59.1371972 353.335106,59.4127465 353.335106,59.7726056 C353.335106,60.1314366 353.059706,60.4069859 352.698694,60.4069859 L351.3186,60.4069859 L351.3186,66.2490423 C351.3186,67.1579437 351.828142,67.6452958 352.550164,67.6452958 C352.911175,67.6452958 353.208236,67.9198169 353.208236,68.2796761 C353.208236,68.6405634 352.911175,68.9150845 352.550164,68.9150845 C350.871978,68.9150845 349.960166,67.7923239 349.960166,66.2490423 L349.960166,60.4069859 L349.131903,60.4069859 C348.770892,60.4069859 348.495492,60.1314366 348.495492,59.7726056 C348.495492,59.4127465 348.770892,59.1371972 349.131903,59.1371972 L349.960166,59.1371972 L349.960166,56.9142958" id="Fill-40" fill="#4D4D4C"></path>
                <path d="M359.088593,60.0687183 C357.241247,60.0687183 356.222164,61.253169 356.095294,63.1367746 L361.806492,63.1367746 C361.806492,61.6140563 361.27529,60.0687183 359.088593,60.0687183 Z M359.088593,58.8410845 C362.485193,58.8410845 363.144297,61.5287183 363.144297,62.9681549 C363.144297,63.5819718 363.144297,64.3232817 362.295404,64.3232817 L356.095294,64.3232817 C356.095294,66.417662 357.305198,67.7717606 359.301074,67.7717606 C360.532638,67.7717606 361.254661,67.3070282 361.848782,66.861831 C361.975652,66.7775211 362.061263,66.7353662 362.230422,66.7353662 C362.570804,66.7353662 362.847236,67.0109155 362.847236,67.3491831 C362.847236,67.5815493 362.739964,67.7080141 362.613094,67.835507 C362.295404,68.1532113 361.19071,69.0209859 359.301074,69.0209859 C356.476935,69.0209859 354.7152,67.4756479 354.7152,63.9202394 C354.7152,60.6609437 356.328404,58.8410845 359.088593,58.8410845 L359.088593,58.8410845 Z" id="Fill-41" fill="#4D4D4C"></path>
                <path d="M373.33616,62.5867042 L373.33616,68.2375211 C373.33616,68.6189718 373.039099,68.9150845 372.656427,68.9150845 C372.273755,68.9150845 371.976694,68.6189718 371.976694,68.2375211 L371.976694,62.8622535 C371.976694,61.1904507 371.488813,60.0471268 369.428987,60.0471268 C367.327901,60.0471268 366.604847,61.3179437 366.604847,63.0103099 L366.604847,68.2375211 C366.604847,68.6189718 366.307787,68.9150845 365.926146,68.9150845 C365.543474,68.9150845 365.246413,68.6189718 365.246413,68.2375211 L365.246413,59.6451127 C365.246413,59.2646901 365.543474,58.9685775 365.926146,58.9685775 C366.307787,58.9685775 366.604847,59.2646901 366.604847,59.6451127 L366.604847,60.3226761 C367.00918,59.5186479 368.048892,58.8410845 369.428987,58.8410845 C372.698717,58.8410845 373.33616,60.7884366 373.33616,62.5867042" id="Fill-42" fill="#4D4D4C"></path>
                <path d="M376.414038,56.9142958 C376.414038,56.5554648 376.73276,56.2377606 377.093771,56.2377606 C377.475411,56.2377606 377.772472,56.5554648 377.772472,56.9142958 L377.772472,59.1371972 L379.152566,59.1371972 C379.513578,59.1371972 379.790009,59.4127465 379.790009,59.7726056 C379.790009,60.1314366 379.513578,60.4069859 379.152566,60.4069859 L377.772472,60.4069859 L377.772472,66.2490423 C377.772472,67.1579437 378.283045,67.6452958 379.005067,67.6452958 C379.365047,67.6452958 379.663139,67.9198169 379.663139,68.2796761 C379.663139,68.6405634 379.365047,68.9150845 379.005067,68.9150845 C377.326881,68.9150845 376.414038,67.7923239 376.414038,66.2490423 L376.414038,60.4069859 L375.585775,60.4069859 C375.225796,60.4069859 374.949364,60.1314366 374.949364,59.7726056 C374.949364,59.4127465 375.225796,59.1371972 375.585775,59.1371972 L376.414038,59.1371972 L376.414038,56.9142958" id="Fill-43" fill="#4D4D4C"></path>
                <path d="M383.144319,68.2375211 C383.144319,68.6189718 382.847258,68.9150845 382.464587,68.9150845 C382.082946,68.9150845 381.785885,68.6189718 381.785885,68.2375211 L381.785885,59.6451127 C381.785885,59.2646901 382.082946,58.9685775 382.464587,58.9685775 C382.847258,58.9685775 383.144319,59.2646901 383.144319,59.6451127 L383.144319,68.2375211 Z M381.659016,56.1750423 C381.659016,55.5601972 381.956076,55.327831 382.464587,55.327831 C382.974128,55.327831 383.27222,55.5601972 383.27222,56.1750423 C383.27222,56.6819296 382.974128,56.9790704 382.464587,56.9790704 C381.956076,56.9790704 381.659016,56.6819296 381.659016,56.1750423 L381.659016,56.1750423 Z" id="Fill-44" fill="#4D4D4C"></path>
                <path d="M391.955056,65.0841268 L391.955056,64.1957887 L388.961757,64.1957887 C387.581663,64.1957887 386.62653,64.7664225 386.62653,65.9950845 C386.62653,67.0952254 387.391874,67.7923239 389.047369,67.7923239 C390.533703,67.7923239 391.955056,66.8834225 391.955056,65.0841268 Z M386.987542,61.1904507 C386.775061,61.4228169 386.62653,61.4865634 386.43571,61.4865634 C386.09636,61.4865634 385.819928,61.2110141 385.819928,60.8727465 C385.819928,60.7246901 385.862218,60.6187887 385.926169,60.5128873 C386.52029,59.5813662 387.667274,58.8410845 389.45067,58.8410845 C391.912766,58.8410845 393.272231,60.2805211 393.272231,62.4396761 L393.272231,68.2591127 C393.272231,68.6189718 392.975171,68.9150845 392.61416,68.9150845 C392.253148,68.9150845 391.955056,68.6189718 391.955056,68.2591127 L391.955056,67.4962113 C391.424885,68.4914789 390.193321,69.0209859 388.919467,69.0209859 C386.66882,69.0209859 385.247467,67.9414085 385.247467,65.9950845 C385.247467,64.1320423 386.66882,63.0103099 388.961757,63.0103099 L391.955056,63.0103099 L391.955056,62.4396761 C391.955056,60.9992113 391.000955,60.1108732 389.45067,60.1108732 C388.325346,60.1108732 387.645613,60.4491408 386.987542,61.1904507 L386.987542,61.1904507 Z" id="Fill-45" fill="#4D4D4C"></path>
                <path d="M397.178373,54.3541549 L397.178373,66.4382254 C397.178373,67.2854366 397.454804,67.6452958 398.027265,67.6452958 C398.366616,67.6452958 398.664708,67.9198169 398.664708,68.2796761 C398.664708,68.6405634 398.366616,68.9150845 398.027265,68.9150845 C396.604881,68.9150845 395.819939,68.0678732 395.819939,66.4382254 L395.819939,54.3541549 C395.819939,53.9953239 396.137629,53.6765915 396.499672,53.6765915 C396.881312,53.6765915 397.178373,53.9953239 397.178373,54.3541549" id="Fill-46" fill="#4D4D4C"></path>
                <path d="M445.175333,61.672662 L428.1552,61.672662 C427.409454,61.672662 426.805018,61.0691268 426.805018,60.3257606 C426.805018,59.5823944 427.409454,58.9788592 428.1552,58.9788592 L445.175333,58.9788592 C445.921079,58.9788592 446.525515,59.5823944 446.525515,60.3257606 C446.525515,61.0691268 445.921079,61.672662 445.175333,61.672662" id="Fill-47" fill="#4D4D4C"></path>
                <path d="M445.175333,65.3072394 L428.1552,65.3072394 C427.409454,65.3072394 426.805018,64.7047324 426.805018,63.9613662 C426.805018,63.218 427.409454,62.6144648 428.1552,62.6144648 L445.175333,62.6144648 C445.921079,62.6144648 446.525515,63.218 446.525515,63.9613662 C446.525515,64.7047324 445.921079,65.3072394 445.175333,65.3072394" id="Fill-48" fill="#4D4D4C"></path>
                <path d="M441.528088,68.9428451 L431.802445,68.9428451 C431.056699,68.9428451 430.452263,68.340338 430.452263,67.5969718 C430.452263,66.8525775 431.056699,66.2500704 431.802445,66.2500704 L441.528088,66.2500704 C442.273834,66.2500704 442.87827,66.8525775 442.87827,67.5969718 C442.87827,68.340338 442.273834,68.9428451 441.528088,68.9428451" id="Fill-49" fill="#4D4D4C"></path>
                <path d="M446.50076,31.1226761 C449.148519,28.9470704 450.354297,25.5417746 450.160382,21.8064366 C446.519326,20.9026761 442.935,21.4332113 440.28724,23.6088169 C437.639481,25.7844225 436.433703,29.1897183 436.627618,32.9250563 C440.268674,33.8277887 443.851969,33.2982817 446.50076,31.1226761" id="Fill-50" fill="#E0542F"></path>
                <path d="M426.79264,31.1237042 C424.143849,28.9480986 422.938072,25.5428028 423.131987,21.8064366 C426.773043,20.9037042 430.357369,21.4342394 433.005128,23.6098451 C435.652888,25.7854507 436.858665,29.1907465 436.664751,32.9260845 C433.023694,33.8288169 429.4404,33.2993099 426.79264,31.1237042" id="Fill-51" fill="#E0542F"></path>
                <path d="M435.290845,31.1082817 C435.274342,31.3499014 435.264027,31.5935775 435.25887,31.8393099 C434.609049,31.9452113 433.967481,31.9997042 433.342416,31.9997042 C431.144373,31.9997042 429.176346,31.3375634 427.650816,30.0842254 C425.650813,28.4401831 424.538899,25.9170563 424.465665,22.903493 C425.14024,22.7903944 425.806564,22.7328169 426.455353,22.7328169 C428.653396,22.7328169 430.621422,23.3949577 432.145921,24.6482958 C433.985016,26.1586761 435.070112,28.4144789 435.290845,31.1082817 Z M438.001524,31.1082817 C438.222256,28.4134507 439.308384,26.1586761 441.146447,24.6472676 C442.671978,23.3939296 444.640004,22.7317887 446.838047,22.7317887 C447.486836,22.7317887 448.152128,22.7893662 448.826703,22.9024648 C448.754501,25.9160282 447.641555,28.4391549 445.641553,30.0831972 C444.116022,31.3365352 442.149027,31.9986761 439.950984,31.9986761 C439.950984,31.9986761 439.950984,31.9986761 439.949953,31.9986761 C439.324888,31.9986761 438.683319,31.9441831 438.033499,31.8382817 C438.028342,31.5925493 438.018027,31.3488732 438.001524,31.1082817 Z M450.10984,39.5341268 C447.201121,43.8493521 444.198539,48.3033803 443.856094,55.3442817 L438.015964,55.3442817 L438.015964,34.5577887 C438.667847,34.6462113 439.314573,34.6914507 439.949953,34.6914507 L439.950984,34.6914507 C442.782344,34.6914507 445.344492,33.8164789 447.359966,32.1611268 C450.260434,29.777831 451.734391,26.0753944 451.509533,21.7365211 C451.478589,21.1442958 451.063942,20.6425493 450.486324,20.4996338 C449.255791,20.1942676 448.027321,20.0390141 446.838047,20.0390141 C444.004625,20.0390141 441.443508,20.9139859 439.429065,22.569338 C438.265578,23.524507 437.333137,24.692507 436.646184,26.0280986 C435.959231,24.692507 435.026791,23.5255352 433.864335,22.5703662 C431.849892,20.9150141 429.287744,20.0400423 426.455353,20.0400423 C425.265047,20.0400423 424.037609,20.1952958 422.806045,20.500662 C422.229458,20.6435775 421.81378,21.1453239 421.782836,21.7375493 C421.557978,26.0764225 423.031935,29.7788592 425.933434,32.1621549 C427.947876,33.817507 430.510025,34.6924789 433.342416,34.6924789 C433.990173,34.6924789 434.649276,34.6451831 435.314569,34.5536761 L435.314569,55.3442817 L429.474438,55.3442817 C429.131993,48.3033803 426.129411,43.8493521 423.220692,39.5341268 C420.201607,35.0543944 417.349618,30.8234789 417.349618,23.7023803 C417.349618,13.4772394 423.983973,3.1256338 436.664751,3.1256338 C449.345528,3.1256338 455.980915,13.4772394 455.980915,23.7023803 C455.980915,30.8234789 453.128926,35.0543944 450.10984,39.5341268 Z M452.872092,7.53750704 C448.792665,2.8901831 443.188739,0.432859155 436.664751,0.432859155 C430.141793,0.432859155 424.537867,2.8901831 420.45844,7.53750704 C416.711144,11.8064648 414.648222,17.5467324 414.648222,23.7023803 C414.648222,31.6439577 417.86638,36.4177465 420.978297,41.0352535 C423.97469,45.4810563 426.805018,49.6800986 426.805018,56.6901549 C426.805018,57.0479577 426.94736,57.390338 427.200067,57.6422394 C427.453807,57.895169 427.797283,58.0370563 428.1552,58.0370563 L445.175333,58.0370563 C445.921079,58.0370563 446.525515,57.4335211 446.525515,56.6901549 C446.525515,49.6800986 449.355843,45.4810563 452.352236,41.0352535 C455.464153,36.4177465 458.68231,31.6439577 458.68231,23.7023803 C458.68231,17.5467324 456.618357,11.8064648 452.872092,7.53750704 L452.872092,7.53750704 Z" id="Fill-52" fill="#4D4D4C"></path>
            </g>
        </g>
    </g>
</svg>