<?xml version="1.0" encoding="UTF-8"?>
<svg width="48px" height="48px" viewBox="0 0 48 48" version="1.1" xmlns="http://www.w3.org/2000/svg" xmlns:xlink="http://www.w3.org/1999/xlink">
    <!-- Generator: Sketch 42 (36781) - http://www.bohemiancoding.com/sketch -->
    <title>people-orange</title>
    <desc>Created with Sketch.</desc>
    <defs>
        <polygon id="path-1" points="11.8531327 0.132075041 11.8531327 12.0443225 0.0953126242 12.0443225 0.0953126242 0.132075041"></polygon>
    </defs>
    <g id="Page-1" stroke="none" stroke-width="1" fill="none" fill-rule="evenodd">
        <g id="people-orange">
            <g id="Illustrator" transform="translate(0.000000, 2.000000)">
                <path d="M35.254812,15.3205521 C35.2685748,13.1236507 34.1397196,10.379538 31.5865678,9.20114366 C29.8937437,8.42029859 27.2112216,8.15041127 23.5594928,10.6683268 C19.9074581,8.15010141 17.224936,8.41998873 15.5327236,9.20114366 C12.9795718,10.379538 11.8504107,13.1236507 11.8644793,15.3205521 C11.8644793,15.3233408 11.8647852,15.3261296 11.8647852,15.3289183 C11.8647852,15.3304676 11.8641735,15.331707 11.8644793,15.3332563 C11.8730429,16.7000451 12.4538329,18.2056507 13.6215298,19.8925239 C15.7471174,23.0131155 19.1563152,25.7609465 20.0793401,26.4757915 C20.3567369,26.6905239 20.6830681,26.7943268 21.0069526,26.7943268 C21.4666301,26.7943268 21.9214141,26.5879606 22.2226664,26.1891718 C22.73556,25.5099606 22.6077189,24.5407211 21.9373177,24.0207775 C21.9364002,24.0198479 21.9351769,24.0192282 21.9342593,24.0182986 L21.9373177,24.0142704 C19.0330617,21.7622141 14.9369474,17.5695099 14.9228787,15.3007211 C14.9155386,14.1418479 15.4999987,12.621369 16.8004301,12.0211718 C18.4470723,11.2607775 20.8408816,12.1692845 23.5393073,14.5784394 L23.5594928,14.5552 L23.5796782,14.5784394 C26.2774923,12.1692845 28.6706898,11.2601577 30.3185554,12.0211718 C31.6192927,12.621369 32.2037528,14.1418479 32.1964126,15.3004113 C32.1906017,16.2104676 32.1961068,17.3581859 32.2906113,18.1628901 L35.3272961,17.7969465 C35.243496,17.0814817 35.2520595,15.7562141 35.254812,15.3205521" id="Fill-1" fill="#FD4E22"></path>
                <path d="M28.7939739,5.95744507 C28.7939739,8.81961408 26.5038444,11.1401493 23.6784951,11.1401493 C20.8534516,11.1401493 18.5630163,8.81961408 18.5630163,5.95744507 C18.5630163,3.09527606 20.8534516,0.774740845 23.6784951,0.774740845 C26.5038444,0.774740845 28.7939739,3.09527606 28.7939739,5.95744507" id="Fill-3" fill="#FD4E22"></path>
                <path d="M28.7939739,5.95744507 C28.7939739,8.81961408 26.5038444,11.1401493 23.6784951,11.1401493 C20.8534516,11.1401493 18.5630163,8.81961408 18.5630163,5.95744507 C18.5630163,3.09527606 20.8534516,0.774740845 23.6784951,0.774740845 C26.5038444,0.774740845 28.7939739,3.09527606 28.7939739,5.95744507 Z" id="Stroke-5" stroke="#000000"></path>
                <path d="M23.6785868,1.54938873 C21.2795784,1.54938873 19.3277079,3.52690986 19.3277079,5.95744507 C19.3277079,8.38798028 21.2795784,10.3655014 23.6785868,10.3655014 C26.0775953,10.3655014 28.0294658,8.38798028 28.0294658,5.95744507 C28.0294658,3.52690986 26.0775953,1.54938873 23.6785868,1.54938873 M23.6785868,11.9147972 C20.4363776,11.9147972 17.7985082,9.24226197 17.7985082,5.95744507 C17.7985082,2.67262817 20.4363776,9.29577465e-05 23.6785868,9.29577465e-05 C26.920796,9.29577465e-05 29.5586655,2.67262817 29.5586655,5.95744507 C29.5586655,9.24226197 26.920796,11.9147972 23.6785868,11.9147972" id="Fill-7" fill="#FFFFFF"></path>
                <path d="M8.09429866,22.3466394 C6.20940711,23.4330056 4.42850115,25.7953718 4.6976403,28.6246958 C4.87655666,30.5005831 5.98706148,32.9893718 9.96542741,34.9343577 C9.63879035,39.397569 11.2108076,41.6164704 12.7247153,42.7105831 C15.0084222,44.3618225 17.9184892,43.9800761 19.7896179,42.8695408 C19.7917588,42.8683014 19.7942055,42.8664423 19.7963464,42.8652028 C19.7975698,42.8642732 19.799099,42.8639634 19.8003223,42.8633437 C20.9643491,42.1723577 21.9610815,40.9096817 22.8189625,39.0421606 C24.4237047,35.6166676 25.0678036,31.2513718 25.2176652,30.0838225 C25.2623178,29.7333718 25.1876929,29.3950056 25.0259035,29.1111746 C24.7959119,28.7074282 24.3922032,28.4115127 23.9010242,28.3467521 C23.0636345,28.2364423 22.2993405,28.833231 22.1898498,29.6813155 C22.1895439,29.6825549 22.1895439,29.6841042 22.1892381,29.6853437 L22.1843447,29.6847239 C21.7112103,33.3587239 20.1755879,39.0489775 18.2432912,40.1960761 C17.2566516,40.7817099 15.6644488,41.0292873 14.5013395,40.1883296 C13.0278027,39.1236535 12.6075786,36.5691746 13.317739,32.9968085 L13.2877667,32.9909211 L13.2975535,32.9614845 C9.88927326,31.798893 7.91568813,30.1535408 7.74197105,28.327231 C7.60495476,26.8860761 8.61239152,25.6128648 9.60637132,25.0402451 C10.3868748,24.5903296 11.3652568,24.0118225 12.0062973,23.5262732 L10.1746219,21.0449211 C9.60514796,21.4762451 8.46803506,22.1312873 8.09429866,22.3466394" id="Fill-9" fill="#FD4E22"></path>
                <path d="M3.32120765,32.6969577 C5.76792716,31.2657183 8.8963639,32.1150423 10.3090386,34.5939155 C11.7217133,37.0727887 10.883406,40.242338 8.43668647,41.6735775 C5.98996696,43.1048169 2.86153022,42.255493 1.44885554,39.7766197 C0.0361808648,37.2977465 0.874488138,34.1281972 3.32120765,32.6969577" id="Fill-11" fill="#FD4E22"></path>
                <path d="M3.32120765,32.6969577 C5.76792716,31.2657183 8.8963639,32.1150423 10.3090386,34.5939155 C11.7217133,37.0727887 10.883406,40.242338 8.43668647,41.6735775 C5.98996696,43.1048169 2.86153022,42.255493 1.44885554,39.7766197 C0.0361808648,37.2977465 0.874488138,34.1281972 3.32120765,32.6969577 Z" id="Stroke-13" stroke="#133354"></path>
                <g id="Group-17" transform="translate(0.000000, 31.123183)" fill="#FFFFFF">
                    <path d="M2.11090726,8.26608169 C3.3104115,10.3709549 5.97672409,11.0947859 8.0542948,9.87951831 C10.1321713,8.6642507 10.8463076,5.96289859 9.64680336,3.85802535 C8.44729912,1.75315211 5.78129237,1.02932113 3.70341582,2.24458873 C1.62584512,3.45985634 0.911403018,6.16120845 2.11090726,8.26608169 M10.9710903,3.08337746 C12.5923478,5.92819437 11.6268111,9.57895493 8.81889464,11.2212085 C6.01097816,12.8637718 2.407572,11.8855465 0.786620323,9.04072958 C-0.834637194,6.19591268 0.131205334,2.54546197 2.93881597,0.902898592 C5.74673245,-0.73935493 9.35013862,0.238560563 10.9710903,3.08337746" id="Fill-15"></path>
                </g>
                <path d="M27.6600112,42.0672225 C29.5308341,43.1777577 32.4409011,43.5591944 34.7249138,41.9082648 C36.2388215,40.8135324 37.8108387,38.594631 37.4845075,34.1317296 C41.4628735,32.1867437 42.5733783,29.6976451 42.751683,27.8223775 C43.0211279,24.9930535 41.2399161,22.6303775 39.3553304,21.5443211 C39.3528837,21.5427718 39.350437,21.5418423 39.3479903,21.5406028 C39.3467669,21.5396732 39.3455436,21.5387437 39.3443202,21.5378141 C38.1717299,20.8620113 36.5942075,20.6190817 34.5686296,20.8000394 C30.8382998,21.104631 26.7850031,22.7220958 25.7121166,23.1744901 C25.3900671,23.3105183 25.1383609,23.5450817 24.9762657,23.8292225 C24.7462741,24.2326592 24.6951988,24.734631 24.8857371,25.1981803 C25.2099274,25.9880113 26.1020625,26.360462 26.8819544,26.0323211 C26.8831777,26.0317014 26.8844011,26.0313915 26.8856244,26.0307718 L26.8874595,26.0354197 C30.2645441,24.6134761 35.8965866,23.1159268 37.8429519,24.2376169 C38.8372376,24.8105465 39.8446743,26.0837577 39.7073522,27.5249127 C39.533941,29.3499831 37.5609675,30.9959549 34.1520756,32.1591662 L34.1618624,32.188293 L34.1318901,32.1944901 C34.8423563,35.7662366 34.4227439,38.3204056 32.9482896,39.3860113 C31.7851803,40.226969 30.1929775,39.9793915 29.2063379,39.3937577 C28.4316453,38.9336169 27.4477583,38.3647155 26.712519,38.0449408 L25.506898,40.8928563 C26.1604779,41.1769972 27.2890273,41.8469127 27.6600112,42.0672225" id="Fill-18" fill="#FD4E22"></path>
                <path d="M38.8939403,41.0799803 C36.4472208,39.6487408 35.6089135,36.4791915 37.0215882,34.0003183 C38.4342629,31.5214451 41.5626996,30.6721211 44.0094191,32.1033606 C46.4561386,33.5346 47.2944459,36.7041493 45.8817712,39.1830225 C44.4690966,41.6618958 41.3406598,42.5112197 38.8939403,41.0799803" id="Fill-20" fill="#FD4E22"></path>
                <path d="M38.8939403,41.0799803 C36.4472208,39.6487408 35.6089135,36.4791915 37.0215882,34.0003183 C38.4342629,31.5214451 41.5626996,30.6721211 44.0094191,32.1033606 C46.4561386,33.5346 47.2944459,36.7041493 45.8817712,39.1830225 C44.4690966,41.6618958 41.3406598,42.5112197 38.8939403,41.0799803 Z" id="Stroke-22" stroke="#133354"></path>
                <g id="Group-26" transform="translate(35.477433, 30.503465)">
                    <mask id="mask-2" fill="white">
                        <use xlink:href="#path-1"></use>
                    </mask>
                    <g id="Clip-25"></g>
                    <path d="M9.74219483,8.29229577 C10.9416991,6.18742254 10.227257,3.48607042 8.14968627,2.27080282 C6.07211557,1.05553521 3.40580298,1.7793662 2.20629874,3.88423944 C1.0067945,5.98911268 1.72123659,8.69046479 3.7988073,9.90573239 C5.87637801,11.121 8.54269059,10.397169 9.74219483,8.29229577 M0.8820118,3.10959155 C2.50296348,0.264774648 6.10636964,-0.713450704 8.91428612,0.929112676 C11.7222026,2.5713662 12.6877393,6.22212676 11.0664818,9.06694366 C9.44553009,11.9117606 5.84212393,12.8896761 3.03420745,11.2474225 C0.226290971,9.60485915 -0.739245717,5.95440845 0.8820118,3.10959155" id="Fill-24" fill="#FFFFFF" mask="url(#mask-2)"></path>
                </g>
            </g>
        </g>
    </g>
</svg>