<svg width="48" height="33" viewBox="0 0 48 33" xmlns="http://www.w3.org/2000/svg"><title>Insights</title><path d="M.327 2.12v16.524c0 .615.422 1.2.964 1.344.966.26 1.794.94 2.713 1.685-.18.292-.362.6-.527.907-.317.6-.12 1.442.407 1.814l9.386 6.755c1.79 1.522 4.61 1.295 6.236.307 2.908 1.668 6.086 1.83 8.888-.146l9.928-6.964c2.547-1.944 5.605-3.288 8.015-4.455.453-.21.754-.71.754-1.246V2.12c0-1.23-1.054-1.65-1.927-1.165-1.928 1.053-3.42 2.316-5.348 3.37-2.547-.81-4.942-1.896-7.05-2.544-1.267-.388-2.758-.566-3.933-.566-1.808-.032-3.465.63-5.002 2.057-1.326-1.23-3.088-1.975-4.745-2.056-3.375-.162-6.946 1.668-11.48 3.11-1.81-1.037-3.48-2.187-5.334-3.37-.843-.55-1.943.26-1.943 1.167zm21.68 3.095l-5.575 6.026c-.392.422-.482 1.12-.226 1.62.723 1.49 1.597 2.884 2.998 3.662 2.004.713 3.812.356 5.258-.438l3.736-2.948 8 9.41-9.43 6.643c-1.66 1.003-3.707.987-5.17.242.544-.76.95-1.652 1.206-2.592.15-.55-.045-1.198-.48-1.523L12.44 17.77c-1.582-1.28-3.842-.293-5.167.565-.528.357-1.055.78-1.552 1.264-.767-.633-1.67-1.394-2.847-1.913V4.567c1.28.778 2.637 1.782 4.083 2.463.39.178.542.21.95.08 4.293-1.263 7.652-2.786 10.032-3.093 1.477-.227 2.954.275 4.07 1.198zm9.897-.826c2.05.68 4.67 1.813 7.623 2.72.467.146.89-.032 1.265-.243 1.31-.68 2.727-1.652 3.75-2.316v13.203c-2.033.94-4.187 1.863-6.206 3.24l-8.646-10.19c-.77-.907-1.462-1.07-2.215-.47l-4.354 3.42h-.013c-1.372.76-2.08.695-2.712.34-.482-.277-.95-.908-1.432-1.686l6.524-6.998c2.003-1.782 3.96-1.572 6.417-1.02zM10.918 19.97l9.054 6.935c-.407.858-.964 1.652-1.672 2.122-.92.615-1.898.778-2.968.29l-8.918-6.413c.588-.827 1.4-1.7 2.184-2.22.738-.453 1.49-.76 2.32-.713z" fill="#F35828" fill-rule="evenodd"/></svg>