<?xml version="1.0" encoding="UTF-8"?>
<svg width="16px" height="11px" viewBox="0 0 16 11" version="1.1" xmlns="http://www.w3.org/2000/svg" xmlns:xlink="http://www.w3.org/1999/xlink">
    <!-- Generator: Sketch 42 (36781) - http://www.bohemiancoding.com/sketch -->
    <title>marks</title>
    <desc>Created with Sketch.</desc>
    <defs></defs>
    <g id="Page-1" stroke="none" stroke-width="1" fill="none" fill-rule="evenodd">
        <g id="Main" transform="translate(-592.000000, -5467.000000)" fill="#1B8BF9">
            <g id="Testimonials-6" transform="translate(0.000000, 5420.000000)">
                <g id="Testimonials" transform="translate(356.000000, 47.000000)">
                    <path d="M239.5107,4.0029 C241.4404,4.0029 243.0048,5.5708 243.0048,7.5058 C243.0048,9.4394 241.4403,11.0078 239.5107,11.0078 C237.58,11.0078 236.0156,9.4394 236.0156,7.5058 L236,7.0049 C236,3.1362 239.1289,0 242.9893,0 L242.9893,2.0015 C241.6553,2.0015 240.4014,2.522 239.459,3.4668 C239.2774,3.6489 239.1123,3.8428 238.9619,4.0459 C239.1416,4.0176 239.3232,4.0029 239.5107,4.0029 L239.5107,4.0029 Z M248.4961,4.0029 C250.4258,4.0029 251.9902,5.5708 251.9902,7.5058 C251.9902,9.4394 250.4257,11.0078 248.4961,11.0078 C246.5654,11.0078 245.001,9.4394 245.001,7.5058 L244.9854,7.0048 C244.9854,3.1362 248.1143,0 251.9746,0 L251.9746,2.0015 C250.6416,2.0015 249.3877,2.522 248.4443,3.4668 C248.2627,3.6489 248.0976,3.8428 247.9482,4.0459 C248.127,4.0176 248.3096,4.0029 248.4961,4.0029 L248.4961,4.0029 Z" id="marks"></path>
                </g>
            </g>
        </g>
    </g>
</svg>