<svg width="59" height="56" viewBox="0 0 59 56" xmlns="http://www.w3.org/2000/svg"><title>Mindset</title><g transform="translate(1.02 .836)" fill="none" fill-rule="evenodd"><g stroke="#F35828" stroke-width="2"><path d="M37.235 3.988c-7.21-.206-10.867 3.26-12.33 5.932-.885 1.62-.968 3.396-.968 5.214 0 1.592-.266 3.14-.595 4.68-.216 1.02-.99 2.05-.804 3.09.376.237.762.554 1.204.705.38.132 1.123.023 1.437.242.698.483.025 1.292.432 1.82.212.274 1.18.38 1.504.612-.208.427-1.212.43-1.04 1.076.07.256.61.32.76.576.153.26.1.64.106.925.03 1.34-.995 2.828 1.13 3.188 1.742.292 3.334-.554 4.463 1.024.71.993 1.028 2.55.953 3.744M46.1 21.577c-2.12 2.714-2.707 5.382-2.707 8.037 0 1.946.222 3.58.178 5.277"/><path d="M37.235 3.988c6.2 0 11.224 4.882 11.224 10.905 0 2.687-1.003 5.148-2.66 7.048"/></g><path d="M39.325 16.91c.05.36.02.7-.083 1.014-.107.315-.277.595-.516.842-.238.247-.542.455-.91.63-.37.174-.795.302-1.27.384l.046 1.492c0 .028-.005.055-.015.082-.008.026-.027.05-.06.07-.03.02-.076.04-.134.054-.058.016-.136.03-.23.043-.11.014-.2.02-.264.017-.07-.004-.122-.012-.164-.023-.04-.01-.067-.03-.082-.06-.017-.027-.023-.06-.017-.097l-.037-1.487c-.234 0-.45-.007-.652-.027-.203-.018-.384-.042-.543-.073-.16-.032-.294-.067-.41-.11-.116-.04-.202-.08-.26-.122-.057-.042-.1-.1-.128-.174-.032-.074-.055-.18-.074-.315-.015-.102-.02-.184-.02-.252 0-.066.007-.12.02-.17.014-.044.034-.078.06-.096.032-.02.07-.032.11-.037.064-.008.157.014.28.066.125.052.287.105.486.162.2.055.44.1.722.135s.613.03.996-.02c.68-.082 1.178-.273 1.494-.57.318-.296.445-.662.385-1.097-.04-.268-.13-.482-.285-.645-.154-.164-.343-.295-.575-.398-.233-.103-.49-.184-.773-.243l-.86-.18c-.294-.06-.583-.135-.87-.224-.287-.09-.55-.21-.783-.366-.234-.155-.437-.355-.6-.6-.164-.243-.273-.556-.325-.935-.04-.305-.026-.595.047-.87.075-.277.208-.527.4-.75.194-.224.448-.42.767-.586.315-.165.694-.29 1.135-.37l-.045-1.39c0-.028.005-.056.015-.082.01-.027.027-.05.06-.073.03-.025.074-.042.13-.055.057-.014.135-.027.233-.04.108-.013.194-.02.266-.02.07 0 .125.01.163.026.037.016.065.037.078.062.014.027.024.058.027.094l.027 1.378c.144-.004.297 0 .458.016.16.014.313.035.453.062.142.026.273.06.388.097.12.038.2.073.244.104.047.03.08.06.1.09.023.03.04.065.055.105.016.038.028.084.045.138.014.053.027.115.035.182.014.086.02.16.022.225 0 .063-.004.116-.014.153-.01.038-.026.067-.047.088-.022.02-.048.034-.08.04-.054.006-.142-.015-.265-.06-.123-.043-.28-.09-.46-.135-.184-.046-.393-.084-.632-.115-.236-.03-.498-.028-.78.006-.32.042-.59.104-.81.19-.22.088-.39.193-.516.317-.127.123-.21.265-.258.42-.044.158-.054.326-.03.502.04.27.136.49.29.653.16.167.35.3.582.4.23.1.488.178.773.236.283.056.577.116.875.177.296.062.59.135.878.22.29.084.553.204.79.36.237.153.44.353.607.597.166.242.278.554.33.935z" fill="#F35828"/><ellipse stroke="#F35828" stroke-width="2" cx="35.56" cy="20.325" rx="21.287" ry="20.156"/><path d="M14.43 34.22L1.336 46.618c-1.783 1.687-1.783 4.424 0 6.11 1.783 1.69 4.673 1.69 6.456 0l13.09-12.393-6.454-6.113z" stroke="#F35828" stroke-width="2"/></g></svg>