<svg width="63" height="56" viewBox="0 0 63 56" xmlns="http://www.w3.org/2000/svg" xmlns:xlink="http://www.w3.org/1999/xlink"><title>Team</title><defs><path id="a" d="M16.5.4v35.5H.2V.4h16.3z"/><path id="c" d="M45.047 40H.56V.9h44.487z"/></defs><g fill="none" fill-rule="evenodd"><path d="M30.8 4.747c1 0 2 .4 2.7 1.2.7.7 1.1 1.7 1.1 2.7 0 1-.5 2-1.2 2.7-.8.7-1.7 1.1-2.6 1.1-2 0-3.9-1.9-3.8-3.9 0-2.1 1.8-3.8 3.8-3.8m-.1 10.2c1.7 0 3.2-.7 4.4-1.8 1.2-1.2 2-2.8 2-4.5 0-1.7-.6-3.2-1.8-4.5-1.2-1.2-2.8-1.9-4.4-1.9-3.5 0-6.3 2.8-6.4 6.2-.1 3.4 2.8 6.4 6.2 6.5" fill="#FF4900"/><path d="M14.1 27.347c-.3 0-.5.2-.5.5 0 2-.1 6.5-.2 10.4-.1 3.7-.2 7-.2 7.3 0 .4-.2.8-.5 1.1-.3.3-.7.5-1.1.5-.8 0-1.5-.6-1.6-1.4-.1-.9-.3-2.9-.5-5.1l-.1-.9c-.2-2.2-.4-4.5-.6-5.5v-.2c-.2-1.1-.6-1.4-1-1.4s-.8.2-1 1.4v.2c-.2 1-.4 3.4-.6 5.6l-.1.8c-.2 2.2-.4 4.3-.5 5.2-.1.8-.8 1.4-1.6 1.4-.4 0-.8-.2-1.1-.5-.3-.3-.5-.7-.5-1.1v-1.6c0-.3-.4-16.6-.4-17.3v-.2l-.1-.2c-.3-.3-.6-.6-.8-1-.2-.5-.3-1-.3-1.5v-7.3c0-.7 0-1.3.5-1.8.1-.1.2-.2.4-.3.6-.3 1.4-.6 2.4-.8l3.7 3.6 3.7-3.7c1 .2 1.9.5 2.4.8.2.1.3.2.4.3.4.4.5.9.5 1.4 0 .3.2.5.5.5s.5-.2.5-.5c0-.7-.1-1.4-.7-2.1-.2-.2-.4-.3-.6-.5-.7-.4-1.8-.7-3-1H11.2s-.1 0-.1.1l-3.2 3.2-3.2-3.2s-.1 0-.1-.1H4.3c-1.2.2-2.3.6-3 1-.3.2-.5.3-.6.5-.7.8-.7 1.7-.7 2.5v7.4c0 .6.1 1.3.4 1.9.2.5.5.9.8 1.2 0 2.1.4 16.9.4 17v1.6c0 .7.3 1.3.7 1.8.5.5 1.1.8 1.8.8 1.3 0 2.4-.9 2.6-2.2.1-.9.3-3 .6-5.2l.1-.8c.2-2.1.4-4.5.6-5.5v-.1.1c.2 1 .4 3.3.6 5.4l.1.9c.2 2.2.4 4.2.5 5.2.2 1.3 1.3 2.2 2.6 2.2.7 0 1.3-.3 1.8-.8s.8-1.1.8-1.8c0-.3.1-3.7.2-7.2.1-3.9.2-8.3.2-10.4-.3-.4-.5-.6-.7-.6M5.3 2.647c.7-.7 1.7-1.1 2.6-1.1 2 0 3.7 1.7 3.8 3.7 0 2-1.7 3.8-3.7 3.8-1 0-1.9-.4-2.6-1.1-.7-.7-1.2-1.7-1.2-2.6 0-1 .4-1.9 1.1-2.7m2.6 7.4c2.6 0 4.8-2.3 4.8-4.8 0-2.6-2.2-4.7-4.8-4.7-1.2 0-2.4.5-3.3 1.4-.9 1-1.4 2.1-1.4 3.4 0 1.2.6 2.4 1.5 3.3.9.9 2.1 1.4 3.2 1.4" fill="#FF3000"/><g transform="translate(46 12.047)"><mask id="b" fill="#fff"><use xlink:href="#a"/></mask><path d="M16.2 6.7V4.4c0-.7 0-1.7-.7-2.5-.2-.2-.4-.3-.7-.5-.7-.4-1.7-.7-3-1H11.5s-.1 0-.1.1L8.2 3.7 5 .6s-.1 0-.1-.1H4.6c-1.3.2-2.3.6-3.1 1-.2.2-.4.3-.6.5-.6.7-.7 1.4-.7 2.1 0 .3.2.5.5.5s.5-.2.5-.5c0-.6.1-1.1.5-1.5.1-.1.2-.2.4-.3.6-.3 1.5-.6 2.5-.8l3.7 3.7L12 1.5c1 .2 1.8.5 2.4.8.2.1.3.2.4.3.5.5.5 1.1.5 1.8V11.7c0 .5-.1 1-.3 1.5-.2.4-.5.7-.8 1l-.1.2v.2c0 .8-.4 17-.4 17.1v1.6c0 .4-.2.8-.5 1.1-.3.3-.7.5-1.1.5-.8 0-1.5-.6-1.6-1.4-.1-.9-.3-2.9-.5-5.1l-.1-1c-.2-2.2-.4-4.5-.6-5.5v-.2c-.2-1.2-.6-1.4-1-1.4s-.8.2-1 1.4v.2c-.2 1-.4 3.3-.6 5.5l-.1.9c-.2 2.2-.4 4.3-.5 5.2-.1.8-.8 1.4-1.6 1.4-.4 0-.8-.2-1.1-.5-.3-.3-.5-.7-.5-1.1 0-.3-.1-3.6-.2-7.3-.1-3.9-.2-8.3-.2-10.3 0-.3-.3-.5-.5-.5-.3 0-.5.2-.5.5 0 2 .1 6.4.2 10.3.1 3.6.2 7 .2 7.3 0 .7.3 1.4.8 1.8.5.5 1.1.8 1.8.8 1.3 0 2.4-.9 2.6-2.2.1-.9.3-3 .6-5.2l.1-.9c.2-2.1.4-4.5.6-5.5V22v.1c.1 1 .4 3.3.6 5.4l.1 1c.2 2.2.4 4.2.5 5.1.2 1.3 1.3 2.2 2.6 2.2.7 0 1.4-.3 1.8-.8.5-.5.8-1.1.8-1.8v-1.6c0-.1.4-14.9.4-17 .3-.3.6-.7.9-1.2.2-.6.4-1.2.4-1.9-.3-1.6-.3-3.3-.3-4.8" fill="#FF3000" mask="url(#b)"/></g><path d="M54.1 1.547c1 0 1.9.4 2.6 1.1.7.7 1.1 1.7 1.1 2.6 0 1-.4 1.9-1.2 2.6-.7.7-1.7 1.1-2.6 1.1-2 0-3.8-1.8-3.7-3.8 0-1.9 1.8-3.6 3.8-3.6m-.1 8.5c1.2 0 2.4-.5 3.3-1.4.9-.9 1.5-2.1 1.5-3.3 0-1.2-.5-2.4-1.4-3.3-.9-.9-2.1-1.4-3.3-1.4-2.6 0-4.8 2.1-4.8 4.7-.1 2.4 2.2 4.7 4.7 4.7" fill="#FF3000"/><g transform="translate(8 16.047)"><mask id="d" fill="#fff"><use xlink:href="#c"/></mask><path d="M44.9 4.2c-.3-1-.9-1.8-1.8-2.4-.9-.5-1.9-.7-2.9-.4l-5.4 1.4L26.2.9l-3.5 3.7L19.2.9l-8.4 1.9-5.4-1.4c-1-.3-2-.1-2.9.4C1.6 2.4.9 3.2.7 4.2c-.3 1-.1 2 .4 2.9.5.9 1.4 1.5 2.4 1.8l7 1.8 5-.1c.7 0 1.2-.6 1.2-1.3 0-.7-.6-1.2-1.3-1.2l-4.6.1-6.7-1.7c-.4-.1-.7-.3-.8-.6-.2-.3-.2-.7-.1-1 .1-.4.3-.7.6-.8.3-.2.7-.2 1-.1l6 1.5 7.6-1.7 3.2 3.4c.6.6 1.7.6 2.4 0l3.2-3.4L35 5.5 41 4c.4-.1.7 0 1 .1.3.2.5.5.6.8.2.7-.3 1.5-1 1.7l-6.8 1.6-4.7-.1h-1.2v1.2c0 .7-.6 17.1-.7 18.1V28c-.1.6-.1 2.5-.2 4.5 0 .9-.1 1.7-.1 2v1.7c0 .3-.1.5-.3.8-.2.2-.5.3-.8.3-.5 0-1-.4-1.1-.9-.1-.6-.2-1.9-.4-3.3v-.4c0-.2 0-.5-.1-.7l-.2-2c-.3-2.9-.5-4.5-.6-5.4v-.3c0-.5-.1-1.3-.7-1.7-.4-.3-.9-.3-1.4-.1-.8.4-.9 1.3-1 1.9v.2c-.1.9-.3 2.7-.5 4.8l-.2 2.4c0 .3-.1.6-.1.9-.2 1.7-.3 3.1-.4 3.8-.1.5-.5.9-1.1.9-.3 0-.6-.1-.8-.3-.2-.2-.3-.5-.3-.8V32.7c-.1-2.6-.2-4-.2-4.5v-.7c0-.4-.2-4.1-.4-10.2 0-.7-.6-1.2-1.3-1.2-.7 0-1.2.6-1.2 1.3.2 4.4.4 9.7.4 10.2V28.5c.1.6.2 3.4.2 4.3v3.5c0 1 .4 1.9 1 2.6.7.7 1.6 1.1 2.5 1.1 1.8 0 3.3-1.3 3.5-3.1.1-.8.3-2.2.4-3.2.1 1.4.3 2.6.4 3.2.2 1.7 1.8 3.1 3.5 3.1 1 0 1.9-.4 2.6-1.1.7-.7 1-1.6 1-2.5v-1.6c0-.3.1-1.1.1-2 0-1 .1-3.8.2-4.3v-.8c.1-.9.5-12.9.7-17l3.8.1 7-1.8c2.1-.6 3.4-2.7 2.8-4.8" fill="#FF4900" mask="url(#d)"/></g><path d="M23.4 28.147c.663 0 1.2.537 1.2 1.2 0 .663-.537 1.2-1.2 1.2-.663 0-1.2-.537-1.2-1.2 0-.663.537-1.2 1.2-1.2" fill="#FF3000"/></g></svg>