<svg width="755" height="353" viewBox="0 0 755 353" xmlns="http://www.w3.org/2000/svg"><title>noun_597572_cc</title><g transform="translate(0 .292)" fill="none" fill-rule="evenodd"><ellipse fill="#383838" cx="314.969" cy="4.086" rx="3.539" ry="3.752"/><ellipse fill="#383838" cx="301.403" cy="4.086" rx="3.539" ry="3.752"/><ellipse fill="#383838" cx="370.413" cy="33.474" rx="3.539" ry="3.752"/><ellipse fill="#383838" cx="308.481" cy="11.59" rx="3.539" ry="3.752"/><ellipse fill="#383838" cx="294.325" cy="11.59" rx="3.539" ry="3.752"/><ellipse fill="#383838" cx="301.403" cy="33.474" rx="3.539" ry="3.752"/><ellipse fill="#383838" cx="294.325" cy="40.978" rx="3.539" ry="3.752"/><ellipse fill="#383838" cx="294.325" cy="25.971" rx="3.539" ry="3.752"/><ellipse fill="#383838" cx="377.491" cy="25.971" rx="3.539" ry="3.752"/><ellipse fill="#383838" cx="384.569" cy="33.474" rx="3.539" ry="3.752"/><ellipse fill="#383838" cx="301.403" cy="19.093" rx="3.539" ry="3.752"/><ellipse fill="#383838" cx="273.681" cy="4.086" rx="3.539" ry="3.752"/><ellipse fill="#383838" cx="266.603" cy="11.59" rx="3.539" ry="3.752"/><ellipse fill="#383838" cx="273.681" cy="33.474" rx="3.539" ry="3.752"/><ellipse fill="#383838" cx="266.603" cy="40.978" rx="3.539" ry="3.752"/><ellipse fill="#383838" cx="266.603" cy="25.971" rx="3.539" ry="3.752"/><ellipse fill="#383838" cx="280.759" cy="11.59" rx="3.539" ry="3.752"/><ellipse fill="#383838" cx="280.759" cy="40.978" rx="3.539" ry="3.752"/><ellipse fill="#383838" cx="280.759" cy="25.971" rx="3.539" ry="3.752"/><ellipse fill="#383838" cx="273.681" cy="19.093" rx="3.539" ry="3.752"/><ellipse fill="#383838" cx="287.247" cy="4.086" rx="3.539" ry="3.752"/><path d="M384.57 44.73c-1.77 0-3.54 1.875-3.54 3.75 0 1.877 1.77 3.753 3.54 3.753 1.178 0 2.948-1.25 3.538-2.502v-1.25c0-2.5-1.77-3.75-3.54-3.75z" fill="#383838"/><ellipse fill="#383838" cx="370.413" cy="48.481" rx="3.539" ry="3.752"/><ellipse fill="#383838" cx="377.491" cy="40.978" rx="3.539" ry="3.752"/><ellipse fill="#383838" cx="356.847" cy="48.481" rx="3.539" ry="3.752"/><ellipse fill="#383838" cx="363.925" cy="40.978" rx="3.539" ry="3.752"/><ellipse fill="#383838" cx="287.247" cy="33.474" rx="3.539" ry="3.752"/><ellipse fill="#383838" cx="287.247" cy="19.093" rx="3.539" ry="3.752"/><ellipse fill="#383838" cx="259.525" cy="4.086" rx="3.539" ry="3.752"/><ellipse fill="#383838" cx="253.037" cy="11.59" rx="3.539" ry="3.752"/><ellipse fill="#383838" cx="259.525" cy="48.481" rx="3.539" ry="3.752"/><ellipse fill="#383838" cx="259.525" cy="33.474" rx="3.539" ry="3.752"/><ellipse fill="#383838" cx="253.037" cy="40.978" rx="3.539" ry="3.752"/><ellipse fill="#383838" cx="253.037" cy="25.971" rx="3.539" ry="3.752"/><ellipse fill="#383838" cx="259.525" cy="19.093" rx="3.539" ry="3.752"/><ellipse fill="#383838" cx="238.881" cy="11.59" rx="3.539" ry="3.752"/><ellipse fill="#383838" cx="238.881" cy="40.978" rx="3.539" ry="3.752"/><ellipse fill="#383838" cx="231.803" cy="19.093" rx="3.539" ry="3.752"/><ellipse fill="#383838" cx="245.959" cy="4.086" rx="3.539" ry="3.752"/><ellipse fill="#383838" cx="245.959" cy="48.481" rx="3.539" ry="3.752"/><ellipse fill="#383838" cx="245.959" cy="33.474" rx="3.539" ry="3.752"/><ellipse fill="#383838" cx="245.959" cy="19.093" rx="3.539" ry="3.752"/><ellipse fill="#383838" cx="225.315" cy="11.59" rx="3.539" ry="3.752"/><ellipse fill="#383838" cx="225.315" cy="40.978" rx="3.539" ry="3.752"/><ellipse fill="#383838" cx="204.081" cy="48.481" rx="3.539" ry="3.752"/><ellipse fill="#383838" cx="204.081" cy="33.474" rx="3.539" ry="3.752"/><ellipse fill="#383838" cx="211.159" cy="40.978" rx="3.539" ry="3.752"/><ellipse fill="#383838" cx="211.159" cy="25.971" rx="3.539" ry="3.752"/><ellipse fill="#383838" cx="204.081" cy="19.093" rx="3.539" ry="3.752"/><ellipse fill="#383838" cx="218.237" cy="48.481" rx="3.539" ry="3.752"/><ellipse fill="#383838" cx="218.237" cy="33.474" rx="3.539" ry="3.752"/><ellipse fill="#383838" cx="197.593" cy="25.971" rx="3.539" ry="3.752"/><path d="M135.07 44.73c-1.77 0-3.538 1.875-3.538 3.75 0 1.877 1.77 3.753 3.54 3.753 1.18 0 2.948-1.25 3.538-2.502v-1.25c0-2.5-1.77-3.75-3.54-3.75z" fill="#383838"/><ellipse fill="#383838" cx="121.505" cy="48.481" rx="3.539" ry="3.752"/><ellipse fill="#383838" cx="135.071" cy="33.474" rx="3.539" ry="3.752"/><ellipse fill="#383838" cx="148.637" cy="33.474" rx="3.539" ry="3.752"/><ellipse fill="#383838" cx="162.793" cy="33.474" rx="3.539" ry="3.752"/><ellipse fill="#383838" cx="176.359" cy="33.474" rx="3.539" ry="3.752"/><ellipse fill="#383838" cx="121.505" cy="33.474" rx="3.539" ry="3.752"/><ellipse fill="#383838" cx="127.993" cy="40.978" rx="3.539" ry="3.752"/><ellipse fill="#383838" cx="107.349" cy="48.481" rx="3.539" ry="3.752"/><ellipse fill="#383838" cx="107.349" cy="33.474" rx="3.539" ry="3.752"/><ellipse fill="#383838" cx="100.271" cy="40.978" rx="3.539" ry="3.752"/><ellipse fill="#383838" cx="114.427" cy="40.978" rx="3.539" ry="3.752"/><ellipse fill="#383838" cx="169.871" cy="25.971" rx="3.539" ry="3.752"/><ellipse fill="#383838" cx="183.437" cy="25.971" rx="3.539" ry="3.752"/><ellipse fill="#383838" cx="190.515" cy="33.474" rx="3.539" ry="3.752"/><ellipse fill="#383838" cx="190.515" cy="19.093" rx="3.539" ry="3.752"/><ellipse fill="#383838" cx="79.627" cy="48.481" rx="3.539" ry="3.752"/><ellipse fill="#383838" cx="79.627" cy="33.474" rx="3.539" ry="3.752"/><ellipse fill="#383838" cx="72.549" cy="40.978" rx="3.539" ry="3.752"/><ellipse fill="#383838" cx="72.549" cy="25.971" rx="3.539" ry="3.752"/><ellipse fill="#383838" cx="86.705" cy="40.978" rx="3.539" ry="3.752"/><ellipse fill="#383838" cx="93.783" cy="48.481" rx="3.539" ry="3.752"/><ellipse fill="#383838" cx="176.359" cy="48.481" rx="3.539" ry="3.752"/><ellipse fill="#383838" cx="183.437" cy="40.978" rx="3.539" ry="3.752"/><ellipse fill="#383838" cx="162.793" cy="48.481" rx="3.539" ry="3.752"/><ellipse fill="#383838" cx="155.715" cy="40.978" rx="3.539" ry="3.752"/><ellipse fill="#383838" cx="169.871" cy="40.978" rx="3.539" ry="3.752"/><ellipse fill="#383838" cx="142.149" cy="40.978" rx="3.539" ry="3.752"/><ellipse fill="#383838" cx="148.637" cy="48.481" rx="3.539" ry="3.752"/><ellipse fill="#383838" cx="93.783" cy="33.474" rx="3.539" ry="3.752"/><ellipse fill="#383838" cx="66.061" cy="48.481" rx="3.539" ry="3.752"/><ellipse fill="#383838" cx="66.061" cy="33.474" rx="3.539" ry="3.752"/><ellipse fill="#383838" cx="58.983" cy="40.978" rx="3.539" ry="3.752"/><ellipse fill="#383838" cx="58.983" cy="25.971" rx="3.539" ry="3.752"/><ellipse fill="#383838" cx="38.339" cy="48.481" rx="3.539" ry="3.752"/><ellipse fill="#383838" cx="38.339" cy="33.474" rx="3.539" ry="3.752"/><ellipse fill="#383838" cx="44.827" cy="40.978" rx="3.539" ry="3.752"/><ellipse fill="#383838" cx="51.905" cy="48.481" rx="3.539" ry="3.752"/><ellipse fill="#383838" cx="51.905" cy="33.474" rx="3.539" ry="3.752"/><ellipse fill="#383838" cx="31.261" cy="40.978" rx="3.539" ry="3.752"/><ellipse fill="#383838" cx="24.183" cy="48.481" rx="3.539" ry="3.752"/><ellipse fill="#383838" cx="384.569" cy="239.191" rx="3.539" ry="3.752"/><ellipse fill="#383838" cx="377.491" cy="246.694" rx="3.539" ry="3.752"/><ellipse fill="#383838" cx="377.491" cy="231.687" rx="3.539" ry="3.752"/><path d="M388.108 282.335c-.59-1.876-1.77-3.127-3.54-3.127s-2.95 1.25-3.538 3.127v.625c0 1.876 1.77 3.752 3.54 3.752 1.178 0 2.948-1.25 3.538-2.5v-1.252-.625zM370.413 286.712c1.77 0 3.54-1.876 3.54-3.752v-.625c-.59-1.876-1.77-3.127-3.54-3.127s-2.95 1.25-3.54 3.127v.625c0 2.5 1.77 3.752 3.54 3.752z" fill="#383838"/><ellipse fill="#383838" cx="384.569" cy="268.579" rx="3.539" ry="3.752"/><ellipse fill="#383838" cx="377.491" cy="276.082" rx="3.539" ry="3.752"/><ellipse fill="#383838" cx="377.491" cy="261.075" rx="3.539" ry="3.752"/><ellipse fill="#383838" cx="384.569" cy="297.967" rx="3.539" ry="3.752"/><ellipse fill="#383838" cx="377.491" cy="305.47" rx="3.539" ry="3.752"/><ellipse fill="#383838" cx="377.491" cy="290.463" rx="3.539" ry="3.752"/><path d="M384.57 337.985c-1.77 0-3.54 1.875-3.54 3.75 0 1.877 1.77 3.753 3.54 3.753 1.178 0 2.948-1.25 3.538-2.5v-1.252c0-1.876-1.77-3.75-3.54-3.75z" fill="#FF4900"/><ellipse fill="#383838" cx="384.569" cy="327.355" rx="3.539" ry="3.752"/><ellipse fill="#383838" cx="377.491" cy="334.858" rx="3.539" ry="3.752"/><ellipse fill="#383838" cx="377.491" cy="319.852" rx="3.539" ry="3.752"/><ellipse fill="#383838" cx="370.413" cy="239.191" rx="3.539" ry="3.752"/><ellipse fill="#383838" cx="356.847" cy="239.191" rx="3.539" ry="3.752"/><ellipse fill="#383838" cx="363.925" cy="246.694" rx="3.539" ry="3.752"/><ellipse fill="#383838" cx="363.925" cy="231.687" rx="3.539" ry="3.752"/><ellipse fill="#383838" cx="370.413" cy="268.579" rx="3.539" ry="3.752"/><ellipse fill="#383838" cx="363.925" cy="276.082" rx="3.539" ry="3.752"/><ellipse fill="#383838" cx="370.413" cy="297.967" rx="3.539" ry="3.752"/><ellipse fill="#383838" cx="363.925" cy="290.463" rx="3.539" ry="3.752"/><ellipse fill="#383838" cx="211.159" cy="334.858" rx="3.539" ry="3.752"/><ellipse fill="#383838" cx="197.593" cy="334.858" rx="3.539" ry="3.752"/><ellipse fill="#383838" cx="238.881" cy="290.463" rx="3.539" ry="3.752"/><path d="M221.776 282.335c-.59-1.876-1.77-3.127-3.54-3.127s-2.948 1.25-3.538 3.127v.625c0 1.876 1.77 3.752 3.54 3.752 1.178 0 2.948-1.25 3.538-2.5v-1.252-.625zM207.62 282.335c-.59-1.876-1.77-3.127-3.54-3.127s-2.948 1.25-3.538 3.127v.625c0 1.876 1.77 3.752 3.54 3.752 1.18 0 2.948-1.25 3.538-2.5v-1.252-.625z" fill="#383838"/><ellipse fill="#383838" cx="218.237" cy="297.967" rx="3.539" ry="3.752"/><ellipse fill="#383838" cx="204.081" cy="297.967" rx="3.539" ry="3.752"/><ellipse fill="#383838" cx="211.159" cy="290.463" rx="3.539" ry="3.752"/><ellipse fill="#383838" cx="197.593" cy="290.463" rx="3.539" ry="3.752"/><path d="M245.96 257.324c1.768 0 3.538-1.876 3.538-3.752v-.625c0-1.876-1.77-3.127-3.54-3.127s-2.948 1.25-3.538 3.127v.625c0 2.5 1.77 3.752 3.54 3.752z" fill="#383838"/><ellipse fill="#383838" cx="238.881" cy="246.694" rx="3.539" ry="3.752"/><ellipse fill="#383838" cx="245.959" cy="268.579" rx="3.539" ry="3.752"/><ellipse fill="#383838" cx="238.881" cy="276.082" rx="3.539" ry="3.752"/><path d="M231.803 286.712c1.77 0 3.54-1.876 3.54-3.752v-.625c-.59-1.876-1.77-3.127-3.54-3.127s-2.95 1.25-3.54 3.127v.625c0 2.5 1.77 3.752 3.54 3.752zM231.803 294.215c-1.77 0-2.95 1.25-3.54 3.127v.625c0 1.876 1.77 3.75 3.54 3.75s3.54-1.874 3.54-3.75v-.625c0-1.876-1.77-3.127-3.54-3.127z" fill="#383838"/><ellipse fill="#383838" cx="218.237" cy="312.348" rx="3.539" ry="3.752"/><ellipse fill="#383838" cx="204.081" cy="312.348" rx="3.539" ry="3.752"/><ellipse fill="#383838" cx="211.159" cy="305.47" rx="3.539" ry="3.752"/><ellipse fill="#383838" cx="225.315" cy="305.47" rx="3.539" ry="3.752"/><ellipse fill="#383838" cx="197.593" cy="305.47" rx="3.539" ry="3.752"/><ellipse fill="#383838" cx="218.237" cy="327.355" rx="3.539" ry="3.752"/><ellipse fill="#383838" cx="204.081" cy="327.355" rx="3.539" ry="3.752"/><ellipse fill="#383838" cx="211.159" cy="319.852" rx="3.539" ry="3.752"/><ellipse fill="#383838" cx="197.593" cy="319.852" rx="3.539" ry="3.752"/><ellipse fill="#383838" cx="231.803" cy="268.579" rx="3.539" ry="3.752"/><ellipse fill="#383838" cx="225.315" cy="276.082" rx="3.539" ry="3.752"/><ellipse fill="#383838" cx="211.159" cy="276.082" rx="3.539" ry="3.752"/><ellipse fill="#383838" cx="197.593" cy="276.082" rx="3.539" ry="3.752"/><ellipse fill="#383838" cx="238.881" cy="261.075" rx="3.539" ry="3.752"/><ellipse fill="#383838" cx="253.037" cy="261.075" rx="3.539" ry="3.752"/><path d="M221.776 252.947c-.59-1.876-1.77-3.127-3.54-3.127s-2.948 1.25-3.538 3.127v.625c0 1.876 1.77 3.752 3.54 3.752 1.178 0 2.948-1.25 3.538-2.5v-1.252-.625z" fill="#383838"/><ellipse fill="#383838" cx="218.237" cy="239.191" rx="3.539" ry="3.752"/><ellipse fill="#383838" cx="211.159" cy="246.694" rx="3.539" ry="3.752"/><ellipse fill="#383838" cx="225.315" cy="246.694" rx="3.539" ry="3.752"/><ellipse fill="#383838" cx="211.159" cy="231.687" rx="3.539" ry="3.752"/><ellipse fill="#383838" cx="218.237" cy="268.579" rx="3.539" ry="3.752"/><ellipse fill="#383838" cx="211.159" cy="261.075" rx="3.539" ry="3.752"/><ellipse fill="#383838" cx="197.593" cy="261.075" rx="3.539" ry="3.752"/><ellipse fill="#383838" cx="225.315" cy="261.075" rx="3.539" ry="3.752"/><path d="M200.542 253.572c0 1.876 1.77 3.752 3.54 3.752 1.768 0 3.538-1.876 3.538-3.752v-.625c-.59-1.876-1.77-3.127-3.54-3.127s-2.948 1.25-3.538 3.127v.625z" fill="#383838"/><ellipse fill="#383838" cx="204.081" cy="239.191" rx="3.539" ry="3.752"/><ellipse fill="#383838" cx="197.593" cy="246.694" rx="3.539" ry="3.752"/><ellipse fill="#383838" cx="197.593" cy="231.687" rx="3.539" ry="3.752"/><ellipse fill="#383838" cx="204.081" cy="268.579" rx="3.539" ry="3.752"/><ellipse fill="#383838" cx="384.569" cy="312.348" rx="3.539" ry="3.752"/><ellipse fill="#383838" cx="370.413" cy="312.348" rx="3.539" ry="3.752"/><path d="M235.342 252.947c-.59-1.876-1.77-3.127-3.54-3.127s-2.948 1.25-3.538 3.127v.625c0 1.876 1.77 3.752 3.54 3.752 1.768 0 3.538-1.876 3.538-3.752v-.625z" fill="#383838"/><ellipse fill="#383838" cx="204.081" cy="341.736" rx="3.539" ry="3.752"/><ellipse fill="#383838" cx="197.593" cy="349.24" rx="3.539" ry="3.752"/><ellipse fill="#383838" cx="384.569" cy="253.572" rx="3.539" ry="3.752"/><ellipse fill="#383838" cx="370.413" cy="253.572" rx="3.539" ry="3.752"/><ellipse fill="#383838" cx="384.569" cy="62.862" rx="3.539" ry="3.752"/><ellipse fill="#383838" cx="377.491" cy="70.366" rx="3.539" ry="3.752"/><ellipse fill="#383838" cx="377.491" cy="55.359" rx="3.539" ry="3.752"/><path d="M381.03 106.632c0 1.876 1.77 3.75 3.54 3.75 1.178 0 2.948-1.25 3.538-2.5v-1.876c-.59-1.875-1.77-3.126-3.54-3.126s-2.95 1.25-3.538 3.126v.626z" fill="#383838"/><ellipse fill="#383838" cx="384.569" cy="92.25" rx="3.539" ry="3.752"/><ellipse fill="#383838" cx="377.491" cy="99.754" rx="3.539" ry="3.752"/><ellipse fill="#383838" cx="377.491" cy="84.747" rx="3.539" ry="3.752"/><ellipse fill="#383838" cx="384.569" cy="121.638" rx="3.539" ry="3.752"/><path d="M384.57 169.16c1.178 0 2.948-1.25 3.538-2.502v-1.25c0-1.876-1.77-3.752-3.54-3.752s-3.538 1.876-3.538 3.752 1.18 3.752 3.54 3.752z" fill="#383838"/><ellipse fill="#383838" cx="370.413" cy="165.408" rx="3.539" ry="3.752"/><ellipse fill="#383838" cx="384.569" cy="151.026" rx="3.539" ry="3.752"/><ellipse fill="#383838" cx="370.413" cy="151.026" rx="3.539" ry="3.752"/><ellipse fill="#383838" cx="377.491" cy="158.53" rx="3.539" ry="3.752"/><ellipse fill="#383838" cx="377.491" cy="143.523" rx="3.539" ry="3.752"/><ellipse fill="#383838" cx="370.413" cy="62.862" rx="3.539" ry="3.752"/><ellipse fill="#383838" cx="356.847" cy="62.862" rx="3.539" ry="3.752"/><ellipse fill="#383838" cx="363.925" cy="70.366" rx="3.539" ry="3.752"/><ellipse fill="#383838" cx="349.769" cy="55.359" rx="3.539" ry="3.752"/><ellipse fill="#383838" cx="363.925" cy="55.359" rx="3.539" ry="3.752"/><path d="M356.847 103.505c-1.77 0-2.95 1.25-3.54 3.127v.625c0 1.876 1.77 3.752 3.54 3.752s3.54-1.877 3.54-3.753v-.625c-.59-1.876-1.77-3.127-3.54-3.127z" fill="#383838"/><ellipse fill="#383838" cx="370.413" cy="92.25" rx="3.539" ry="3.752"/><ellipse fill="#383838" cx="356.847" cy="92.25" rx="3.539" ry="3.752"/><ellipse fill="#383838" cx="349.769" cy="99.754" rx="3.539" ry="3.752"/><ellipse fill="#383838" cx="363.925" cy="99.754" rx="3.539" ry="3.752"/><ellipse fill="#383838" cx="363.925" cy="84.747" rx="3.539" ry="3.752"/><ellipse fill="#383838" cx="370.413" cy="121.638" rx="3.539" ry="3.752"/><ellipse fill="#383838" cx="349.769" cy="129.142" rx="3.539" ry="3.752"/><ellipse fill="#383838" cx="363.925" cy="114.135" rx="3.539" ry="3.752"/><ellipse fill="#383838" cx="356.847" cy="165.408" rx="3.539" ry="3.752"/><ellipse fill="#383838" cx="356.847" cy="151.026" rx="3.539" ry="3.752"/><ellipse fill="#383838" cx="349.769" cy="158.53" rx="3.539" ry="3.752"/><ellipse fill="#383838" cx="363.925" cy="158.53" rx="3.539" ry="3.752"/><ellipse fill="#383838" cx="349.769" cy="143.523" rx="3.539" ry="3.752"/><ellipse fill="#383838" cx="363.925" cy="143.523" rx="3.539" ry="3.752"/><ellipse fill="#383838" cx="349.769" cy="172.911" rx="3.539" ry="3.752"/><ellipse fill="#383838" cx="363.925" cy="172.911" rx="3.539" ry="3.752"/><ellipse fill="#383838" cx="377.491" cy="172.911" rx="3.539" ry="3.752"/><path d="M329.125 74.117c-1.77 0-2.95 1.25-3.54 3.127v.625c0 1.875 1.77 3.75 3.54 3.75 1.18 0 2.95-1.25 3.54-2.5v-1.876c-.59-1.876-1.77-3.127-3.54-3.127z" fill="#383838"/><ellipse fill="#383838" cx="329.125" cy="62.862" rx="3.539" ry="3.752"/><ellipse fill="#383838" cx="322.047" cy="70.366" rx="3.539" ry="3.752"/><ellipse fill="#383838" cx="336.203" cy="70.366" rx="3.539" ry="3.752"/><path d="M325.586 106.632c0 1.876 1.77 3.75 3.54 3.75 1.178 0 2.948-1.25 3.538-2.5v-1.876c-.59-1.875-1.77-3.126-3.54-3.126s-2.95 1.25-3.538 3.126v.626z" fill="#383838"/><ellipse fill="#383838" cx="336.203" cy="99.754" rx="3.539" ry="3.752"/><ellipse fill="#383838" cx="322.047" cy="99.754" rx="3.539" ry="3.752"/><ellipse fill="#383838" cx="322.047" cy="84.747" rx="3.539" ry="3.752"/><ellipse fill="#383838" cx="322.047" cy="129.142" rx="3.539" ry="3.752"/><ellipse fill="#383838" cx="336.203" cy="129.142" rx="3.539" ry="3.752"/><ellipse fill="#383838" cx="322.047" cy="114.135" rx="3.539" ry="3.752"/><ellipse fill="#383838" cx="336.203" cy="114.135" rx="3.539" ry="3.752"/><path d="M329.125 162.282c-1.77 0-3.54 1.875-3.54 3.75 0 1.877 1.77 3.753 3.54 3.753 1.18 0 2.95-1.25 3.54-2.5v-1.252c0-2.5-1.77-3.75-3.54-3.75z" fill="#383838"/><ellipse fill="#383838" cx="314.969" cy="165.408" rx="3.539" ry="3.752"/><ellipse fill="#383838" cx="329.125" cy="151.026" rx="3.539" ry="3.752"/><ellipse fill="#383838" cx="314.969" cy="151.026" rx="3.539" ry="3.752"/><ellipse fill="#383838" cx="322.047" cy="158.53" rx="3.539" ry="3.752"/><ellipse fill="#383838" cx="336.203" cy="158.53" rx="3.539" ry="3.752"/><ellipse fill="#383838" cx="322.047" cy="143.523" rx="3.539" ry="3.752"/><ellipse fill="#383838" cx="336.203" cy="143.523" rx="3.539" ry="3.752"/><ellipse fill="#383838" cx="329.125" cy="180.415" rx="3.539" ry="3.752"/><ellipse fill="#383838" cx="314.969" cy="180.415" rx="3.539" ry="3.752"/><ellipse fill="#383838" cx="301.403" cy="180.415" rx="3.539" ry="3.752"/><ellipse fill="#383838" cx="322.047" cy="187.918" rx="3.539" ry="3.752"/><ellipse fill="#383838" cx="336.203" cy="187.918" rx="3.539" ry="3.752"/><ellipse fill="#383838" cx="322.047" cy="172.911" rx="3.539" ry="3.752"/><ellipse fill="#383838" cx="336.203" cy="172.911" rx="3.539" ry="3.752"/><path d="M329.125 221.058c-1.77 0-3.54 1.875-3.54 3.75 0 1.877 1.77 3.753 3.54 3.753 1.18 0 2.95-1.25 3.54-2.5v-1.25c0-2.502-1.77-3.752-3.54-3.752z" fill="#383838"/><ellipse fill="#383838" cx="314.969" cy="224.184" rx="3.539" ry="3.752"/><ellipse fill="#383838" cx="329.125" cy="209.803" rx="3.539" ry="3.752"/><ellipse fill="#383838" cx="342.691" cy="209.803" rx="3.539" ry="3.752"/><ellipse fill="#383838" cx="356.847" cy="209.803" rx="3.539" ry="3.752"/><ellipse fill="#383838" cx="370.413" cy="209.803" rx="3.539" ry="3.752"/><ellipse fill="#383838" cx="314.969" cy="209.803" rx="3.539" ry="3.752"/><ellipse fill="#383838" cx="322.047" cy="217.306" rx="3.539" ry="3.752"/><ellipse fill="#383838" cx="322.047" cy="202.299" rx="3.539" ry="3.752"/><ellipse fill="#383838" cx="336.203" cy="202.299" rx="3.539" ry="3.752"/><ellipse fill="#383838" cx="349.769" cy="202.299" rx="3.539" ry="3.752"/><path d="M314.97 74.117c-1.77 0-2.95 1.25-3.54 3.127v.625c0 1.875 1.77 3.75 3.54 3.75 1.768 0 3.538-1.875 3.538-3.75v-.626c-.59-1.876-1.77-3.127-3.54-3.127zM312.02 106.632c0 1.876 1.77 3.75 3.54 3.75 1.768 0 3.538-1.874 3.538-3.75v-.626c-.59-1.875-1.77-3.126-3.54-3.126s-2.95 1.25-3.538 3.126v.626z" fill="#383838"/><ellipse fill="#383838" cx="301.403" cy="165.408" rx="3.539" ry="3.752"/><ellipse fill="#383838" cx="301.403" cy="151.026" rx="3.539" ry="3.752"/><ellipse fill="#383838" cx="308.481" cy="158.53" rx="3.539" ry="3.752"/><ellipse fill="#383838" cx="308.481" cy="143.523" rx="3.539" ry="3.752"/><ellipse fill="#383838" cx="308.481" cy="187.918" rx="3.539" ry="3.752"/><ellipse fill="#383838" cx="294.325" cy="187.918" rx="3.539" ry="3.752"/><ellipse fill="#383838" cx="308.481" cy="172.911" rx="3.539" ry="3.752"/><ellipse fill="#383838" cx="294.325" cy="172.911" rx="3.539" ry="3.752"/><ellipse fill="#383838" cx="301.403" cy="209.803" rx="3.539" ry="3.752"/><ellipse fill="#383838" cx="308.481" cy="217.306" rx="3.539" ry="3.752"/><ellipse fill="#383838" cx="308.481" cy="202.299" rx="3.539" ry="3.752"/><ellipse fill="#383838" cx="294.325" cy="202.299" rx="3.539" ry="3.752"/><ellipse fill="#383838" cx="253.037" cy="55.359" rx="3.539" ry="3.752"/><ellipse fill="#383838" cx="197.593" cy="99.754" rx="3.539" ry="3.752"/><path d="M214.698 77.87c0 1.875 1.77 3.75 3.54 3.75 1.178 0 2.948-1.25 3.538-2.5v-1.876c-.59-1.876-1.77-3.127-3.54-3.127s-2.948 1.25-3.538 3.127v.625z" fill="#383838"/><ellipse fill="#383838" cx="211.159" cy="70.366" rx="3.539" ry="3.752"/><ellipse fill="#383838" cx="211.159" cy="55.359" rx="3.539" ry="3.752"/><ellipse fill="#383838" cx="218.237" cy="92.25" rx="3.539" ry="3.752"/><ellipse fill="#383838" cx="211.159" cy="84.747" rx="3.539" ry="3.752"/><ellipse fill="#383838" cx="197.593" cy="84.747" rx="3.539" ry="3.752"/><path d="M200.542 77.87c0 1.875 1.77 3.75 3.54 3.75 1.768 0 3.538-1.875 3.538-3.75v-.626c-.59-1.876-1.77-3.127-3.54-3.127s-2.948 1.25-3.538 3.127v.625z" fill="#383838"/><ellipse fill="#383838" cx="204.081" cy="62.862" rx="3.539" ry="3.752"/><ellipse fill="#383838" cx="197.593" cy="70.366" rx="3.539" ry="3.752"/><ellipse fill="#383838" cx="356.847" cy="136.02" rx="3.539" ry="3.752"/><ellipse fill="#383838" cx="342.691" cy="136.02" rx="3.539" ry="3.752"/><ellipse fill="#383838" cx="342.691" cy="194.796" rx="3.539" ry="3.752"/><ellipse fill="#383838" cx="342.691" cy="180.415" rx="3.539" ry="3.752"/><ellipse fill="#383838" cx="356.847" cy="180.415" rx="3.539" ry="3.752"/><ellipse fill="#383838" cx="342.691" cy="165.408" rx="3.539" ry="3.752"/><ellipse fill="#383838" cx="342.691" cy="151.026" rx="3.539" ry="3.752"/><ellipse fill="#383838" cx="342.691" cy="106.632" rx="3.539" ry="3.752"/><ellipse fill="#383838" cx="342.691" cy="92.25" rx="3.539" ry="3.752"/><ellipse fill="#383838" cx="342.691" cy="77.869" rx="3.539" ry="3.752"/><ellipse fill="#383838" cx="329.125" cy="136.02" rx="3.539" ry="3.752"/><ellipse fill="#383838" cx="314.969" cy="136.02" rx="3.539" ry="3.752"/><ellipse fill="#383838" cx="329.125" cy="194.796" rx="3.539" ry="3.752"/><ellipse fill="#383838" cx="363.925" cy="187.918" rx="3.539" ry="3.752"/><ellipse fill="#383838" cx="363.925" cy="202.299" rx="3.539" ry="3.752"/><ellipse fill="#383838" cx="377.491" cy="187.918" rx="3.539" ry="3.752"/><ellipse fill="#383838" cx="377.491" cy="202.299" rx="3.539" ry="3.752"/><ellipse fill="#383838" cx="370.413" cy="194.796" rx="3.539" ry="3.752"/><ellipse fill="#383838" cx="370.413" cy="180.415" rx="3.539" ry="3.752"/><ellipse fill="#383838" cx="384.569" cy="209.803" rx="3.539" ry="3.752"/><ellipse fill="#383838" cx="384.569" cy="194.796" rx="3.539" ry="3.752"/><ellipse fill="#383838" cx="384.569" cy="180.415" rx="3.539" ry="3.752"/><ellipse fill="#383838" cx="356.847" cy="194.796" rx="3.539" ry="3.752"/><ellipse fill="#383838" cx="314.969" cy="194.796" rx="3.539" ry="3.752"/><ellipse fill="#383838" cx="301.403" cy="194.796" rx="3.539" ry="3.752"/><path d="M384.57 221.058c-1.77 0-3.54 1.875-3.54 3.75 0 1.877 1.77 3.753 3.54 3.753 1.178 0 2.948-1.25 3.538-2.5v-1.25c0-2.502-1.77-3.752-3.54-3.752z" fill="#383838"/><ellipse fill="#383838" cx="370.413" cy="224.184" rx="3.539" ry="3.752"/><ellipse fill="#383838" cx="377.491" cy="217.306" rx="3.539" ry="3.752"/><ellipse fill="#383838" cx="356.847" cy="224.184" rx="3.539" ry="3.752"/><ellipse fill="#383838" cx="349.769" cy="217.306" rx="3.539" ry="3.752"/><ellipse fill="#383838" cx="363.925" cy="217.306" rx="3.539" ry="3.752"/><ellipse fill="#383838" cx="336.203" cy="217.306" rx="3.539" ry="3.752"/><ellipse fill="#383838" cx="204.081" cy="224.184" rx="3.539" ry="3.752"/><ellipse fill="#383838" cx="197.593" cy="217.306" rx="3.539" ry="3.752"/><ellipse fill="#383838" cx="384.569" cy="77.869" rx="3.539" ry="3.752"/><ellipse fill="#383838" cx="356.847" cy="77.869" rx="3.539" ry="3.752"/><ellipse fill="#383838" cx="190.515" cy="239.191" rx="3.539" ry="3.752"/><ellipse fill="#383838" cx="183.437" cy="246.694" rx="3.539" ry="3.752"/><ellipse fill="#383838" cx="183.437" cy="231.687" rx="3.539" ry="3.752"/><path d="M194.054 282.335c-.59-1.876-1.77-3.127-3.54-3.127s-2.948 1.25-3.538 3.127v.625c0 1.876 1.77 3.752 3.54 3.752 1.178 0 2.948-1.25 3.538-2.5v-1.252-.625zM172.82 282.96c0 1.876 1.77 3.752 3.54 3.752 1.768 0 3.538-1.876 3.538-3.752v-.625c-.59-1.876-1.77-3.127-3.54-3.127s-2.948 1.25-3.538 3.127v.625z" fill="#383838"/><ellipse fill="#383838" cx="190.515" cy="268.579" rx="3.539" ry="3.752"/><ellipse fill="#383838" cx="183.437" cy="276.082" rx="3.539" ry="3.752"/><ellipse fill="#383838" cx="183.437" cy="261.075" rx="3.539" ry="3.752"/><ellipse fill="#383838" cx="190.515" cy="297.967" rx="3.539" ry="3.752"/><ellipse fill="#383838" cx="183.437" cy="305.47" rx="3.539" ry="3.752"/><ellipse fill="#383838" cx="183.437" cy="290.463" rx="3.539" ry="3.752"/><path d="M190.515 337.985c-1.77 0-3.54 1.875-3.54 3.75 0 1.877 1.77 3.753 3.54 3.753 1.18 0 2.95-1.25 3.54-2.5v-1.252c0-1.876-1.77-3.75-3.54-3.75z" fill="#383838"/><ellipse fill="#383838" cx="176.359" cy="341.736" rx="3.539" ry="3.752"/><ellipse fill="#383838" cx="190.515" cy="327.355" rx="3.539" ry="3.752"/><ellipse fill="#383838" cx="176.359" cy="327.355" rx="3.539" ry="3.752"/><ellipse fill="#383838" cx="183.437" cy="334.858" rx="3.539" ry="3.752"/><ellipse fill="#383838" cx="183.437" cy="319.852" rx="3.539" ry="3.752"/><ellipse fill="#383838" cx="176.359" cy="239.191" rx="3.539" ry="3.752"/><ellipse fill="#383838" cx="162.793" cy="239.191" rx="3.539" ry="3.752"/><ellipse fill="#383838" cx="155.715" cy="246.694" rx="3.539" ry="3.752"/><ellipse fill="#383838" cx="169.871" cy="246.694" rx="3.539" ry="3.752"/><ellipse fill="#383838" cx="155.715" cy="231.687" rx="3.539" ry="3.752"/><ellipse fill="#383838" cx="169.871" cy="231.687" rx="3.539" ry="3.752"/><path d="M162.793 286.712c1.77 0 3.54-1.876 3.54-3.752v-.625c-.59-1.876-1.77-3.127-3.54-3.127s-2.95 1.25-3.54 3.127v.625c0 2.5 1.77 3.752 3.54 3.752z" fill="#383838"/><ellipse fill="#383838" cx="176.359" cy="268.579" rx="3.539" ry="3.752"/><ellipse fill="#383838" cx="162.793" cy="268.579" rx="3.539" ry="3.752"/><ellipse fill="#383838" cx="155.715" cy="276.082" rx="3.539" ry="3.752"/><ellipse fill="#383838" cx="169.871" cy="276.082" rx="3.539" ry="3.752"/><ellipse fill="#383838" cx="169.871" cy="261.075" rx="3.539" ry="3.752"/><ellipse fill="#383838" cx="176.359" cy="297.967" rx="3.539" ry="3.752"/><ellipse fill="#383838" cx="162.793" cy="297.967" rx="3.539" ry="3.752"/><ellipse fill="#383838" cx="169.871" cy="305.47" rx="3.539" ry="3.752"/><ellipse fill="#383838" cx="155.715" cy="290.463" rx="3.539" ry="3.752"/><ellipse fill="#383838" cx="169.871" cy="290.463" rx="3.539" ry="3.752"/><ellipse fill="#383838" cx="162.793" cy="341.736" rx="3.539" ry="3.752"/><ellipse fill="#383838" cx="162.793" cy="327.355" rx="3.539" ry="3.752"/><ellipse fill="#383838" cx="169.871" cy="334.858" rx="3.539" ry="3.752"/><ellipse fill="#383838" cx="169.871" cy="319.852" rx="3.539" ry="3.752"/><ellipse fill="#383838" cx="169.871" cy="349.24" rx="3.539" ry="3.752"/><ellipse fill="#383838" cx="183.437" cy="349.24" rx="3.539" ry="3.752"/><path d="M138.61 252.947c-.59-1.876-1.77-3.127-3.54-3.127s-2.948 1.25-3.538 3.127v.625c0 1.876 1.77 3.752 3.54 3.752 1.18 0 2.948-1.25 2.948-2.5v-1.252c.59 0 .59 0 .59-.625z" fill="#383838"/><ellipse fill="#383838" cx="135.071" cy="239.191" rx="3.539" ry="3.752"/><ellipse fill="#383838" cx="142.149" cy="246.694" rx="3.539" ry="3.752"/><ellipse fill="#383838" cx="142.149" cy="231.687" rx="3.539" ry="3.752"/><ellipse fill="#383838" cx="142.149" cy="276.082" rx="3.539" ry="3.752"/><ellipse fill="#383838" cx="142.149" cy="261.075" rx="3.539" ry="3.752"/><ellipse fill="#383838" cx="190.515" cy="312.348" rx="3.539" ry="3.752"/><ellipse fill="#383838" cx="176.359" cy="312.348" rx="3.539" ry="3.752"/><ellipse fill="#383838" cx="162.793" cy="312.348" rx="3.539" ry="3.752"/><ellipse fill="#383838" cx="148.637" cy="282.96" rx="3.539" ry="3.752"/><ellipse fill="#383838" cx="148.637" cy="268.579" rx="3.539" ry="3.752"/><ellipse fill="#383838" cx="148.637" cy="253.572" rx="3.539" ry="3.752"/><ellipse fill="#383838" cx="148.637" cy="239.191" rx="3.539" ry="3.752"/><ellipse fill="#383838" cx="190.515" cy="253.572" rx="3.539" ry="3.752"/><ellipse fill="#383838" cx="176.359" cy="253.572" rx="3.539" ry="3.752"/><ellipse fill="#383838" cx="162.793" cy="253.572" rx="3.539" ry="3.752"/><ellipse fill="#383838" cx="190.515" cy="62.862" rx="3.539" ry="3.752"/><ellipse fill="#383838" cx="183.437" cy="70.366" rx="3.539" ry="3.752"/><ellipse fill="#383838" cx="183.437" cy="55.359" rx="3.539" ry="3.752"/><path d="M194.054 106.006c-.59-1.875-1.77-3.126-3.54-3.126s-2.948 1.25-3.538 3.126v.626c0 1.876 1.77 3.75 3.54 3.75 1.178 0 2.948-1.25 3.538-2.5v-1.25-.626zM172.82 106.632c0 1.876 1.77 3.75 3.54 3.75 1.768 0 3.538-1.874 3.538-3.75v-.626c-.59-1.875-1.77-3.126-3.54-3.126s-2.948 1.25-3.538 3.126v.626z" fill="#383838"/><ellipse fill="#383838" cx="190.515" cy="92.25" rx="3.539" ry="3.752"/><ellipse fill="#383838" cx="183.437" cy="99.754" rx="3.539" ry="3.752"/><ellipse fill="#383838" cx="183.437" cy="84.747" rx="3.539" ry="3.752"/><ellipse fill="#383838" cx="155.715" cy="70.366" rx="3.539" ry="3.752"/><ellipse fill="#383838" cx="155.715" cy="55.359" rx="3.539" ry="3.752"/><path d="M162.793 103.505c-1.77 0-2.95 1.25-3.54 3.127v.625c0 1.876 1.77 3.752 3.54 3.752s3.54-1.877 3.54-3.753v-.625c-.59-1.876-1.77-3.127-3.54-3.127z" fill="#383838"/><ellipse fill="#383838" cx="176.359" cy="92.25" rx="3.539" ry="3.752"/><ellipse fill="#383838" cx="162.793" cy="92.25" rx="3.539" ry="3.752"/><ellipse fill="#383838" cx="155.715" cy="99.754" rx="3.539" ry="3.752"/><ellipse fill="#383838" cx="169.871" cy="99.754" rx="3.539" ry="3.752"/><ellipse fill="#383838" cx="155.715" cy="84.747" rx="3.539" ry="3.752"/><ellipse fill="#383838" cx="169.871" cy="84.747" rx="3.539" ry="3.752"/><ellipse fill="#383838" cx="155.715" cy="129.142" rx="3.539" ry="3.752"/><ellipse fill="#383838" cx="155.715" cy="114.135" rx="3.539" ry="3.752"/><ellipse fill="#383838" cx="169.871" cy="114.135" rx="3.539" ry="3.752"/><path d="M135.07 74.117c-1.77 0-2.948 1.25-3.538 3.127v.625c0 1.875 1.77 3.75 3.54 3.75 1.18 0 2.948-1.25 2.948-2.5v-1.876c0-1.876-1.18-3.127-2.95-3.127z" fill="#383838"/><ellipse fill="#383838" cx="135.071" cy="62.862" rx="3.539" ry="3.752"/><ellipse fill="#383838" cx="127.993" cy="70.366" rx="3.539" ry="3.752"/><ellipse fill="#383838" cx="142.149" cy="70.366" rx="3.539" ry="3.752"/><ellipse fill="#383838" cx="127.993" cy="55.359" rx="3.539" ry="3.752"/><ellipse fill="#383838" cx="142.149" cy="55.359" rx="3.539" ry="3.752"/><path d="M131.532 106.632c0 1.876 1.77 3.75 3.54 3.75 1.18 0 2.948-1.25 2.948-2.5v-1.876c-.59-1.875-1.77-3.126-3.54-3.126-1.768 0-2.948 1.25-3.538 3.126l.59.626z" fill="#383838"/><ellipse fill="#383838" cx="135.071" cy="92.25" rx="3.539" ry="3.752"/><ellipse fill="#383838" cx="127.993" cy="99.754" rx="3.539" ry="3.752"/><ellipse fill="#383838" cx="142.149" cy="99.754" rx="3.539" ry="3.752"/><ellipse fill="#383838" cx="127.993" cy="84.747" rx="3.539" ry="3.752"/><ellipse fill="#383838" cx="142.149" cy="84.747" rx="3.539" ry="3.752"/><ellipse fill="#383838" cx="135.071" cy="121.638" rx="3.539" ry="3.752"/><ellipse fill="#383838" cx="121.505" cy="121.638" rx="3.539" ry="3.752"/><ellipse fill="#383838" cx="127.993" cy="129.142" rx="3.539" ry="3.752"/><ellipse fill="#383838" cx="142.149" cy="129.142" rx="3.539" ry="3.752"/><ellipse fill="#383838" cx="127.993" cy="114.135" rx="3.539" ry="3.752"/><ellipse fill="#383838" cx="142.149" cy="114.135" rx="3.539" ry="3.752"/><ellipse fill="#383838" cx="135.071" cy="151.026" rx="3.539" ry="3.752"/><ellipse fill="#383838" cx="142.149" cy="158.53" rx="3.539" ry="3.752"/><ellipse fill="#383838" cx="127.993" cy="143.523" rx="3.539" ry="3.752"/><ellipse fill="#383838" cx="142.149" cy="143.523" rx="3.539" ry="3.752"/><ellipse fill="#383838" cx="121.505" cy="180.415" rx="3.539" ry="3.752"/><ellipse fill="#383838" cx="107.349" cy="180.415" rx="3.539" ry="3.752"/><ellipse fill="#383838" cx="127.993" cy="187.918" rx="3.539" ry="3.752"/><ellipse fill="#383838" cx="135.071" cy="209.803" rx="3.539" ry="3.752"/><ellipse fill="#383838" cx="148.637" cy="209.803" rx="3.539" ry="3.752"/><ellipse fill="#383838" cx="162.793" cy="209.803" rx="3.539" ry="3.752"/><ellipse fill="#383838" cx="176.359" cy="209.803" rx="3.539" ry="3.752"/><ellipse fill="#383838" cx="121.505" cy="209.803" rx="3.539" ry="3.752"/><ellipse fill="#383838" cx="127.993" cy="217.306" rx="3.539" ry="3.752"/><ellipse fill="#383838" cx="127.993" cy="202.299" rx="3.539" ry="3.752"/><ellipse fill="#383838" cx="142.149" cy="202.299" rx="3.539" ry="3.752"/><ellipse fill="#383838" cx="155.715" cy="202.299" rx="3.539" ry="3.752"/><path d="M107.35 74.117c-1.77 0-2.95 1.25-3.54 3.127v.625c0 1.875 1.77 3.75 3.54 3.75 1.768 0 3.538-1.875 3.538-3.75v-.626c-.59-1.876-1.77-3.127-3.54-3.127z" fill="#383838"/><ellipse fill="#383838" cx="121.505" cy="62.862" rx="3.539" ry="3.752"/><ellipse fill="#383838" cx="107.349" cy="62.862" rx="3.539" ry="3.752"/><ellipse fill="#383838" cx="100.271" cy="70.366" rx="3.539" ry="3.752"/><ellipse fill="#383838" cx="114.427" cy="70.366" rx="3.539" ry="3.752"/><ellipse fill="#383838" cx="100.271" cy="55.359" rx="3.539" ry="3.752"/><ellipse fill="#383838" cx="114.427" cy="55.359" rx="3.539" ry="3.752"/><path d="M117.966 106.632c0 1.876 1.77 3.75 3.54 3.75 1.768 0 3.538-1.874 3.538-3.75v-.626c-.59-1.875-1.77-3.126-3.54-3.126s-2.948 1.25-3.538 3.126v.626zM107.35 103.505c-1.77 0-2.95 1.25-3.54 3.127v.625c0 1.876 1.77 3.752 3.54 3.752 1.768 0 3.538-1.877 3.538-3.753v-.625c-.59-1.876-1.77-3.127-3.54-3.127z" fill="#383838"/><ellipse fill="#383838" cx="121.505" cy="92.25" rx="3.539" ry="3.752"/><ellipse fill="#383838" cx="107.349" cy="92.25" rx="3.539" ry="3.752"/><ellipse fill="#383838" cx="100.271" cy="99.754" rx="3.539" ry="3.752"/><ellipse fill="#383838" cx="114.427" cy="99.754" rx="3.539" ry="3.752"/><ellipse fill="#383838" cx="100.271" cy="84.747" rx="3.539" ry="3.752"/><ellipse fill="#383838" cx="114.427" cy="84.747" rx="3.539" ry="3.752"/><ellipse fill="#383838" cx="107.349" cy="121.638" rx="3.539" ry="3.752"/><ellipse fill="#383838" cx="100.271" cy="129.142" rx="3.539" ry="3.752"/><ellipse fill="#383838" cx="114.427" cy="129.142" rx="3.539" ry="3.752"/><ellipse fill="#383838" cx="100.271" cy="114.135" rx="3.539" ry="3.752"/><ellipse fill="#383838" cx="114.427" cy="114.135" rx="3.539" ry="3.752"/><ellipse fill="#383838" cx="107.349" cy="151.026" rx="3.539" ry="3.752"/><ellipse fill="#383838" cx="100.271" cy="158.53" rx="3.539" ry="3.752"/><ellipse fill="#383838" cx="86.705" cy="158.53" rx="3.539" ry="3.752"/><ellipse fill="#383838" cx="72.549" cy="158.53" rx="3.539" ry="3.752"/><ellipse fill="#383838" cx="58.983" cy="158.53" rx="3.539" ry="3.752"/><ellipse fill="#383838" cx="100.271" cy="143.523" rx="3.539" ry="3.752"/><ellipse fill="#383838" cx="114.427" cy="143.523" rx="3.539" ry="3.752"/><ellipse fill="#383838" cx="114.427" cy="187.918" rx="3.539" ry="3.752"/><ellipse fill="#383838" cx="100.271" cy="187.918" rx="3.539" ry="3.752"/><ellipse fill="#383838" cx="114.427" cy="172.911" rx="3.539" ry="3.752"/><ellipse fill="#383838" cx="100.271" cy="172.911" rx="3.539" ry="3.752"/><ellipse fill="#383838" cx="114.427" cy="202.299" rx="3.539" ry="3.752"/><path d="M79.627 74.117c-1.77 0-2.95 1.25-3.54 3.127v.625c0 1.875 1.77 3.75 3.54 3.75 1.18 0 2.36-1.25 2.95-2.5v-1.876c0-1.876-1.18-3.127-2.95-3.127z" fill="#383838"/><ellipse fill="#383838" cx="79.627" cy="62.862" rx="3.539" ry="3.752"/><ellipse fill="#383838" cx="72.549" cy="70.366" rx="3.539" ry="3.752"/><ellipse fill="#383838" cx="86.705" cy="70.366" rx="3.539" ry="3.752"/><ellipse fill="#383838" cx="72.549" cy="55.359" rx="3.539" ry="3.752"/><ellipse fill="#383838" cx="86.705" cy="55.359" rx="3.539" ry="3.752"/><path d="M79.627 110.383c1.18 0 2.36-1.25 2.95-2.5v-1.877c0-1.875-1.77-3.126-3.54-3.126s-2.95 1.25-3.54 3.126v.626c.59 2.5 2.36 3.75 4.13 3.75z" fill="#383838"/><ellipse fill="#383838" cx="79.627" cy="92.25" rx="3.539" ry="3.752"/><ellipse fill="#383838" cx="72.549" cy="99.754" rx="3.539" ry="3.752"/><ellipse fill="#383838" cx="86.705" cy="99.754" rx="3.539" ry="3.752"/><ellipse fill="#383838" cx="72.549" cy="84.747" rx="3.539" ry="3.752"/><ellipse fill="#383838" cx="86.705" cy="84.747" rx="3.539" ry="3.752"/><ellipse fill="#383838" cx="79.627" cy="121.638" rx="3.539" ry="3.752"/><ellipse fill="#383838" cx="79.627" cy="136.02" rx="3.539" ry="3.752"/><ellipse fill="#383838" cx="79.627" cy="151.026" rx="3.539" ry="3.752"/><ellipse fill="#383838" cx="86.705" cy="129.142" rx="3.539" ry="3.752"/><ellipse fill="#383838" cx="86.705" cy="143.523" rx="3.539" ry="3.752"/><ellipse fill="#383838" cx="72.549" cy="114.135" rx="3.539" ry="3.752"/><ellipse fill="#383838" cx="86.705" cy="114.135" rx="3.539" ry="3.752"/><ellipse fill="#383838" cx="51.905" cy="121.638" rx="3.539" ry="3.752"/><ellipse fill="#383838" cx="58.983" cy="114.135" rx="3.539" ry="3.752"/><path d="M62.522 77.87c0 1.875 1.77 3.75 3.54 3.75 1.768 0 3.538-1.875 3.538-3.75v-.626c-.59-1.876-1.77-3.127-3.54-3.127s-2.948 1.25-3.538 3.127v.625z" fill="#383838"/><ellipse fill="#383838" cx="66.061" cy="62.862" rx="3.539" ry="3.752"/><ellipse fill="#383838" cx="44.827" cy="55.359" rx="3.539" ry="3.752"/><ellipse fill="#383838" cx="58.983" cy="55.359" rx="3.539" ry="3.752"/><path d="M62.522 106.632c0 1.876 1.77 3.75 3.54 3.75 1.768 0 3.538-1.874 3.538-3.75v-.626c-.59-1.875-1.77-3.126-3.54-3.126s-2.948 1.25-3.538 3.126v.626zM62.522 121.638c0 1.876 1.77 3.752 3.54 3.752 1.768 0 3.538-1.876 3.538-3.752v-.625c-.59-1.876-1.77-3.126-3.54-3.126s-2.948 1.25-3.538 3.126v.625z" fill="#383838"/><ellipse fill="#383838" cx="66.061" cy="92.25" rx="3.539" ry="3.752"/><ellipse fill="#383838" cx="58.983" cy="99.754" rx="3.539" ry="3.752"/><ellipse fill="#383838" cx="72.549" cy="129.142" rx="3.539" ry="3.752"/><ellipse fill="#383838" cx="51.905" cy="136.02" rx="3.539" ry="3.752"/><ellipse fill="#383838" cx="58.983" cy="129.142" rx="3.539" ry="3.752"/><path d="M62.522 136.02c0 1.876 1.77 3.75 3.54 3.75 1.768 0 3.538-1.874 3.538-3.75v-.625c-.59-1.876-1.77-3.127-3.54-3.127s-2.948 1.25-3.538 3.127v.625z" fill="#383838"/><ellipse fill="#383838" cx="72.549" cy="143.523" rx="3.539" ry="3.752"/><path d="M66.06 154.778c1.77 0 3.54-1.876 3.54-3.75v-.627c-.59-1.875-1.77-3.125-3.54-3.125s-2.948 1.25-3.538 3.126v.626c0 1.876 1.18 3.752 3.54 3.752z" fill="#383838"/><ellipse fill="#383838" cx="58.983" cy="84.747" rx="3.539" ry="3.752"/><ellipse fill="#383838" cx="24.183" cy="62.862" rx="3.539" ry="3.752"/><ellipse fill="#383838" cx="17.105" cy="55.359" rx="3.539" ry="3.752"/><ellipse fill="#383838" cx="31.261" cy="55.359" rx="3.539" ry="3.752"/><ellipse fill="#383838" cx="10.617" cy="62.862" rx="3.539" ry="3.752"/><ellipse fill="#383838" cx="3.539" cy="70.366" rx="3.539" ry="3.752"/><ellipse fill="#383838" cx="148.637" cy="121.638" rx="3.539" ry="3.752"/><ellipse fill="#383838" cx="148.637" cy="106.632" rx="3.539" ry="3.752"/><ellipse fill="#383838" cx="148.637" cy="92.25" rx="3.539" ry="3.752"/><ellipse fill="#383838" cx="148.637" cy="77.869" rx="3.539" ry="3.752"/><ellipse fill="#383838" cx="148.637" cy="62.862" rx="3.539" ry="3.752"/><path d="M90.244 77.87c0 1.875 1.77 3.75 3.54 3.75 1.768 0 3.538-1.875 3.538-3.75v-.626c-.59-1.876-1.77-3.127-3.54-3.127s-2.948 1.25-3.538 3.127v.625z" fill="#383838"/><ellipse fill="#383838" cx="93.783" cy="62.862" rx="3.539" ry="3.752"/><ellipse fill="#383838" cx="38.339" cy="62.862" rx="3.539" ry="3.752"/><path d="M93.193 103.505c-1.77 0-2.95 1.25-3.54 3.127v.625c0 1.876 1.77 3.752 3.54 3.752s3.54-1.877 3.54-3.753v-.625c0-1.876-1.77-3.127-3.54-3.127z" fill="#383838"/><ellipse fill="#383838" cx="93.783" cy="92.25" rx="3.539" ry="3.752"/><ellipse fill="#383838" cx="93.783" cy="121.638" rx="3.539" ry="3.752"/><ellipse fill="#383838" cx="93.783" cy="151.026" rx="3.539" ry="3.752"/><ellipse fill="#383838" cx="93.783" cy="136.02" rx="3.539" ry="3.752"/><ellipse fill="#383838" cx="135.071" cy="136.02" rx="3.539" ry="3.752"/><ellipse fill="#383838" cx="121.505" cy="136.02" rx="3.539" ry="3.752"/><ellipse fill="#383838" cx="107.349" cy="136.02" rx="3.539" ry="3.752"/><ellipse fill="#383838" cx="93.783" cy="165.408" rx="3.539" ry="3.752"/><ellipse fill="#383838" cx="169.871" cy="202.299" rx="3.539" ry="3.752"/><ellipse fill="#383838" cx="183.437" cy="202.299" rx="3.539" ry="3.752"/><ellipse fill="#383838" cx="107.349" cy="194.796" rx="3.539" ry="3.752"/><ellipse fill="#383838" cx="79.627" cy="180.415" rx="3.539" ry="3.752"/><ellipse fill="#383838" cx="79.627" cy="165.408" rx="3.539" ry="3.752"/><ellipse fill="#383838" cx="72.549" cy="172.911" rx="3.539" ry="3.752"/><ellipse fill="#383838" cx="86.705" cy="187.918" rx="3.539" ry="3.752"/><ellipse fill="#383838" cx="86.705" cy="172.911" rx="3.539" ry="3.752"/><ellipse fill="#383838" cx="93.783" cy="180.415" rx="3.539" ry="3.752"/><path d="M190.515 221.058c-1.77 0-3.54 1.875-3.54 3.75 0 1.877 1.77 3.753 3.54 3.753 1.18 0 2.95-1.25 3.54-2.5v-1.25c0-2.502-1.77-3.752-3.54-3.752z" fill="#383838"/><ellipse fill="#383838" cx="176.359" cy="224.184" rx="3.539" ry="3.752"/><ellipse fill="#383838" cx="183.437" cy="217.306" rx="3.539" ry="3.752"/><ellipse fill="#383838" cx="162.793" cy="224.184" rx="3.539" ry="3.752"/><ellipse fill="#383838" cx="155.715" cy="217.306" rx="3.539" ry="3.752"/><ellipse fill="#383838" cx="169.871" cy="217.306" rx="3.539" ry="3.752"/><ellipse fill="#383838" cx="142.149" cy="217.306" rx="3.539" ry="3.752"/><ellipse fill="#383838" cx="148.637" cy="224.184" rx="3.539" ry="3.752"/><ellipse fill="#383838" cx="66.061" cy="165.408" rx="3.539" ry="3.752"/><ellipse fill="#383838" cx="190.515" cy="77.869" rx="3.539" ry="3.752"/><ellipse fill="#383838" cx="176.359" cy="77.869" rx="3.539" ry="3.752"/><ellipse fill="#383838" cx="162.793" cy="77.869" rx="3.539" ry="3.752"/><ellipse fill="#383838" cx="688.92" cy="48.481" rx="3.539" ry="3.752"/><ellipse fill="#383838" cx="682.432" cy="40.978" rx="3.539" ry="3.752"/><ellipse fill="#383838" cx="695.998" cy="40.978" rx="3.539" ry="3.752"/><ellipse fill="#383838" cx="661.198" cy="48.481" rx="3.539" ry="3.752"/><ellipse fill="#383838" cx="661.198" cy="33.474" rx="3.539" ry="3.752"/><ellipse fill="#383838" cx="654.71" cy="40.978" rx="3.539" ry="3.752"/><ellipse fill="#383838" cx="668.276" cy="40.978" rx="3.539" ry="3.752"/><ellipse fill="#383838" cx="675.354" cy="48.481" rx="3.539" ry="3.752"/><ellipse fill="#383838" cx="675.354" cy="33.474" rx="3.539" ry="3.752"/><ellipse fill="#383838" cx="647.632" cy="48.481" rx="3.539" ry="3.752"/><ellipse fill="#383838" cx="647.632" cy="33.474" rx="3.539" ry="3.752"/><ellipse fill="#383838" cx="640.554" cy="40.978" rx="3.539" ry="3.752"/><ellipse fill="#383838" cx="619.91" cy="48.481" rx="3.539" ry="3.752"/><ellipse fill="#383838" cx="619.91" cy="33.474" rx="3.539" ry="3.752"/><ellipse fill="#383838" cx="626.988" cy="40.978" rx="3.539" ry="3.752"/><ellipse fill="#383838" cx="626.988" cy="25.971" rx="3.539" ry="3.752"/><ellipse fill="#383838" cx="633.476" cy="48.481" rx="3.539" ry="3.752"/><ellipse fill="#383838" cx="633.476" cy="33.474" rx="3.539" ry="3.752"/><ellipse fill="#383838" cx="612.832" cy="40.978" rx="3.539" ry="3.752"/><ellipse fill="#383838" cx="612.832" cy="25.971" rx="3.539" ry="3.752"/><ellipse fill="#383838" cx="592.188" cy="48.481" rx="3.539" ry="3.752"/><ellipse fill="#383838" cx="592.188" cy="33.474" rx="3.539" ry="3.752"/><ellipse fill="#383838" cx="599.266" cy="40.978" rx="3.539" ry="3.752"/><ellipse fill="#383838" cx="599.266" cy="25.971" rx="3.539" ry="3.752"/><ellipse fill="#383838" cx="606.344" cy="48.481" rx="3.539" ry="3.752"/><ellipse fill="#383838" cx="606.344" cy="33.474" rx="3.539" ry="3.752"/><ellipse fill="#383838" cx="585.11" cy="40.978" rx="3.539" ry="3.752"/><ellipse fill="#383838" cx="585.11" cy="25.971" rx="3.539" ry="3.752"/><ellipse fill="#383838" cx="516.1" cy="11.59" rx="3.539" ry="3.752"/><ellipse fill="#383838" cx="529.667" cy="11.59" rx="3.539" ry="3.752"/><path d="M523.178 44.73c-1.77 0-3.54 1.875-3.54 3.75 0 1.877 1.77 3.753 3.54 3.753 1.18 0 2.95-1.25 3.54-2.502v-1.25c-.59-2.5-1.77-3.75-3.54-3.75z" fill="#383838"/><ellipse fill="#383838" cx="509.022" cy="48.481" rx="3.539" ry="3.752"/><ellipse fill="#383838" cx="523.178" cy="33.474" rx="3.539" ry="3.752"/><ellipse fill="#383838" cx="536.744" cy="33.474" rx="3.539" ry="3.752"/><ellipse fill="#383838" cx="550.9" cy="33.474" rx="3.539" ry="3.752"/><ellipse fill="#383838" cx="564.466" cy="33.474" rx="3.539" ry="3.752"/><ellipse fill="#383838" cx="509.022" cy="33.474" rx="3.539" ry="3.752"/><ellipse fill="#383838" cx="516.1" cy="40.978" rx="3.539" ry="3.752"/><ellipse fill="#383838" cx="516.1" cy="25.971" rx="3.539" ry="3.752"/><ellipse fill="#383838" cx="529.667" cy="25.971" rx="3.539" ry="3.752"/><ellipse fill="#383838" cx="543.822" cy="25.971" rx="3.539" ry="3.752"/><ellipse fill="#383838" cx="501.945" cy="11.59" rx="3.539" ry="3.752"/><ellipse fill="#383838" cx="495.456" cy="48.481" rx="3.539" ry="3.752"/><ellipse fill="#383838" cx="495.456" cy="33.474" rx="3.539" ry="3.752"/><ellipse fill="#383838" cx="488.378" cy="40.978" rx="3.539" ry="3.752"/><ellipse fill="#383838" cx="501.945" cy="40.978" rx="3.539" ry="3.752"/><ellipse fill="#383838" cx="501.945" cy="25.971" rx="3.539" ry="3.752"/><ellipse fill="#383838" cx="488.378" cy="25.971" rx="3.539" ry="3.752"/><ellipse fill="#383838" cx="536.744" cy="19.093" rx="3.539" ry="3.752"/><ellipse fill="#383838" cx="523.178" cy="19.093" rx="3.539" ry="3.752"/><ellipse fill="#383838" cx="557.388" cy="25.971" rx="3.539" ry="3.752"/><ellipse fill="#383838" cx="571.544" cy="25.971" rx="3.539" ry="3.752"/><ellipse fill="#383838" cx="578.622" cy="33.474" rx="3.539" ry="3.752"/><ellipse fill="#383838" cx="550.9" cy="19.093" rx="3.539" ry="3.752"/><ellipse fill="#383838" cx="509.022" cy="19.093" rx="3.539" ry="3.752"/><ellipse fill="#383838" cx="495.456" cy="19.093" rx="3.539" ry="3.752"/><ellipse fill="#383838" cx="467.734" cy="48.481" rx="3.539" ry="3.752"/><ellipse fill="#383838" cx="467.734" cy="33.474" rx="3.539" ry="3.752"/><ellipse fill="#383838" cx="460.657" cy="40.978" rx="3.539" ry="3.752"/><ellipse fill="#383838" cx="460.657" cy="25.971" rx="3.539" ry="3.752"/><ellipse fill="#383838" cx="474.223" cy="40.978" rx="3.539" ry="3.752"/><ellipse fill="#383838" cx="474.223" cy="25.971" rx="3.539" ry="3.752"/><ellipse fill="#383838" cx="481.301" cy="48.481" rx="3.539" ry="3.752"/><path d="M578.622 44.73c-1.77 0-3.54 1.875-3.54 3.75 0 1.877 1.77 3.753 3.54 3.753 1.18 0 2.95-1.25 3.54-2.502v-1.25c-.59-2.5-1.77-3.75-3.54-3.75z" fill="#383838"/><ellipse fill="#383838" cx="564.466" cy="48.481" rx="3.539" ry="3.752"/><ellipse fill="#383838" cx="571.544" cy="40.978" rx="3.539" ry="3.752"/><ellipse fill="#383838" cx="550.9" cy="48.481" rx="3.539" ry="3.752"/><ellipse fill="#383838" cx="543.822" cy="40.978" rx="3.539" ry="3.752"/><ellipse fill="#383838" cx="557.388" cy="40.978" rx="3.539" ry="3.752"/><ellipse fill="#383838" cx="529.667" cy="40.978" rx="3.539" ry="3.752"/><ellipse fill="#383838" cx="536.744" cy="48.481" rx="3.539" ry="3.752"/><ellipse fill="#383838" cx="481.301" cy="33.474" rx="3.539" ry="3.752"/><ellipse fill="#383838" cx="453.579" cy="48.481" rx="3.539" ry="3.752"/><ellipse fill="#383838" cx="453.579" cy="33.474" rx="3.539" ry="3.752"/><ellipse fill="#383838" cx="446.501" cy="40.978" rx="3.539" ry="3.752"/><ellipse fill="#383838" cx="425.857" cy="48.481" rx="3.539" ry="3.752"/><ellipse fill="#383838" cx="425.857" cy="33.474" rx="3.539" ry="3.752"/><ellipse fill="#383838" cx="432.935" cy="40.978" rx="3.539" ry="3.752"/><ellipse fill="#383838" cx="440.012" cy="48.481" rx="3.539" ry="3.752"/><ellipse fill="#383838" cx="440.012" cy="33.474" rx="3.539" ry="3.752"/><ellipse fill="#383838" cx="418.779" cy="40.978" rx="3.539" ry="3.752"/><ellipse fill="#383838" cx="398.135" cy="48.481" rx="3.539" ry="3.752"/><ellipse fill="#383838" cx="398.135" cy="33.474" rx="3.539" ry="3.752"/><ellipse fill="#383838" cx="405.213" cy="40.978" rx="3.539" ry="3.752"/><ellipse fill="#383838" cx="412.291" cy="48.481" rx="3.539" ry="3.752"/><ellipse fill="#383838" cx="412.291" cy="33.474" rx="3.539" ry="3.752"/><ellipse fill="#383838" cx="391.057" cy="40.978" rx="3.539" ry="3.752"/><ellipse fill="#383838" cx="391.057" cy="25.971" rx="3.539" ry="3.752"/><ellipse fill="#383838" cx="744.364" cy="341.736" rx="3.539" ry="3.752"/><ellipse fill="#383838" cx="737.876" cy="349.24" rx="3.539" ry="3.752"/><ellipse fill="#383838" cx="751.442" cy="349.24" rx="3.539" ry="3.752"/><ellipse fill="#383838" cx="710.154" cy="261.075" rx="3.539" ry="3.752"/><ellipse fill="#383838" cx="703.076" cy="297.967" rx="3.539" ry="3.752"/><ellipse fill="#383838" cx="703.076" cy="327.355" rx="3.539" ry="3.752"/><ellipse fill="#383838" cx="710.154" cy="319.852" rx="3.539" ry="3.752"/><path d="M699.537 253.572c0 1.876 1.77 3.752 3.54 3.752s3.538-1.876 3.538-3.752v-.625c-.59-1.876-1.77-3.127-3.54-3.127-1.768 0-2.948 1.25-3.538 3.127v.625zM688.92 257.324c1.77 0 3.54-1.876 3.54-3.752v-.625c-.59-1.876-1.77-3.127-3.54-3.127s-2.95 1.25-3.54 3.127v.625c0 2.5 1.77 3.752 3.54 3.752z" fill="#383838"/><ellipse fill="#383838" cx="688.92" cy="239.191" rx="3.539" ry="3.752"/><ellipse fill="#383838" cx="682.432" cy="246.694" rx="3.539" ry="3.752"/><ellipse fill="#383838" cx="695.998" cy="246.694" rx="3.539" ry="3.752"/><path d="M692.46 282.335c-.59-1.876-1.77-3.127-3.54-3.127s-2.95 1.25-3.54 3.127v.625c0 1.876 1.77 3.752 3.54 3.752s3.54-1.876 3.54-3.752v-.625z" fill="#383838"/><ellipse fill="#383838" cx="695.998" cy="261.075" rx="3.539" ry="3.752"/><ellipse fill="#383838" cx="688.92" cy="297.967" rx="3.539" ry="3.752"/><ellipse fill="#383838" cx="682.432" cy="305.47" rx="3.539" ry="3.752"/><ellipse fill="#383838" cx="695.998" cy="305.47" rx="3.539" ry="3.752"/><ellipse fill="#383838" cx="682.432" cy="290.463" rx="3.539" ry="3.752"/><ellipse fill="#383838" cx="695.998" cy="290.463" rx="3.539" ry="3.752"/><ellipse fill="#383838" cx="688.92" cy="341.736" rx="3.539" ry="3.752"/><ellipse fill="#383838" cx="688.92" cy="327.355" rx="3.539" ry="3.752"/><ellipse fill="#383838" cx="682.432" cy="334.858" rx="3.539" ry="3.752"/><ellipse fill="#383838" cx="668.276" cy="334.858" rx="3.539" ry="3.752"/><ellipse fill="#383838" cx="654.71" cy="334.858" rx="3.539" ry="3.752"/><ellipse fill="#383838" cx="695.998" cy="334.858" rx="3.539" ry="3.752"/><ellipse fill="#383838" cx="640.554" cy="334.858" rx="3.539" ry="3.752"/><ellipse fill="#383838" cx="612.832" cy="334.858" rx="3.539" ry="3.752"/><ellipse fill="#383838" cx="626.988" cy="334.858" rx="3.539" ry="3.752"/><ellipse fill="#383838" cx="682.432" cy="319.852" rx="3.539" ry="3.752"/><ellipse fill="#383838" cx="695.998" cy="319.852" rx="3.539" ry="3.752"/><ellipse fill="#383838" cx="682.432" cy="349.24" rx="3.539" ry="3.752"/><ellipse fill="#383838" cx="661.198" cy="239.191" rx="3.539" ry="3.752"/><ellipse fill="#383838" cx="668.276" cy="246.694" rx="3.539" ry="3.752"/><path d="M661.788 286.712c1.18 0 2.95-1.25 3.54-2.5v-1.877c-.59-1.876-1.77-3.127-3.54-3.127s-2.95 1.25-3.54 3.127v.625c0 2.5 1.18 3.752 3.54 3.752z" fill="#383838"/><ellipse fill="#383838" cx="661.198" cy="268.579" rx="3.539" ry="3.752"/><ellipse fill="#383838" cx="654.71" cy="276.082" rx="3.539" ry="3.752"/><ellipse fill="#383838" cx="668.276" cy="276.082" rx="3.539" ry="3.752"/><ellipse fill="#383838" cx="661.198" cy="297.967" rx="3.539" ry="3.752"/><ellipse fill="#383838" cx="661.198" cy="312.348" rx="3.539" ry="3.752"/><ellipse fill="#383838" cx="661.198" cy="327.355" rx="3.539" ry="3.752"/><ellipse fill="#383838" cx="668.276" cy="305.47" rx="3.539" ry="3.752"/><ellipse fill="#383838" cx="668.276" cy="319.852" rx="3.539" ry="3.752"/><ellipse fill="#383838" cx="654.71" cy="290.463" rx="3.539" ry="3.752"/><ellipse fill="#383838" cx="668.276" cy="290.463" rx="3.539" ry="3.752"/><ellipse fill="#383838" cx="633.476" cy="297.967" rx="3.539" ry="3.752"/><ellipse fill="#383838" cx="640.554" cy="290.463" rx="3.539" ry="3.752"/><path d="M637.015 252.947c-.59-1.876-1.77-3.127-3.54-3.127-1.768 0-2.948 1.25-3.538 3.127v.625c0 1.876 1.77 3.752 3.54 3.752s3.538-1.876 3.538-3.752v-.625z" fill="#383838"/><ellipse fill="#383838" cx="647.632" cy="239.191" rx="3.539" ry="3.752"/><ellipse fill="#383838" cx="633.476" cy="239.191" rx="3.539" ry="3.752"/><ellipse fill="#383838" cx="640.554" cy="246.694" rx="3.539" ry="3.752"/><ellipse fill="#383838" cx="626.988" cy="231.687" rx="3.539" ry="3.752"/><ellipse fill="#383838" cx="640.554" cy="231.687" rx="3.539" ry="3.752"/><path d="M647.632 286.712c1.77 0 3.54-1.876 3.54-3.752v-.625c-.59-1.876-1.77-3.127-3.54-3.127s-2.95 1.25-3.54 3.127v.625c0 2.5 1.77 3.752 3.54 3.752zM647.632 301.718c1.77 0 3.54-1.875 3.54-3.75v-.626c-.59-1.876-1.77-3.127-3.54-3.127s-2.95 1.25-3.54 3.127v.625c0 1.876 1.77 3.75 3.54 3.75zM619.91 301.718c1.77 0 3.54-1.875 3.54-3.75v-.626c-.59-1.876-1.77-3.127-3.54-3.127s-2.95 1.25-3.54 3.127v.625c0 1.876 1.77 3.75 3.54 3.75z" fill="#383838"/><ellipse fill="#383838" cx="654.71" cy="305.47" rx="3.539" ry="3.752"/><ellipse fill="#383838" cx="633.476" cy="312.348" rx="3.539" ry="3.752"/><ellipse fill="#383838" cx="626.988" cy="305.47" rx="3.539" ry="3.752"/><ellipse fill="#383838" cx="640.554" cy="305.47" rx="3.539" ry="3.752"/><ellipse fill="#383838" cx="612.832" cy="305.47" rx="3.539" ry="3.752"/><path d="M647.632 316.1c1.77 0 3.54-1.876 3.54-3.752v-.625c-.59-1.876-1.77-3.126-3.54-3.126s-2.95 1.25-3.54 3.126v.625c0 2.5 1.77 3.752 3.54 3.752zM623.45 311.723c-.59-1.876-1.77-3.126-3.54-3.126s-2.95 1.25-3.54 3.126v.625c0 1.876 1.77 3.752 3.54 3.752s3.54-1.876 3.54-3.752v-.625z" fill="#383838"/><ellipse fill="#383838" cx="654.71" cy="319.852" rx="3.539" ry="3.752"/><ellipse fill="#383838" cx="633.476" cy="327.355" rx="3.539" ry="3.752"/><ellipse fill="#383838" cx="626.988" cy="319.852" rx="3.539" ry="3.752"/><ellipse fill="#383838" cx="640.554" cy="319.852" rx="3.539" ry="3.752"/><ellipse fill="#383838" cx="612.832" cy="319.852" rx="3.539" ry="3.752"/><path d="M651.17 326.104c-.59-1.876-1.768-3.126-3.538-3.126-1.77 0-2.95 1.25-3.54 3.126v.626c0 1.875 1.77 3.75 3.54 3.75s3.54-1.875 3.54-3.75v-.626zM619.91 331.107c1.77 0 3.54-1.876 3.54-3.752v-.625c-.59-1.876-1.77-3.127-3.54-3.127s-2.95 1.25-3.54 3.127v.625c0 1.876 1.77 3.752 3.54 3.752z" fill="#383838"/><ellipse fill="#383838" cx="626.988" cy="261.075" rx="3.539" ry="3.752"/><path d="M606.344 257.324c1.18 0 2.95-1.25 2.95-2.5v-1.877c-.59-1.876-1.77-3.127-3.54-3.127s-2.95 1.25-3.54 3.127v.625c.59 2.5 1.77 3.752 4.13 3.752z" fill="#383838"/><ellipse fill="#383838" cx="599.266" cy="246.694" rx="3.539" ry="3.752"/><ellipse fill="#383838" cx="612.832" cy="246.694" rx="3.539" ry="3.752"/><ellipse fill="#383838" cx="612.832" cy="231.687" rx="3.539" ry="3.752"/><ellipse fill="#383838" cx="599.266" cy="261.075" rx="3.539" ry="3.752"/><ellipse fill="#383838" cx="612.832" cy="261.075" rx="3.539" ry="3.752"/><path d="M595.727 252.947c-.59-1.876-1.77-3.127-3.54-3.127-1.768 0-2.948 1.25-3.538 3.127v.625c0 1.876 1.77 3.752 3.538 3.752 1.77 0 3.54-1.876 3.54-3.752v-.625z" fill="#383838"/><ellipse fill="#383838" cx="592.188" cy="239.191" rx="3.539" ry="3.752"/><ellipse fill="#383838" cx="585.7" cy="246.694" rx="3.539" ry="3.752"/><ellipse fill="#383838" cx="585.11" cy="231.687" rx="3.539" ry="3.752"/><path d="M671.815 253.572c0 1.876 1.77 3.752 3.54 3.752s3.538-1.876 3.538-3.752v-.625c-.59-1.876-1.77-3.127-3.54-3.127-1.768 0-2.948 1.25-3.538 3.127v.625z" fill="#383838"/><ellipse fill="#383838" cx="675.354" cy="239.191" rx="3.539" ry="3.752"/><path d="M623.45 252.947c-.59-1.876-1.77-3.127-3.54-3.127s-2.95 1.25-3.54 3.127v.625c0 1.876 1.77 3.752 3.54 3.752s3.54-1.876 3.54-3.752v-.625z" fill="#383838"/><ellipse fill="#383838" cx="619.91" cy="239.191" rx="3.539" ry="3.752"/><path d="M675.354 286.712c1.77 0 3.54-1.876 3.54-3.752v-.625c-.59-1.876-1.77-3.127-3.54-3.127s-2.95 1.25-3.54 3.127v.625c0 2.5 1.77 3.752 3.54 3.752z" fill="#383838"/><ellipse fill="#383838" cx="675.354" cy="297.967" rx="3.539" ry="3.752"/><ellipse fill="#383838" cx="675.354" cy="327.355" rx="3.539" ry="3.752"/><ellipse fill="#383838" cx="675.354" cy="312.348" rx="3.539" ry="3.752"/><ellipse fill="#383838" cx="703.076" cy="312.348" rx="3.539" ry="3.752"/><ellipse fill="#383838" cx="688.92" cy="312.348" rx="3.539" ry="3.752"/><ellipse fill="#383838" cx="661.198" cy="341.736" rx="3.539" ry="3.752"/><ellipse fill="#383838" cx="668.276" cy="349.24" rx="3.539" ry="3.752"/><ellipse fill="#383838" cx="619.91" cy="341.736" rx="3.539" ry="3.752"/><ellipse fill="#383838" cx="606.344" cy="341.736" rx="3.539" ry="3.752"/><ellipse fill="#383838" cx="682.432" cy="70.366" rx="3.539" ry="3.752"/><ellipse fill="#383838" cx="682.432" cy="55.359" rx="3.539" ry="3.752"/><ellipse fill="#383838" cx="682.432" cy="84.747" rx="3.539" ry="3.752"/><ellipse fill="#383838" cx="612.832" cy="158.53" rx="3.539" ry="3.752"/><ellipse fill="#383838" cx="599.266" cy="158.53" rx="3.539" ry="3.752"/><ellipse fill="#383838" cx="585.11" cy="158.53" rx="3.539" ry="3.752"/><ellipse fill="#383838" cx="626.988" cy="158.53" rx="3.539" ry="3.752"/><ellipse fill="#383838" cx="661.198" cy="62.862" rx="3.539" ry="3.752"/><ellipse fill="#383838" cx="668.276" cy="70.366" rx="3.539" ry="3.752"/><ellipse fill="#383838" cx="654.71" cy="55.359" rx="3.539" ry="3.752"/><ellipse fill="#383838" cx="668.276" cy="55.359" rx="3.539" ry="3.752"/><path d="M661.788 103.505c-1.77 0-2.95 1.25-3.54 3.127v.625c0 1.876 1.77 3.752 3.54 3.752 1.18 0 2.95-1.252 3.54-2.502v-1.876c-.59-1.876-2.36-3.127-3.54-3.127z" fill="#383838"/><ellipse fill="#383838" cx="654.71" cy="99.754" rx="3.539" ry="3.752"/><ellipse fill="#383838" cx="661.198" cy="121.638" rx="3.539" ry="3.752"/><ellipse fill="#383838" cx="661.198" cy="136.02" rx="3.539" ry="3.752"/><ellipse fill="#383838" cx="654.71" cy="114.135" rx="3.539" ry="3.752"/><path d="M634.066 103.505c-1.77 0-2.95 1.25-3.54 3.127v.625c0 1.876 1.77 3.752 3.54 3.752 1.18 0 2.95-1.252 2.95-2.502v-1.876c0-1.876-1.77-3.127-2.95-3.127z" fill="#383838"/><ellipse fill="#383838" cx="633.476" cy="121.638" rx="3.539" ry="3.752"/><ellipse fill="#383838" cx="626.988" cy="114.135" rx="3.539" ry="3.752"/><path d="M606.344 103.505c-1.77 0-2.95 1.25-3.54 3.127v.625c0 1.876 1.77 3.752 3.54 3.752 1.18 0 2.95-1.252 2.95-2.502v-1.876c0-1.876-1.77-3.127-2.95-3.127zM588.65 106.632c0 1.876 1.77 3.75 3.538 3.75 1.18 0 2.36-1.25 2.95-2.5v-1.876c-.59-1.875-1.77-3.126-3.54-3.126s-2.95 1.25-3.538 3.126l.59.626z" fill="#383838"/><ellipse fill="#383838" cx="606.344" cy="121.638" rx="3.539" ry="3.752"/><ellipse fill="#383838" cx="592.188" cy="121.638" rx="3.539" ry="3.752"/><ellipse fill="#383838" cx="599.266" cy="114.135" rx="3.539" ry="3.752"/><ellipse fill="#383838" cx="585.11" cy="114.135" rx="3.539" ry="3.752"/><path d="M634.066 74.117c-1.77 0-2.95 1.25-3.54 3.127v.625c0 1.875 1.77 3.75 3.54 3.75s3.54-1.875 3.54-3.75v-.626c-.59-1.876-2.36-3.127-3.54-3.127z" fill="#383838"/><ellipse fill="#383838" cx="633.476" cy="62.862" rx="3.539" ry="3.752"/><ellipse fill="#383838" cx="626.988" cy="70.366" rx="3.539" ry="3.752"/><ellipse fill="#383838" cx="626.988" cy="55.359" rx="3.539" ry="3.752"/><ellipse fill="#383838" cx="640.554" cy="55.359" rx="3.539" ry="3.752"/><ellipse fill="#383838" cx="647.632" cy="92.25" rx="3.539" ry="3.752"/><ellipse fill="#383838" cx="633.476" cy="92.25" rx="3.539" ry="3.752"/><ellipse fill="#383838" cx="640.554" cy="99.754" rx="3.539" ry="3.752"/><ellipse fill="#383838" cx="626.988" cy="99.754" rx="3.539" ry="3.752"/><path d="M616.37 106.632c0 1.876 1.77 3.75 3.54 3.75s3.54-1.874 3.54-3.75v-.626c-.59-1.875-1.77-3.126-3.54-3.126s-2.95 1.25-3.54 3.126v.626z" fill="#383838"/><ellipse fill="#383838" cx="654.71" cy="129.142" rx="3.539" ry="3.752"/><ellipse fill="#383838" cx="640.554" cy="129.142" rx="3.539" ry="3.752"/><ellipse fill="#383838" cx="606.344" cy="136.02" rx="3.539" ry="3.752"/><ellipse fill="#383838" cx="592.188" cy="136.02" rx="3.539" ry="3.752"/><ellipse fill="#383838" cx="599.266" cy="129.142" rx="3.539" ry="3.752"/><ellipse fill="#383838" cx="612.832" cy="129.142" rx="3.539" ry="3.752"/><ellipse fill="#383838" cx="585.11" cy="129.142" rx="3.539" ry="3.752"/><path d="M647.632 132.893c-1.77 0-2.95 1.25-3.54 3.127v.625c0 1.876 1.77 3.752 3.54 3.752s3.54-1.876 3.54-3.752v-.625c-.59-1.876-1.77-3.127-3.54-3.127zM623.45 135.395c-.59-1.876-1.77-3.127-3.54-3.127s-2.95 1.25-3.54 3.127v.625c0 1.876 1.77 3.75 3.54 3.75s3.54-1.874 3.54-3.75v-.625z" fill="#383838"/><ellipse fill="#383838" cx="654.71" cy="143.523" rx="3.539" ry="3.752"/><ellipse fill="#383838" cx="626.988" cy="143.523" rx="3.539" ry="3.752"/><ellipse fill="#383838" cx="606.344" cy="151.026" rx="3.539" ry="3.752"/><ellipse fill="#383838" cx="592.188" cy="151.026" rx="3.539" ry="3.752"/><ellipse fill="#383838" cx="599.266" cy="143.523" rx="3.539" ry="3.752"/><ellipse fill="#383838" cx="612.832" cy="143.523" rx="3.539" ry="3.752"/><path d="M619.91 154.778c1.77 0 3.54-1.876 3.54-3.75v-.627c-.59-1.875-1.77-3.125-3.54-3.125s-2.95 1.25-3.54 3.126v.626c0 1.876 1.77 3.752 3.54 3.752z" fill="#383838"/><ellipse fill="#383838" cx="619.91" cy="92.25" rx="3.539" ry="3.752"/><ellipse fill="#383838" cx="612.832" cy="99.754" rx="3.539" ry="3.752"/><ellipse fill="#383838" cx="599.266" cy="99.754" rx="3.539" ry="3.752"/><ellipse fill="#383838" cx="585.11" cy="99.754" rx="3.539" ry="3.752"/><ellipse fill="#383838" cx="626.988" cy="84.747" rx="3.539" ry="3.752"/><ellipse fill="#383838" cx="640.554" cy="84.747" rx="3.539" ry="3.752"/><path d="M606.344 74.117c-1.77 0-2.95 1.25-3.54 3.127v.625c0 1.875 1.77 3.75 3.54 3.75 1.18 0 2.95-1.25 2.95-2.5v-1.876c0-1.876-1.77-3.127-2.95-3.127z" fill="#383838"/><ellipse fill="#383838" cx="606.344" cy="62.862" rx="3.539" ry="3.752"/><ellipse fill="#383838" cx="599.266" cy="70.366" rx="3.539" ry="3.752"/><ellipse fill="#383838" cx="612.832" cy="70.366" rx="3.539" ry="3.752"/><ellipse fill="#383838" cx="599.266" cy="55.359" rx="3.539" ry="3.752"/><ellipse fill="#383838" cx="612.832" cy="55.359" rx="3.539" ry="3.752"/><ellipse fill="#383838" cx="606.344" cy="92.25" rx="3.539" ry="3.752"/><ellipse fill="#383838" cx="599.266" cy="84.747" rx="3.539" ry="3.752"/><ellipse fill="#383838" cx="585.11" cy="84.747" rx="3.539" ry="3.752"/><ellipse fill="#383838" cx="612.832" cy="84.747" rx="3.539" ry="3.752"/><path d="M588.65 77.87c0 1.875 1.77 3.75 3.538 3.75 1.77 0 3.54-1.875 3.54-3.75v-.626c-.59-1.876-1.77-3.127-3.54-3.127s-2.95 1.25-3.54 3.127v.625z" fill="#383838"/><ellipse fill="#383838" cx="592.188" cy="62.862" rx="3.539" ry="3.752"/><ellipse fill="#383838" cx="585.11" cy="70.366" rx="3.539" ry="3.752"/><ellipse fill="#383838" cx="585.11" cy="55.359" rx="3.539" ry="3.752"/><ellipse fill="#383838" cx="592.188" cy="92.25" rx="3.539" ry="3.752"/><path d="M671.815 77.87c0 1.875 1.77 3.75 3.54 3.75s3.538-1.875 3.538-3.75v-.626c-.59-1.876-1.77-3.127-3.54-3.127-1.768 0-2.948 1.25-3.538 3.127v.625z" fill="#383838"/><ellipse fill="#383838" cx="675.354" cy="62.862" rx="3.539" ry="3.752"/><path d="M616.37 77.87c0 1.875 1.77 3.75 3.54 3.75s3.54-1.875 3.54-3.75v-.626c-.59-1.876-1.77-3.127-3.54-3.127s-2.95 1.25-3.54 3.127v.625z" fill="#383838"/><ellipse fill="#383838" cx="619.91" cy="62.862" rx="3.539" ry="3.752"/><ellipse fill="#383838" cx="640.554" cy="187.918" rx="3.539" ry="3.752"/><ellipse fill="#383838" cx="640.554" cy="202.299" rx="3.539" ry="3.752"/><ellipse fill="#383838" cx="619.91" cy="165.408" rx="3.539" ry="3.752"/><ellipse fill="#383838" cx="619.91" cy="224.184" rx="3.539" ry="3.752"/><ellipse fill="#383838" cx="633.476" cy="180.415" rx="3.539" ry="3.752"/><ellipse fill="#383838" cx="633.476" cy="224.184" rx="3.539" ry="3.752"/><ellipse fill="#383838" cx="633.476" cy="194.796" rx="3.539" ry="3.752"/><ellipse fill="#383838" cx="612.832" cy="172.911" rx="3.539" ry="3.752"/><ellipse fill="#383838" cx="606.344" cy="165.408" rx="3.539" ry="3.752"/><ellipse fill="#383838" cx="592.188" cy="180.415" rx="3.539" ry="3.752"/><ellipse fill="#383838" cx="592.188" cy="165.408" rx="3.539" ry="3.752"/><ellipse fill="#383838" cx="592.188" cy="224.184" rx="3.539" ry="3.752"/><ellipse fill="#383838" cx="599.266" cy="187.918" rx="3.539" ry="3.752"/><ellipse fill="#383838" cx="599.266" cy="172.911" rx="3.539" ry="3.752"/><ellipse fill="#383838" cx="599.266" cy="202.299" rx="3.539" ry="3.752"/><ellipse fill="#383838" cx="592.188" cy="194.796" rx="3.539" ry="3.752"/><ellipse fill="#383838" cx="606.344" cy="194.796" rx="3.539" ry="3.752"/><ellipse fill="#383838" cx="585.11" cy="187.918" rx="3.539" ry="3.752"/><ellipse fill="#383838" cx="585.11" cy="172.911" rx="3.539" ry="3.752"/><ellipse fill="#383838" cx="585.11" cy="217.306" rx="3.539" ry="3.752"/><ellipse fill="#383838" cx="585.11" cy="202.299" rx="3.539" ry="3.752"/><ellipse fill="#383838" cx="405.213" cy="334.858" rx="3.539" ry="3.752"/><ellipse fill="#383838" cx="391.057" cy="334.858" rx="3.539" ry="3.752"/><ellipse fill="#383838" cx="460.657" cy="276.082" rx="3.539" ry="3.752"/><ellipse fill="#383838" cx="460.657" cy="290.463" rx="3.539" ry="3.752"/><ellipse fill="#383838" cx="440.012" cy="297.967" rx="3.539" ry="3.752"/><ellipse fill="#383838" cx="446.501" cy="290.463" rx="3.539" ry="3.752"/><path d="M415.24 282.335c-.59-1.876-1.77-3.127-3.54-3.127s-2.948 1.25-3.538 3.127v.625c0 1.876 1.77 3.752 3.54 3.752 1.178 0 2.358-1.25 2.948-2.5v-1.252c.59 0 .59 0 .59-.625zM401.674 282.335c-.59-1.876-1.77-3.127-3.54-3.127s-2.95 1.25-3.538 3.127v.625c0 1.876 1.77 3.752 3.54 3.752 1.178 0 2.948-1.25 3.538-2.5v-1.252-.625z" fill="#383838"/><ellipse fill="#383838" cx="412.291" cy="297.967" rx="3.539" ry="3.752"/><ellipse fill="#383838" cx="398.135" cy="297.967" rx="3.539" ry="3.752"/><ellipse fill="#383838" cx="405.213" cy="290.463" rx="3.539" ry="3.752"/><ellipse fill="#383838" cx="418.779" cy="290.463" rx="3.539" ry="3.752"/><ellipse fill="#383838" cx="391.057" cy="290.463" rx="3.539" ry="3.752"/><ellipse fill="#383838" cx="440.012" cy="239.191" rx="3.539" ry="3.752"/><ellipse fill="#383838" cx="432.935" cy="246.694" rx="3.539" ry="3.752"/><ellipse fill="#383838" cx="432.935" cy="231.687" rx="3.539" ry="3.752"/><ellipse fill="#383838" cx="446.501" cy="231.687" rx="3.539" ry="3.752"/><path d="M453.58 286.712c1.768 0 3.538-1.876 3.538-3.752v-.625c-.59-1.876-1.77-3.127-3.54-3.127s-2.95 1.25-3.538 3.127v.625c0 2.5 1.77 3.752 3.54 3.752zM453.58 294.215c-1.77 0-2.95 1.25-3.54 3.127v.625c0 1.876 1.77 3.75 3.54 3.75 1.768 0 3.538-1.874 3.538-3.75v-.625c-.59-1.876-1.77-3.127-3.54-3.127z" fill="#383838"/><ellipse fill="#383838" cx="453.579" cy="268.579" rx="3.539" ry="3.752"/><ellipse fill="#383838" cx="432.935" cy="276.082" rx="3.539" ry="3.752"/><path d="M425.857 279.208c-1.77 0-2.95 1.25-3.54 3.127v.625c0 1.876 1.77 3.752 3.54 3.752s3.54-1.876 3.54-3.752v-.625c-.59-1.876-1.77-3.127-3.54-3.127z" fill="#383838"/><ellipse fill="#383838" cx="440.012" cy="312.348" rx="3.539" ry="3.752"/><ellipse fill="#383838" cx="446.501" cy="305.47" rx="3.539" ry="3.752"/><ellipse fill="#383838" cx="412.291" cy="312.348" rx="3.539" ry="3.752"/><ellipse fill="#383838" cx="398.135" cy="312.348" rx="3.539" ry="3.752"/><ellipse fill="#383838" cx="405.213" cy="305.47" rx="3.539" ry="3.752"/><ellipse fill="#383838" cx="418.779" cy="305.47" rx="3.539" ry="3.752"/><ellipse fill="#383838" cx="391.057" cy="305.47" rx="3.539" ry="3.752"/><ellipse fill="#383838" cx="412.291" cy="327.355" rx="3.539" ry="3.752"/><ellipse fill="#383838" cx="398.135" cy="327.355" rx="3.539" ry="3.752"/><ellipse fill="#383838" cx="405.213" cy="319.852" rx="3.539" ry="3.752"/><ellipse fill="#383838" cx="391.057" cy="319.852" rx="3.539" ry="3.752"/><ellipse fill="#383838" cx="425.857" cy="268.579" rx="3.539" ry="3.752"/><ellipse fill="#383838" cx="418.779" cy="276.082" rx="3.539" ry="3.752"/><ellipse fill="#383838" cx="405.213" cy="276.082" rx="3.539" ry="3.752"/><ellipse fill="#383838" cx="391.057" cy="276.082" rx="3.539" ry="3.752"/><ellipse fill="#383838" cx="432.935" cy="261.075" rx="3.539" ry="3.752"/><path d="M412.29 257.324c1.18 0 2.36-1.25 2.95-2.5v-1.877c-.59-1.876-1.77-3.127-3.54-3.127s-2.948 1.25-3.538 3.127v.625c.59 2.5 1.77 3.752 4.13 3.752z" fill="#383838"/><ellipse fill="#383838" cx="412.291" cy="239.191" rx="3.539" ry="3.752"/><ellipse fill="#383838" cx="405.213" cy="246.694" rx="3.539" ry="3.752"/><ellipse fill="#383838" cx="418.779" cy="246.694" rx="3.539" ry="3.752"/><ellipse fill="#383838" cx="405.213" cy="231.687" rx="3.539" ry="3.752"/><ellipse fill="#383838" cx="418.779" cy="231.687" rx="3.539" ry="3.752"/><ellipse fill="#383838" cx="412.291" cy="268.579" rx="3.539" ry="3.752"/><ellipse fill="#383838" cx="405.213" cy="261.075" rx="3.539" ry="3.752"/><ellipse fill="#383838" cx="391.057" cy="261.075" rx="3.539" ry="3.752"/><ellipse fill="#383838" cx="418.779" cy="261.075" rx="3.539" ry="3.752"/><path d="M398.135 257.324c1.77 0 3.54-1.876 3.54-3.752v-.625c-.59-1.876-1.77-3.127-3.54-3.127s-2.95 1.25-3.54 3.127v.625c0 2.5 1.77 3.752 3.54 3.752z" fill="#383838"/><ellipse fill="#383838" cx="398.135" cy="239.191" rx="3.539" ry="3.752"/><ellipse fill="#383838" cx="391.057" cy="246.694" rx="3.539" ry="3.752"/><ellipse fill="#383838" cx="391.057" cy="231.687" rx="3.539" ry="3.752"/><ellipse fill="#383838" cx="398.135" cy="268.579" rx="3.539" ry="3.752"/><path d="M429.396 252.947c-.59-1.876-1.77-3.127-3.54-3.127s-2.95 1.25-3.538 3.127v.625c0 1.876 1.77 3.752 3.54 3.752 1.768 0 3.538-1.876 3.538-3.752v-.625z" fill="#383838"/><ellipse fill="#383838" cx="425.857" cy="239.191" rx="3.539" ry="3.752"/><ellipse fill="#383838" cx="578.622" cy="62.862" rx="3.539" ry="3.752"/><ellipse fill="#383838" cx="571.544" cy="70.366" rx="3.539" ry="3.752"/><ellipse fill="#383838" cx="571.544" cy="55.359" rx="3.539" ry="3.752"/><path d="M581.57 106.006c-.588-1.875-1.768-3.126-3.538-3.126-1.77 0-2.95 1.25-3.538 3.126v.626c0 1.876 1.77 3.75 3.538 3.75 1.18 0 2.36-1.25 2.95-2.5v-1.25c.59 0 .59 0 .59-.626zM568.005 106.006c-.59-1.875-1.77-3.126-3.54-3.126-1.768 0-2.948 1.25-3.538 3.126v.626c0 1.876 1.77 3.75 3.54 3.75s3.538-1.874 3.538-3.75v-.626z" fill="#383838"/><ellipse fill="#383838" cx="578.622" cy="92.25" rx="3.539" ry="3.752"/><ellipse fill="#383838" cx="571.544" cy="99.754" rx="3.539" ry="3.752"/><ellipse fill="#383838" cx="571.544" cy="84.747" rx="3.539" ry="3.752"/><ellipse fill="#383838" cx="578.622" cy="121.638" rx="3.539" ry="3.752"/><ellipse fill="#383838" cx="571.544" cy="129.142" rx="3.539" ry="3.752"/><ellipse fill="#383838" cx="571.544" cy="114.135" rx="3.539" ry="3.752"/><path d="M578.622 162.282c-1.77 0-3.54 1.875-3.54 3.75 0 1.877 1.77 3.753 3.54 3.753 1.18 0 2.95-1.25 3.54-2.5v-1.252c-.59-2.5-1.77-3.75-3.54-3.75z" fill="#383838"/><ellipse fill="#383838" cx="564.466" cy="165.408" rx="3.539" ry="3.752"/><ellipse fill="#383838" cx="578.622" cy="151.026" rx="3.539" ry="3.752"/><ellipse fill="#383838" cx="564.466" cy="151.026" rx="3.539" ry="3.752"/><ellipse fill="#383838" cx="571.544" cy="158.53" rx="3.539" ry="3.752"/><ellipse fill="#383838" cx="571.544" cy="143.523" rx="3.539" ry="3.752"/><ellipse fill="#383838" cx="564.466" cy="62.862" rx="3.539" ry="3.752"/><ellipse fill="#383838" cx="550.9" cy="62.862" rx="3.539" ry="3.752"/><ellipse fill="#383838" cx="543.822" cy="70.366" rx="3.539" ry="3.752"/><ellipse fill="#383838" cx="557.388" cy="70.366" rx="3.539" ry="3.752"/><ellipse fill="#383838" cx="543.822" cy="55.359" rx="3.539" ry="3.752"/><path d="M550.9 110.383c1.77 0 3.54-1.875 3.54-3.75v-.627c-.59-1.875-1.77-3.126-3.54-3.126s-2.95 1.25-3.54 3.126v.626c0 2.5 1.18 3.75 3.54 3.75z" fill="#383838"/><ellipse fill="#383838" cx="564.466" cy="92.25" rx="3.539" ry="3.752"/><ellipse fill="#383838" cx="550.9" cy="92.25" rx="3.539" ry="3.752"/><ellipse fill="#383838" cx="543.822" cy="99.754" rx="3.539" ry="3.752"/><ellipse fill="#383838" cx="557.388" cy="99.754" rx="3.539" ry="3.752"/><ellipse fill="#383838" cx="543.822" cy="84.747" rx="3.539" ry="3.752"/><ellipse fill="#383838" cx="557.388" cy="84.747" rx="3.539" ry="3.752"/><ellipse fill="#383838" cx="564.466" cy="121.638" rx="3.539" ry="3.752"/><ellipse fill="#383838" cx="550.9" cy="121.638" rx="3.539" ry="3.752"/><ellipse fill="#383838" cx="543.822" cy="129.142" rx="3.539" ry="3.752"/><ellipse fill="#383838" cx="557.388" cy="129.142" rx="3.539" ry="3.752"/><ellipse fill="#383838" cx="543.822" cy="114.135" rx="3.539" ry="3.752"/><ellipse fill="#383838" cx="557.388" cy="114.135" rx="3.539" ry="3.752"/><ellipse fill="#383838" cx="550.9" cy="165.408" rx="3.539" ry="3.752"/><ellipse fill="#383838" cx="550.9" cy="151.026" rx="3.539" ry="3.752"/><ellipse fill="#383838" cx="543.822" cy="158.53" rx="3.539" ry="3.752"/><ellipse fill="#383838" cx="557.388" cy="158.53" rx="3.539" ry="3.752"/><ellipse fill="#383838" cx="543.822" cy="143.523" rx="3.539" ry="3.752"/><ellipse fill="#383838" cx="557.388" cy="143.523" rx="3.539" ry="3.752"/><ellipse fill="#383838" cx="543.822" cy="172.911" rx="3.539" ry="3.752"/><ellipse fill="#383838" cx="557.388" cy="172.911" rx="3.539" ry="3.752"/><ellipse fill="#383838" cx="571.544" cy="172.911" rx="3.539" ry="3.752"/><path d="M523.178 74.117c-1.77 0-2.95 1.25-3.54 3.127v.625c0 1.875 1.77 3.75 3.54 3.75 1.18 0 2.95-1.25 3.54-2.5v-1.876c-.59-1.876-1.77-3.127-3.54-3.127z" fill="#383838"/><ellipse fill="#383838" cx="523.178" cy="62.862" rx="3.539" ry="3.752"/><ellipse fill="#383838" cx="516.1" cy="70.366" rx="3.539" ry="3.752"/><ellipse fill="#383838" cx="529.667" cy="70.366" rx="3.539" ry="3.752"/><ellipse fill="#383838" cx="516.1" cy="55.359" rx="3.539" ry="3.752"/><ellipse fill="#383838" cx="529.667" cy="55.359" rx="3.539" ry="3.752"/><path d="M526.717 106.006c-.59-1.875-1.77-3.126-3.54-3.126-1.768 0-2.948 1.25-3.538 3.126v.626c0 1.876 1.77 3.75 3.538 3.75 1.18 0 2.95-1.25 3.54-2.5v-1.25-.626z" fill="#383838"/><ellipse fill="#383838" cx="523.178" cy="92.25" rx="3.539" ry="3.752"/><ellipse fill="#383838" cx="516.1" cy="99.754" rx="3.539" ry="3.752"/><ellipse fill="#383838" cx="529.667" cy="99.754" rx="3.539" ry="3.752"/><ellipse fill="#383838" cx="516.1" cy="84.747" rx="3.539" ry="3.752"/><ellipse fill="#383838" cx="529.667" cy="84.747" rx="3.539" ry="3.752"/><ellipse fill="#383838" cx="523.178" cy="121.638" rx="3.539" ry="3.752"/><ellipse fill="#383838" cx="509.022" cy="121.638" rx="3.539" ry="3.752"/><ellipse fill="#383838" cx="516.1" cy="129.142" rx="3.539" ry="3.752"/><ellipse fill="#383838" cx="529.667" cy="129.142" rx="3.539" ry="3.752"/><ellipse fill="#383838" cx="516.1" cy="114.135" rx="3.539" ry="3.752"/><ellipse fill="#383838" cx="529.667" cy="114.135" rx="3.539" ry="3.752"/><path d="M523.178 162.282c-1.77 0-3.54 1.875-3.54 3.75 0 1.877 1.77 3.753 3.54 3.753 1.18 0 2.95-1.25 3.54-2.5v-1.252c-.59-2.5-1.77-3.75-3.54-3.75z" fill="#383838"/><ellipse fill="#383838" cx="509.022" cy="165.408" rx="3.539" ry="3.752"/><ellipse fill="#383838" cx="523.178" cy="151.026" rx="3.539" ry="3.752"/><ellipse fill="#383838" cx="509.022" cy="151.026" rx="3.539" ry="3.752"/><ellipse fill="#383838" cx="516.1" cy="158.53" rx="3.539" ry="3.752"/><ellipse fill="#383838" cx="529.667" cy="158.53" rx="3.539" ry="3.752"/><ellipse fill="#383838" cx="516.1" cy="143.523" rx="3.539" ry="3.752"/><ellipse fill="#383838" cx="529.667" cy="143.523" rx="3.539" ry="3.752"/><ellipse fill="#383838" cx="523.178" cy="180.415" rx="3.539" ry="3.752"/><ellipse fill="#383838" cx="516.1" cy="187.918" rx="3.539" ry="3.752"/><ellipse fill="#383838" cx="516.1" cy="172.911" rx="3.539" ry="3.752"/><ellipse fill="#383838" cx="529.667" cy="172.911" rx="3.539" ry="3.752"/><ellipse fill="#383838" cx="529.667" cy="202.299" rx="3.539" ry="3.752"/><path d="M509.022 74.117c-1.77 0-2.95 1.25-3.538 3.127v.625c0 1.875 1.77 3.75 3.538 3.75 1.77 0 3.54-1.875 3.54-3.75v-.626c-.59-1.876-1.77-3.127-3.54-3.127zM491.917 77.87c0 1.875 1.77 3.75 3.54 3.75s3.538-1.875 3.538-3.75v-.626c-.59-1.876-1.77-3.127-3.54-3.127-1.768 0-2.948 1.25-3.538 3.127v.625z" fill="#383838"/><ellipse fill="#383838" cx="509.022" cy="62.862" rx="3.539" ry="3.752"/><ellipse fill="#383838" cx="495.456" cy="62.862" rx="3.539" ry="3.752"/><ellipse fill="#383838" cx="488.378" cy="70.366" rx="3.539" ry="3.752"/><ellipse fill="#383838" cx="501.945" cy="70.366" rx="3.539" ry="3.752"/><ellipse fill="#383838" cx="488.378" cy="55.359" rx="3.539" ry="3.752"/><ellipse fill="#383838" cx="501.945" cy="55.359" rx="3.539" ry="3.752"/><path d="M505.484 106.006v.626c0 1.876 1.77 3.75 3.538 3.75 1.77 0 3.54-1.874 3.54-3.75v-.626c-.59-1.875-1.77-3.126-3.54-3.126-1.77.625-2.95 1.876-3.538 3.126zM495.456 110.383c1.77 0 3.54-1.875 3.54-3.75v-.627c-.59-1.875-1.77-3.126-3.54-3.126s-2.95 1.25-3.54 3.126v.626c0 2.5 1.18 3.75 3.54 3.75z" fill="#383838"/><ellipse fill="#383838" cx="509.022" cy="92.25" rx="3.539" ry="3.752"/><ellipse fill="#383838" cx="495.456" cy="92.25" rx="3.539" ry="3.752"/><ellipse fill="#383838" cx="488.378" cy="99.754" rx="3.539" ry="3.752"/><ellipse fill="#383838" cx="501.945" cy="99.754" rx="3.539" ry="3.752"/><ellipse fill="#383838" cx="488.378" cy="84.747" rx="3.539" ry="3.752"/><ellipse fill="#383838" cx="501.945" cy="84.747" rx="3.539" ry="3.752"/><ellipse fill="#383838" cx="495.456" cy="121.638" rx="3.539" ry="3.752"/><ellipse fill="#383838" cx="488.378" cy="129.142" rx="3.539" ry="3.752"/><ellipse fill="#383838" cx="501.945" cy="129.142" rx="3.539" ry="3.752"/><ellipse fill="#383838" cx="488.378" cy="114.135" rx="3.539" ry="3.752"/><ellipse fill="#383838" cx="501.945" cy="114.135" rx="3.539" ry="3.752"/><ellipse fill="#383838" cx="495.456" cy="151.026" rx="3.539" ry="3.752"/><ellipse fill="#383838" cx="488.378" cy="158.53" rx="3.539" ry="3.752"/><ellipse fill="#383838" cx="501.945" cy="158.53" rx="3.539" ry="3.752"/><ellipse fill="#383838" cx="446.501" cy="158.53" rx="3.539" ry="3.752"/><ellipse fill="#383838" cx="405.213" cy="158.53" rx="3.539" ry="3.752"/><ellipse fill="#383838" cx="391.057" cy="158.53" rx="3.539" ry="3.752"/><ellipse fill="#383838" cx="432.935" cy="158.53" rx="3.539" ry="3.752"/><ellipse fill="#383838" cx="488.378" cy="143.523" rx="3.539" ry="3.752"/><ellipse fill="#383838" cx="501.945" cy="143.523" rx="3.539" ry="3.752"/><path d="M464.195 77.87c0 1.875 1.77 3.75 3.54 3.75 1.18 0 2.95-1.25 2.95-2.5v-1.876c-.59-1.876-1.77-3.127-3.54-3.127s-2.95 1.25-3.54 3.127c.59 0 .59 0 .59.625z" fill="#383838"/><ellipse fill="#383838" cx="467.734" cy="62.862" rx="3.539" ry="3.752"/><ellipse fill="#383838" cx="460.657" cy="70.366" rx="3.539" ry="3.752"/><ellipse fill="#383838" cx="474.223" cy="70.366" rx="3.539" ry="3.752"/><ellipse fill="#383838" cx="460.657" cy="55.359" rx="3.539" ry="3.752"/><ellipse fill="#383838" cx="474.223" cy="55.359" rx="3.539" ry="3.752"/><path d="M470.684 106.006c-.59-1.875-1.77-3.126-3.54-3.126s-2.95 1.25-3.538 3.126v.626c0 1.876 1.77 3.75 3.54 3.75 1.178 0 2.948-1.25 2.948-2.5v-1.25c.59 0 .59 0 .59-.626z" fill="#383838"/><ellipse fill="#383838" cx="467.734" cy="92.25" rx="3.539" ry="3.752"/><ellipse fill="#383838" cx="460.657" cy="99.754" rx="3.539" ry="3.752"/><ellipse fill="#383838" cx="474.223" cy="99.754" rx="3.539" ry="3.752"/><ellipse fill="#383838" cx="460.657" cy="84.747" rx="3.539" ry="3.752"/><ellipse fill="#383838" cx="474.223" cy="84.747" rx="3.539" ry="3.752"/><ellipse fill="#383838" cx="467.734" cy="121.638" rx="3.539" ry="3.752"/><ellipse fill="#383838" cx="467.734" cy="136.02" rx="3.539" ry="3.752"/><ellipse fill="#383838" cx="467.734" cy="151.026" rx="3.539" ry="3.752"/><ellipse fill="#383838" cx="474.223" cy="129.142" rx="3.539" ry="3.752"/><ellipse fill="#383838" cx="474.223" cy="143.523" rx="3.539" ry="3.752"/><ellipse fill="#383838" cx="460.657" cy="114.135" rx="3.539" ry="3.752"/><ellipse fill="#383838" cx="474.223" cy="114.135" rx="3.539" ry="3.752"/><path d="M442.962 106.006c-.59-1.875-1.77-3.126-3.54-3.126s-2.948 1.25-3.538 3.126v.626c0 1.876 1.77 3.75 3.54 3.75 1.178 0 2.948-1.25 2.948-2.5v-1.25c.59 0 .59 0 .59-.626z" fill="#383838"/><ellipse fill="#383838" cx="440.012" cy="121.638" rx="3.539" ry="3.752"/><ellipse fill="#383838" cx="432.935" cy="114.135" rx="3.539" ry="3.752"/><ellipse fill="#383838" cx="446.501" cy="114.135" rx="3.539" ry="3.752"/><path d="M412.29 103.505c-1.77 0-2.95 1.25-3.538 3.127v.625c0 1.876 1.77 3.752 3.54 3.752 1.178 0 2.358-1.252 2.948-2.502v-1.876c0-1.876-1.18-3.127-2.95-3.127zM398.135 103.505c-1.77 0-2.95 1.25-3.54 3.127v.625c0 1.876 1.77 3.752 3.54 3.752 1.18 0 2.95-1.252 3.54-2.502v-1.876c0-1.876-1.77-3.127-3.54-3.127z" fill="#383838"/><ellipse fill="#383838" cx="412.291" cy="121.638" rx="3.539" ry="3.752"/><ellipse fill="#383838" cx="398.135" cy="121.638" rx="3.539" ry="3.752"/><ellipse fill="#383838" cx="405.213" cy="114.135" rx="3.539" ry="3.752"/><ellipse fill="#383838" cx="418.779" cy="114.135" rx="3.539" ry="3.752"/><ellipse fill="#383838" cx="391.057" cy="114.135" rx="3.539" ry="3.752"/><path d="M453.58 74.117c-1.77 0-2.95 1.25-3.54 3.127v.625c0 1.875 1.77 3.75 3.54 3.75 1.768 0 3.538-1.875 3.538-3.75v-.626c-.59-1.876-1.77-3.127-3.54-3.127zM440.012 74.117c-1.77 0-2.95 1.25-3.538 3.127v.625c0 1.875 1.77 3.75 3.538 3.75 1.77 0 3.54-1.875 3.54-3.75v-.626c-.59-1.876-1.77-3.127-3.54-3.127z" fill="#383838"/><ellipse fill="#383838" cx="453.579" cy="62.862" rx="3.539" ry="3.752"/><ellipse fill="#383838" cx="440.012" cy="62.862" rx="3.539" ry="3.752"/><ellipse fill="#383838" cx="432.935" cy="70.366" rx="3.539" ry="3.752"/><ellipse fill="#383838" cx="446.501" cy="70.366" rx="3.539" ry="3.752"/><ellipse fill="#383838" cx="432.935" cy="55.359" rx="3.539" ry="3.752"/><ellipse fill="#383838" cx="446.501" cy="55.359" rx="3.539" ry="3.752"/><path d="M453.58 110.383c1.768 0 3.538-1.875 3.538-3.75v-.627c-.59-1.875-1.77-3.126-3.54-3.126s-2.95 1.25-3.538 3.126v.626c0 2.5 1.77 3.75 3.54 3.75zM457.118 121.013c-.59-1.876-1.77-3.126-3.54-3.126s-2.95 1.25-3.538 3.126v.625c0 1.876 1.77 3.752 3.54 3.752 1.768 0 3.538-1.876 3.538-3.752v-.625z" fill="#383838"/><ellipse fill="#383838" cx="453.579" cy="92.25" rx="3.539" ry="3.752"/><ellipse fill="#383838" cx="440.012" cy="92.25" rx="3.539" ry="3.752"/><ellipse fill="#383838" cx="446.501" cy="99.754" rx="3.539" ry="3.752"/><ellipse fill="#383838" cx="432.935" cy="99.754" rx="3.539" ry="3.752"/><path d="M422.318 106.632c0 1.876 1.77 3.75 3.54 3.75 1.768 0 3.538-1.874 3.538-3.75v-.626c-.59-1.875-1.77-3.126-3.54-3.126s-2.95 1.25-3.538 3.126v.626zM429.396 121.013c-.59-1.876-1.77-3.126-3.54-3.126s-2.95 1.25-3.538 3.126v.625c0 1.876 1.77 3.752 3.54 3.752 1.768 0 3.538-1.876 3.538-3.752v-.625z" fill="#383838"/><ellipse fill="#383838" cx="460.657" cy="129.142" rx="3.539" ry="3.752"/><ellipse fill="#383838" cx="440.012" cy="136.02" rx="3.539" ry="3.752"/><ellipse fill="#383838" cx="432.935" cy="129.142" rx="3.539" ry="3.752"/><ellipse fill="#383838" cx="446.501" cy="129.142" rx="3.539" ry="3.752"/><ellipse fill="#383838" cx="418.779" cy="129.142" rx="3.539" ry="3.752"/><path d="M453.58 139.77c1.768 0 3.538-1.874 3.538-3.75v-.625c-.59-1.876-1.77-3.127-3.54-3.127s-2.95 1.25-3.538 3.127v.625c0 2.5 1.77 3.75 3.54 3.75zM425.857 139.77c1.77 0 3.54-1.874 3.54-3.75v-.625c-.59-1.876-1.77-3.127-3.54-3.127s-2.95 1.25-3.54 3.127v.625c0 2.5 1.77 3.75 3.54 3.75z" fill="#383838"/><ellipse fill="#383838" cx="460.657" cy="143.523" rx="3.539" ry="3.752"/><ellipse fill="#383838" cx="440.012" cy="151.026" rx="3.539" ry="3.752"/><ellipse fill="#383838" cx="432.935" cy="143.523" rx="3.539" ry="3.752"/><ellipse fill="#383838" cx="446.501" cy="143.523" rx="3.539" ry="3.752"/><ellipse fill="#383838" cx="412.291" cy="151.026" rx="3.539" ry="3.752"/><ellipse fill="#383838" cx="398.135" cy="151.026" rx="3.539" ry="3.752"/><ellipse fill="#383838" cx="405.213" cy="143.523" rx="3.539" ry="3.752"/><ellipse fill="#383838" cx="391.057" cy="143.523" rx="3.539" ry="3.752"/><path d="M429.396 150.4c-.59-1.875-1.77-3.125-3.54-3.125s-2.95 1.25-3.538 3.126v.626c0 1.876 1.77 3.752 3.54 3.752 1.768 0 3.538-1.876 3.538-3.75v-.627z" fill="#383838"/><ellipse fill="#383838" cx="425.857" cy="92.25" rx="3.539" ry="3.752"/><ellipse fill="#383838" cx="418.779" cy="99.754" rx="3.539" ry="3.752"/><ellipse fill="#383838" cx="405.213" cy="99.754" rx="3.539" ry="3.752"/><ellipse fill="#383838" cx="391.057" cy="99.754" rx="3.539" ry="3.752"/><ellipse fill="#383838" cx="432.935" cy="84.747" rx="3.539" ry="3.752"/><ellipse fill="#383838" cx="446.501" cy="84.747" rx="3.539" ry="3.752"/><path d="M412.29 74.117c-1.77 0-2.95 1.25-3.538 3.127v.625c0 1.875 1.77 3.75 3.54 3.75 1.178 0 2.358-1.25 2.948-2.5v-1.876c0-1.876-1.18-3.127-2.95-3.127z" fill="#383838"/><ellipse fill="#383838" cx="412.291" cy="62.862" rx="3.539" ry="3.752"/><ellipse fill="#383838" cx="405.213" cy="70.366" rx="3.539" ry="3.752"/><ellipse fill="#383838" cx="418.779" cy="70.366" rx="3.539" ry="3.752"/><ellipse fill="#383838" cx="405.213" cy="55.359" rx="3.539" ry="3.752"/><ellipse fill="#383838" cx="418.779" cy="55.359" rx="3.539" ry="3.752"/><ellipse fill="#383838" cx="412.291" cy="92.25" rx="3.539" ry="3.752"/><ellipse fill="#383838" cx="405.213" cy="84.747" rx="3.539" ry="3.752"/><ellipse fill="#383838" cx="391.057" cy="84.747" rx="3.539" ry="3.752"/><ellipse fill="#383838" cx="418.779" cy="84.747" rx="3.539" ry="3.752"/><path d="M394.596 77.87c0 1.875 1.77 3.75 3.54 3.75 1.768 0 3.538-1.875 3.538-3.75v-.626c-.59-1.876-1.77-3.127-3.54-3.127s-2.95 1.25-3.538 3.127v.625z" fill="#383838"/><ellipse fill="#383838" cx="398.135" cy="62.862" rx="3.539" ry="3.752"/><ellipse fill="#383838" cx="391.057" cy="70.366" rx="3.539" ry="3.752"/><ellipse fill="#383838" cx="391.057" cy="55.359" rx="3.539" ry="3.752"/><ellipse fill="#383838" cx="398.135" cy="92.25" rx="3.539" ry="3.752"/><ellipse fill="#383838" cx="578.622" cy="136.02" rx="3.539" ry="3.752"/><ellipse fill="#383838" cx="564.466" cy="136.02" rx="3.539" ry="3.752"/><ellipse fill="#383838" cx="550.9" cy="136.02" rx="3.539" ry="3.752"/><ellipse fill="#383838" cx="536.744" cy="136.02" rx="3.539" ry="3.752"/><ellipse fill="#383838" cx="536.744" cy="180.415" rx="3.539" ry="3.752"/><ellipse fill="#383838" cx="536.744" cy="165.408" rx="3.539" ry="3.752"/><ellipse fill="#383838" cx="536.744" cy="151.026" rx="3.539" ry="3.752"/><ellipse fill="#383838" cx="536.744" cy="121.638" rx="3.539" ry="3.752"/><ellipse fill="#383838" cx="536.744" cy="106.632" rx="3.539" ry="3.752"/><ellipse fill="#383838" cx="536.744" cy="92.25" rx="3.539" ry="3.752"/><ellipse fill="#383838" cx="536.744" cy="77.869" rx="3.539" ry="3.752"/><ellipse fill="#383838" cx="536.744" cy="62.862" rx="3.539" ry="3.752"/><path d="M481.3 74.117c-1.77 0-2.95 1.25-3.538 3.127v.625c0 1.875 1.77 3.75 3.54 3.75 1.768 0 3.537-1.875 3.537-3.75v-.626c-.59-1.876-1.77-3.127-3.54-3.127z" fill="#383838"/><ellipse fill="#383838" cx="481.301" cy="62.862" rx="3.539" ry="3.752"/><path d="M425.857 74.117c-1.77 0-2.95 1.25-3.54 3.127v.625c0 1.875 1.77 3.75 3.54 3.75s3.54-1.875 3.54-3.75v-.626c-.59-1.876-1.77-3.127-3.54-3.127z" fill="#383838"/><ellipse fill="#383838" cx="425.857" cy="62.862" rx="3.539" ry="3.752"/><path d="M484.84 106.006c-.59-1.875-1.77-3.126-3.54-3.126s-2.95 1.25-3.538 3.126v.626c0 1.876 1.77 3.75 3.54 3.75 1.768 0 3.537-1.874 3.537-3.75v-.626z" fill="#383838"/><ellipse fill="#383838" cx="481.301" cy="92.25" rx="3.539" ry="3.752"/><ellipse fill="#383838" cx="481.301" cy="121.638" rx="3.539" ry="3.752"/><ellipse fill="#383838" cx="481.301" cy="151.026" rx="3.539" ry="3.752"/><ellipse fill="#383838" cx="481.301" cy="136.02" rx="3.539" ry="3.752"/><ellipse fill="#383838" cx="523.178" cy="136.02" rx="3.539" ry="3.752"/><ellipse fill="#383838" cx="509.022" cy="136.02" rx="3.539" ry="3.752"/><ellipse fill="#383838" cx="495.456" cy="136.02" rx="3.539" ry="3.752"/><ellipse fill="#383838" cx="523.178" cy="194.796" rx="3.539" ry="3.752"/><ellipse fill="#383838" cx="571.544" cy="187.918" rx="3.539" ry="3.752"/><ellipse fill="#383838" cx="564.466" cy="180.415" rx="3.539" ry="3.752"/><ellipse fill="#383838" cx="578.622" cy="209.803" rx="3.539" ry="3.752"/><ellipse fill="#383838" cx="578.622" cy="194.796" rx="3.539" ry="3.752"/><ellipse fill="#383838" cx="578.622" cy="180.415" rx="3.539" ry="3.752"/><ellipse fill="#383838" cx="467.734" cy="180.415" rx="3.539" ry="3.752"/><ellipse fill="#383838" cx="467.734" cy="165.408" rx="3.539" ry="3.752"/><ellipse fill="#383838" cx="460.657" cy="187.918" rx="3.539" ry="3.752"/><ellipse fill="#383838" cx="460.657" cy="172.911" rx="3.539" ry="3.752"/><ellipse fill="#383838" cx="460.657" cy="217.306" rx="3.539" ry="3.752"/><ellipse fill="#383838" cx="460.657" cy="202.299" rx="3.539" ry="3.752"/><ellipse fill="#383838" cx="474.223" cy="172.911" rx="3.539" ry="3.752"/><path d="M578.622 221.058c-1.77 0-3.54 1.875-3.54 3.75 0 1.877 1.77 3.753 3.54 3.753 1.18 0 2.95-1.25 3.54-2.5v-1.25c-.59-2.502-1.77-3.752-3.54-3.752z" fill="#383838"/><ellipse fill="#383838" cx="571.544" cy="217.306" rx="3.539" ry="3.752"/><ellipse fill="#383838" cx="453.579" cy="180.415" rx="3.539" ry="3.752"/><ellipse fill="#383838" cx="453.579" cy="165.408" rx="3.539" ry="3.752"/><ellipse fill="#383838" cx="446.501" cy="187.918" rx="3.539" ry="3.752"/><ellipse fill="#383838" cx="446.501" cy="172.911" rx="3.539" ry="3.752"/><ellipse fill="#383838" cx="453.579" cy="224.184" rx="3.539" ry="3.752"/><ellipse fill="#383838" cx="453.579" cy="209.803" rx="3.539" ry="3.752"/><ellipse fill="#383838" cx="446.501" cy="217.306" rx="3.539" ry="3.752"/><ellipse fill="#383838" cx="440.012" cy="165.408" rx="3.539" ry="3.752"/><ellipse fill="#383838" cx="425.857" cy="180.415" rx="3.539" ry="3.752"/><ellipse fill="#383838" cx="425.857" cy="224.184" rx="3.539" ry="3.752"/><ellipse fill="#383838" cx="425.857" cy="209.803" rx="3.539" ry="3.752"/><ellipse fill="#383838" cx="432.935" cy="217.306" rx="3.539" ry="3.752"/><ellipse fill="#383838" cx="432.935" cy="202.299" rx="3.539" ry="3.752"/><ellipse fill="#383838" cx="425.857" cy="194.796" rx="3.539" ry="3.752"/><ellipse fill="#383838" cx="440.012" cy="180.415" rx="3.539" ry="3.752"/><ellipse fill="#383838" cx="440.012" cy="224.184" rx="3.539" ry="3.752"/><ellipse fill="#383838" cx="440.012" cy="209.803" rx="3.539" ry="3.752"/><ellipse fill="#383838" cx="418.779" cy="187.918" rx="3.539" ry="3.752"/><ellipse fill="#383838" cx="418.779" cy="172.911" rx="3.539" ry="3.752"/><ellipse fill="#383838" cx="418.779" cy="217.306" rx="3.539" ry="3.752"/><ellipse fill="#383838" cx="418.779" cy="202.299" rx="3.539" ry="3.752"/><ellipse fill="#383838" cx="412.291" cy="165.408" rx="3.539" ry="3.752"/><ellipse fill="#383838" cx="398.135" cy="180.415" rx="3.539" ry="3.752"/><ellipse fill="#383838" cx="398.135" cy="165.408" rx="3.539" ry="3.752"/><ellipse fill="#383838" cx="398.135" cy="209.803" rx="3.539" ry="3.752"/><ellipse fill="#383838" cx="405.213" cy="187.918" rx="3.539" ry="3.752"/><ellipse fill="#383838" cx="405.213" cy="172.911" rx="3.539" ry="3.752"/><ellipse fill="#383838" cx="405.213" cy="217.306" rx="3.539" ry="3.752"/><ellipse fill="#383838" cx="405.213" cy="202.299" rx="3.539" ry="3.752"/><ellipse fill="#383838" cx="398.135" cy="194.796" rx="3.539" ry="3.752"/><ellipse fill="#383838" cx="412.291" cy="180.415" rx="3.539" ry="3.752"/><ellipse fill="#383838" cx="412.291" cy="224.184" rx="3.539" ry="3.752"/><ellipse fill="#383838" cx="412.291" cy="209.803" rx="3.539" ry="3.752"/><ellipse fill="#383838" cx="412.291" cy="194.796" rx="3.539" ry="3.752"/><ellipse fill="#383838" cx="391.057" cy="187.918" rx="3.539" ry="3.752"/><ellipse fill="#383838" cx="391.057" cy="172.911" rx="3.539" ry="3.752"/><ellipse fill="#383838" cx="391.057" cy="217.306" rx="3.539" ry="3.752"/><ellipse fill="#383838" cx="391.057" cy="202.299" rx="3.539" ry="3.752"/><ellipse fill="#383838" cx="578.622" cy="77.869" rx="3.539" ry="3.752"/><ellipse fill="#383838" cx="564.466" cy="77.869" rx="3.539" ry="3.752"/><ellipse fill="#383838" cx="550.9" cy="77.869" rx="3.539" ry="3.752"/><g transform="translate(48 50.885)" fill="#F35828"><ellipse cx="177.315" cy="239.579" rx="3.539" ry="3.752"/><ellipse cx="301.769" cy="33.862" rx="3.539" ry="3.752"/><ellipse cx="301.769" cy="137.033" rx="3.539" ry="3.752"/><ellipse cx="322.413" cy="26.984" rx="3.539" ry="3.752"/><ellipse cx="107.715" cy="210.191" rx="3.539" ry="3.752"/><ellipse cx="114.793" cy="70.754" rx="3.539" ry="3.752"/><path d="M73.505 23.233c-1.77 0-2.95 1.25-3.54 3.126v.624c0 1.876 1.77 3.752 3.54 3.752s3.54-1.876 3.54-3.752v-.625c-.59-1.877-2.36-3.127-3.54-3.127zM3.905 52.62c-1.77 0-2.95 1.25-3.54 3.127v.625c0 1.876 1.77 3.752 3.54 3.752 1.18 0 2.95-1.25 3.54-2.5v-1.877c-.59-1.876-1.77-3.126-3.54-3.126z"/><ellipse cx="10.983" cy="92.638" rx="3.539" ry="3.752"/><ellipse cx="100.637" cy="85.135" rx="3.539" ry="3.752"/><ellipse cx="73.505" cy="143.911" rx="3.539" ry="3.752"/><ellipse cx="627.354" cy="290.851" rx="3.539" ry="3.752"/><ellipse cx="537.11" cy="92.638" rx="3.539" ry="3.752"/><ellipse cx="578.988" cy="166.421" rx="3.539" ry="3.752"/><ellipse cx="509.388" cy="4.474" rx="3.539" ry="3.752"/><ellipse cx="481.667" cy="137.033" rx="3.539" ry="3.752"/><ellipse cx="350.135" cy="173.299" rx="3.539" ry="3.752"/></g></g></svg>